<svg width="16" height="16" viewBox="0 0 16 16" fill="none" xmlns="http://www.w3.org/2000/svg">
<g clip-path="url(#clip0_1_107)">
<path d="M0.167429 11.3864L1.24679 13.2559L12.2164 6.92261L13.2958 8.79212L15.1241 7.73657L14.0447 5.86705L15.873 4.8115L14.7936 2.94198L12.9654 3.99754L11.886 2.12802L10.0577 3.18358L11.1371 5.05309L0.167429 11.3864ZM7.15008 2.36962L8.97835 1.31406L10.0577 3.18358L8.22944 4.23913L7.15008 2.36962ZM7.15008 2.36962L5.3218 3.42517L4.24244 1.55566L6.07071 0.500102L7.15008 2.36962ZM12.5469 11.7172L14.3752 10.6616L13.2958 8.79212L11.4675 9.84768L12.5469 11.7172ZM12.5469 11.7172L10.7186 12.7727L11.798 14.6423L13.6263 13.5867L12.5469 11.7172Z" fill="#0ABF00"/>
</g>
<defs>
<clipPath id="clip0_1_107">
<rect width="16" height="15.1111" fill="white"/>
</clipPath>
</defs>
</svg>
