<svg width="16" height="16" viewBox="0 0 16 16" fill="none" xmlns="http://www.w3.org/2000/svg">
<g clip-path="url(#clip0_4_2283)">
<path d="M0.167551 11.3865L1.24692 13.256L12.2166 6.92267L13.2959 8.79218L15.1242 7.73663L14.0448 5.86711L15.8731 4.81156L14.7938 2.94204L12.9655 3.9976L11.8861 2.12808L10.0578 3.18364L11.1372 5.05315L0.167551 11.3865ZM7.1502 2.36968L8.97848 1.31412L10.0578 3.18364L8.22957 4.23919L7.1502 2.36968ZM7.1502 2.36968L5.32193 3.42523L4.24256 1.55572L6.07084 0.500163L7.1502 2.36968ZM12.547 11.7173L14.3753 10.6617L13.2959 8.79218L11.4677 9.84774L12.547 11.7173ZM12.547 11.7173L10.7187 12.7728L11.7981 14.6423L13.6264 13.5868L12.547 11.7173Z" fill="#D49CFF"/>
</g>
<defs>
<clipPath id="clip0_4_2283">
<rect width="16" height="15.1111" fill="white"/>
</clipPath>
</defs>
</svg>
