<svg width="11" height="11" viewBox="0 0 11 11" fill="none" xmlns="http://www.w3.org/2000/svg">
<path d="M4.417 1.56703C4.281 1.702 4.281 1.92131 4.417 2.05628C4.55289 2.19114 4.77317 2.19094 4.90918 2.05628L5.40137 1.56703L5.89453 2.05628C6.03045 2.19109 6.25074 2.19098 6.38672 2.05628C6.52271 1.92131 6.52271 1.702 6.38672 1.56703L5.89356 1.07777L6.38672 0.589487C6.52271 0.454515 6.52271 0.236178 6.38672 0.101206C6.25073 -0.0337196 6.03051 -0.033751 5.89453 0.101206L5.40137 0.589487L4.90918 0.101206C4.77318 -0.0336641 4.55295 -0.0337325 4.417 0.101206C4.28126 0.236125 4.28128 0.454561 4.417 0.589487L4.90918 1.07777L4.417 1.56703Z" fill="#262626"/>
<path d="M4.417 3.72526C4.28102 3.86021 4.28106 4.07856 4.417 4.21354C4.55299 4.34851 4.77319 4.34851 4.90918 4.21354L5.40137 3.72428L5.89453 4.21354C6.03053 4.3485 6.25073 4.34851 6.38672 4.21354C6.52242 4.07859 6.52251 3.86016 6.38672 3.72526L5.89356 3.236L6.38672 2.74772C6.52271 2.61275 6.52271 2.39343 6.38672 2.25846C6.25085 2.12373 6.03052 2.12391 5.89453 2.25846L5.40137 2.74674L4.90918 2.25846C4.77328 2.12376 4.55295 2.12386 4.417 2.25846C4.281 2.39343 4.281 2.61275 4.417 2.74772L4.90918 3.236L4.417 3.72526Z" fill="#262626"/>
<path d="M4.417 5.88197C4.281 6.01694 4.281 6.23626 4.417 6.37123C4.55289 6.50608 4.77317 6.50589 4.90918 6.37123L5.40137 5.88197L5.89453 6.37123C6.03045 6.50603 6.25074 6.50592 6.38672 6.37123C6.52271 6.23626 6.52271 6.01694 6.38672 5.88197L5.89356 5.39271L6.38672 4.90443C6.52271 4.76946 6.52271 4.55112 6.38672 4.41615C6.25073 4.28123 6.03051 4.28119 5.89453 4.41615L5.40137 4.90443L4.90918 4.41615C4.77318 4.28128 4.55295 4.28121 4.417 4.41615C4.28126 4.55107 4.28128 4.76951 4.417 4.90443L4.90918 5.39271L4.417 5.88197Z" fill="#262626"/>
<path d="M4.417 8.05745C4.28101 8.19241 4.28102 8.41075 4.417 8.54573C4.55299 8.6807 4.77319 8.6807 4.90918 8.54573L5.40137 8.05647L5.89356 8.54573C6.02955 8.6807 6.25073 8.6807 6.38672 8.54573C6.52233 8.41078 6.52245 8.19232 6.38672 8.05745L5.89356 7.56819L6.38672 7.07991C6.52263 6.94493 6.52269 6.7256 6.38672 6.59065C6.25072 6.45576 6.02952 6.45571 5.89356 6.59065L5.40137 7.07893L4.90918 6.59065C4.77331 6.45595 4.55297 6.45611 4.417 6.59065C4.281 6.72562 4.281 6.94494 4.417 7.07991L4.90918 7.56819L4.417 8.05745Z" fill="#262626"/>
<path d="M4.41699 10.2149C4.28125 10.3499 4.28113 10.5683 4.41699 10.7032C4.55294 10.8381 4.77317 10.838 4.90918 10.7032L5.40136 10.2139L5.89453 10.7032C6.0305 10.8381 6.25072 10.8381 6.38672 10.7032C6.52267 10.5682 6.52258 10.3499 6.38672 10.2149L5.89355 9.72562L6.38672 9.23734C6.52271 9.10237 6.52271 8.88305 6.38672 8.74808C6.25073 8.61324 6.03049 8.6132 5.89453 8.74808L5.40136 9.23636L4.90918 8.74808C4.77317 8.61328 4.55293 8.61316 4.41699 8.74808C4.28101 8.88305 4.281 9.10237 4.41699 9.23734L4.90918 9.72562L4.41699 10.2149Z" fill="#262626"/>
<path d="M7.07921 4.41694C6.94424 4.28095 6.72492 4.28095 6.58995 4.41694C6.4551 4.55283 6.45529 4.77311 6.58995 4.90913L7.07921 5.40131L6.58995 5.89448C6.45515 6.03039 6.45526 6.25068 6.58995 6.38667C6.72492 6.52266 6.94424 6.52266 7.07921 6.38667L7.56847 5.8935L8.05675 6.38667C8.19172 6.52266 8.41006 6.52266 8.54503 6.38667C8.67996 6.25067 8.67999 6.03045 8.54503 5.89448L8.05675 5.40131L8.54503 4.90913C8.6799 4.77313 8.67997 4.5529 8.54503 4.41694C8.41011 4.28121 8.19168 4.28122 8.05675 4.41694L7.56847 4.90913L7.07921 4.41694Z" fill="#262626"/>
<path d="M9.23575 4.41694C9.10079 4.28097 8.88244 4.281 8.74747 4.41694C8.61249 4.55293 8.61249 4.77313 8.74747 4.90913L9.23672 5.40131L8.74747 5.89448C8.61252 6.03047 8.6125 6.25068 8.74747 6.38667C8.88241 6.52246 9.10082 6.52248 9.23575 6.38667L9.72501 5.8935L10.2133 6.38667C10.3483 6.52266 10.5676 6.52266 10.7025 6.38667C10.8373 6.25076 10.8372 6.03046 10.7025 5.89448L10.2143 5.40131L10.7025 4.90913C10.8373 4.77319 10.8372 4.55289 10.7025 4.41694C10.5676 4.28095 10.3483 4.28095 10.2133 4.41694L9.72501 4.90913L9.23575 4.41694Z" fill="#262626"/>
<path d="M2.74706 4.41693C2.61208 4.28119 2.39368 4.28107 2.25878 4.41693C2.12385 4.55288 2.12393 4.77312 2.25878 4.90912L2.74804 5.40131L2.25878 5.89447C2.12385 6.03044 2.12388 6.25067 2.25878 6.38666C2.39371 6.52261 2.61208 6.52253 2.74706 6.38666L3.23632 5.8935L3.7246 6.38666C3.85957 6.52265 4.07888 6.52265 4.21386 6.38666C4.3487 6.25068 4.34873 6.03043 4.21386 5.89447L3.72557 5.40131L4.21386 4.90912C4.34866 4.77311 4.34877 4.55287 4.21386 4.41693C4.07888 4.28095 3.85957 4.28094 3.7246 4.41693L3.23632 4.90912L2.74706 4.41693Z" fill="#262626"/>
<path d="M0.590479 4.41683C0.455512 4.28102 0.236142 4.28095 0.101221 4.41683C-0.0337314 4.5528 -0.0336916 4.77399 0.101221 4.90999L0.590479 5.40218L0.101221 5.89436C-0.0337379 6.03036 -0.0337428 6.25154 0.101221 6.38753C0.236154 6.52348 0.455497 6.5234 0.590479 6.38753L1.07974 5.89436L1.56802 6.38753C1.70289 6.52316 1.92137 6.52307 2.0563 6.38753C2.19127 6.25154 2.19127 6.03036 2.0563 5.89436L1.56802 5.40218L2.0563 4.90999C2.19127 4.774 2.19127 4.55282 2.0563 4.41683C1.92139 4.28136 1.70287 4.28126 1.56802 4.41683L1.07974 4.90901L0.590479 4.41683Z" fill="#262626"/>
</svg>
