<svg width="16" height="17" viewBox="0 0 16 17" fill="none" xmlns="http://www.w3.org/2000/svg">
<g clip-path="url(#clip0_1_746)">
<path d="M8.94076 0.00012207H6.95383L6.95383 10.9613H4.9669V12.9317H6.95383V14.9021H8.94075V12.9317H10.9277V10.9613L8.94075 10.9613L8.94076 0.00012207ZM12.9146 8.99097V10.9613H10.9277V8.99097H12.9146ZM12.9146 8.99097V7.0206H14.9015V8.99097H12.9146ZM2.97997 8.99097V10.9613H4.9669V8.99097H2.97997ZM2.97997 8.99097L2.97997 7.0206H0.993042L0.993042 8.99097H2.97997Z" fill="#0ABF00"/>
<path d="M6.95383 0.00012207H8.94076L8.94075 10.9613L10.9277 10.9613V8.99097H12.9146V7.0206H14.9015V8.99097H12.9146V10.9613H10.9277L8.94075 10.9613L8.94076 0.00012207H6.95383L6.95383 10.9613H4.9669H2.97997V8.99097H0.993042L0.993042 7.0206H2.97997L2.97997 8.99097H4.9669V10.9613H6.95383L6.95383 0.00012207Z" fill="#0ABF00"/>
<rect y="14.9021" width="15.8954" height="1.98693" fill="#0ABF00"/>
</g>
<defs>
<clipPath id="clip0_1_746">
<rect width="15.8954" height="16.8889" fill="white"/>
</clipPath>
</defs>
</svg>
