<svg width="19" height="20" viewBox="0 0 19 20" fill="none" xmlns="http://www.w3.org/2000/svg">
<path d="M9.58972 0.100586C9.72377 -0.0332364 9.94109 -0.0333427 10.0751 0.100586C10.209 0.234569 10.2089 0.451877 10.0751 0.585938L9.5907 1.07129L10.0751 1.55664C10.1853 1.66698 10.203 1.83264 10.1317 1.96289C10.2039 2.0934 10.1867 2.26037 10.076 2.37109L9.5907 2.85645L10.076 3.3418C10.1862 3.45227 10.2032 3.6178 10.1317 3.74805C10.2035 3.87843 10.1854 4.04469 10.0751 4.15527L9.58972 4.64062L10.0751 5.12695C10.2089 5.26096 10.2089 5.4783 10.0751 5.6123C9.98988 5.69746 9.87132 5.72822 9.7616 5.70508L9.99792 5.94043L10.4833 5.45508C10.6174 5.32144 10.8347 5.32117 10.9686 5.45508C11.1025 5.589 11.1022 5.80637 10.9686 5.94043L10.4833 6.42578L10.9686 6.91211C11.0324 6.97596 11.0642 7.05897 11.0673 7.14258C11.1509 7.14562 11.2339 7.17836 11.2977 7.24219L11.7841 7.72754L12.2694 7.24219C12.4035 7.10843 12.6208 7.10824 12.7548 7.24219C12.8883 7.37617 12.8884 7.59359 12.7548 7.72754L12.2694 8.21289L12.7548 8.69824C12.8174 8.76109 12.8486 8.84251 12.8524 8.9248C12.9362 8.92773 13.019 8.96051 13.0829 9.02441L13.5682 9.50977L14.0536 9.02441C14.164 8.91409 14.3305 8.89535 14.4608 8.9668C14.5912 8.89539 14.7577 8.91405 14.868 9.02441L15.3534 9.50977L15.8387 9.02441C15.9495 8.91373 16.1165 8.8955 16.2469 8.96777C16.3773 8.89711 16.5441 8.91634 16.6542 9.02637L17.1395 9.51074L17.6249 9.02637C17.7589 8.89261 17.9763 8.89245 18.1102 9.02637C18.2441 9.16033 18.244 9.37767 18.1102 9.51172L17.6249 9.99707L18.1102 10.4824C18.2441 10.6163 18.2439 10.8337 18.1102 10.9678C17.9762 11.1018 17.7589 11.1018 17.6249 10.9678L17.1395 10.4824L16.6542 10.9678C16.5431 11.0789 16.3749 11.0965 16.244 11.0234C16.1139 11.094 15.9488 11.0758 15.8387 10.9658L15.3534 10.4805L14.868 10.9658C14.7575 11.0763 14.5912 11.0942 14.4608 11.0225C14.3304 11.0942 14.1641 11.0763 14.0536 10.9658L13.5682 10.4805L13.0829 10.9658C13.019 11.0297 12.9361 11.0615 12.8524 11.0645C12.85 11.1489 12.8172 11.2324 12.7528 11.2969L12.2675 11.7822L12.7528 12.2686C12.8865 12.4026 12.8867 12.6199 12.7528 12.7539C12.6188 12.8877 12.4015 12.8876 12.2675 12.7539L11.7821 12.2676L11.2968 12.7529C11.2333 12.8164 11.1513 12.8482 11.0682 12.8516C11.0655 12.9356 11.0335 13.0188 10.9696 13.083L10.4843 13.5684L10.9696 14.0547C11.1033 14.1886 11.1032 14.406 10.9696 14.54C10.8356 14.674 10.6183 14.6739 10.4843 14.54L9.9989 14.0537L9.76257 14.2891C9.8722 14.2661 9.99092 14.2977 10.076 14.3828C10.2095 14.5169 10.2099 14.7343 10.076 14.8682L9.5907 15.3535L10.076 15.8389C10.1863 15.9493 10.2033 16.1148 10.1317 16.2451C10.2031 16.3754 10.1853 16.5409 10.0751 16.6514L9.58972 17.1367L10.0751 17.623C10.1851 17.7334 10.2028 17.8991 10.1317 18.0293C10.2047 18.1599 10.1868 18.3273 10.076 18.4385L9.5907 18.9238L10.076 19.4092C10.2099 19.5431 10.2096 19.7604 10.076 19.8945C9.942 20.0286 9.72475 20.0286 9.5907 19.8945L9.10535 19.4092L8.61902 19.8955C8.48496 20.0292 8.2676 20.0294 8.13367 19.8955C7.99995 19.7616 8.00007 19.5442 8.13367 19.4102L8.62 18.9238L8.13367 18.4385C8.0236 18.328 8.00459 18.1615 8.07605 18.0312C8.00422 17.9009 8.02244 17.7337 8.13269 17.623L8.61902 17.1367L8.13269 16.6514C8.02252 16.5406 8.00403 16.3735 8.07605 16.2432C8.00597 16.1132 8.02418 15.9487 8.13367 15.8389L8.62 15.3535L8.13367 14.8682C7.99996 14.7342 8.00001 14.5168 8.13367 14.3828C8.21929 14.2972 8.33888 14.2662 8.4491 14.29L8.21179 14.0527L7.72644 14.5381C7.59248 14.672 7.37416 14.6718 7.24011 14.5381C7.10645 14.4041 7.10643 14.1867 7.24011 14.0527L7.72644 13.5674L7.24011 13.082C7.17666 13.0185 7.14374 12.9358 7.1405 12.8525C7.05737 12.8492 6.97545 12.8172 6.91199 12.7539L6.42664 12.2676L5.94128 12.7529C5.80729 12.8869 5.59 12.8868 5.45593 12.7529C5.32195 12.6189 5.3219 12.4016 5.45593 12.2676L5.94128 11.7822L5.45593 11.2969C5.39145 11.2324 5.35775 11.149 5.35535 11.0645C5.27233 11.0611 5.1903 11.0291 5.12683 10.9658L4.64148 10.4805L4.15515 10.9668C4.04475 11.0768 3.87819 11.0947 3.74792 11.0234C3.61762 11.0949 3.45208 11.0772 3.34167 10.9668L2.8573 10.4814L2.37097 10.9678C2.26044 11.0783 2.09338 11.0962 1.96277 11.0244C1.83249 11.0957 1.66688 11.078 1.55652 10.9678L1.07117 10.4814L0.585815 10.9668C0.451764 11.1008 0.234516 11.1008 0.100464 10.9668C-0.0335308 10.8327 -0.0335688 10.6155 0.100464 10.4814L0.585815 9.99609L0.100464 9.51172C-0.0335312 9.37766 -0.0335689 9.1604 0.100464 9.02637C0.234508 8.89248 0.451806 8.89242 0.585815 9.02637L1.07117 9.51074L1.55652 9.02539C1.66673 8.91541 1.83262 8.89686 1.96277 8.96777C2.0933 8.89639 2.2606 8.91502 2.37097 9.02539L2.85632 9.50977L3.34167 9.02539C3.45171 8.91571 3.61694 8.89731 3.74695 8.96777C3.87738 8.89575 4.04445 8.91392 4.15515 9.02441L4.64148 9.50977L5.12683 9.02441C5.1906 8.96084 5.27284 8.92792 5.35632 8.9248C5.36042 8.84278 5.39343 8.76187 5.45593 8.69922L5.94226 8.21289L5.45593 7.72754C5.32201 7.59357 5.32216 7.37625 5.45593 7.24219C5.58998 7.10822 5.80725 7.10821 5.94128 7.24219L6.42761 7.72754L6.91296 7.24219C6.97664 7.17875 7.05908 7.14577 7.14246 7.14258C7.1452 7.05854 7.17791 6.97529 7.24207 6.91113L7.72742 6.42578L7.24207 5.94043C7.10801 5.80638 7.10801 5.58913 7.24207 5.45508C7.37615 5.32148 7.59352 5.32118 7.72742 5.45508L8.21277 5.94043L8.4491 5.70312C8.33859 5.72733 8.21854 5.6981 8.13269 5.6123C7.99886 5.47826 7.99876 5.25997 8.13269 5.12598L8.61804 4.64062L8.13269 4.15625C8.02202 4.04538 8.0035 3.87762 8.07605 3.74707C8.00551 3.61693 8.02386 3.45181 8.13367 3.3418L8.62 2.85547L8.13464 2.37109C8.02448 2.26093 8.00612 2.09503 8.07703 1.96484C8.00523 1.83446 8.02313 1.66817 8.13367 1.55762L8.62 1.07129L8.13367 0.585938C7.99962 0.451895 7.99964 0.23464 8.13367 0.100586C8.26772 -0.0334544 8.48497 -0.033462 8.61902 0.100586L9.10535 0.585938L9.58972 0.100586ZM8.69617 18.0303L9.10535 18.4385L9.51257 18.0303L9.10437 17.6221L8.69617 18.0303ZM8.69812 16.2451L9.10437 16.6514L9.51062 16.2441L9.10535 15.8379L8.69812 16.2451ZM9.10242 14.5947C9.02915 14.6346 8.94579 14.6464 8.86609 14.6289L9.10535 14.8682L9.34167 14.6309C9.26075 14.6482 9.17626 14.6362 9.10242 14.5947ZM8.69714 13.5674L9.10535 13.9756L9.51257 13.5684L9.10339 13.1602L8.69714 13.5674ZM9.58875 12.6748L9.99792 13.083L10.4042 12.6758L9.99695 12.2676L9.58875 12.6748ZM7.80554 12.6748L8.21179 13.0811L8.61804 12.6748L8.21277 12.2686L7.80554 12.6748ZM6.91199 11.7822L7.31921 12.1904L7.72742 11.7832L7.31824 11.375L6.91199 11.7822ZM8.69812 11.7832L9.10339 12.1895L9.5116 11.7822L9.10535 11.376L8.69812 11.7832ZM10.4823 11.7822L10.8885 12.1895L11.2968 11.7822L10.8895 11.375L10.4823 11.7822ZM7.80359 10.8887L8.21277 11.2979L8.62097 10.8887L8.21277 10.4805L7.80359 10.8887ZM6.01941 10.8896L6.42664 11.2969L6.83386 10.8887L6.42761 10.4814L6.01941 10.8896ZM9.58972 10.8896L9.99695 11.2969L10.4042 10.8887L9.99792 10.4824L9.58972 10.8896ZM11.3749 10.8896L11.7821 11.2969L12.1893 10.8887L11.7831 10.4824L11.3749 10.8896ZM10.4833 9.99707L10.8905 10.4043L11.2977 9.99707L10.8905 9.58984L10.4833 9.99707ZM5.12683 9.99512L5.53503 10.4033L5.94226 9.99609L5.53308 9.58789L5.12683 9.99512ZM12.2684 9.99707L12.6747 10.4033L13.0829 9.99512L12.6766 9.58887L12.2684 9.99707ZM15.8387 9.99512L16.2469 10.4033L16.6542 9.99707L16.245 9.58789L15.8387 9.99512ZM1.55652 9.99609L1.96277 10.4023L2.37097 9.99609L1.96277 9.58887L1.55652 9.99609ZM6.91296 9.99609L7.31824 10.4023L7.72742 9.99512L7.32019 9.58789L6.91296 9.99609ZM8.69812 9.99512L9.10535 10.4023L9.51257 9.99707L9.10339 9.58887L8.69812 9.99512ZM14.0536 9.99512L14.4608 10.4023L14.868 9.99512L14.4608 9.58789L14.0536 9.99512ZM3.34265 9.99609L3.74792 10.4014L4.15613 9.99512L3.7489 9.58789L3.34265 9.99609ZM11.3759 9.10449L11.7831 9.51172L12.1903 9.10352L11.7841 8.69727L11.3759 9.10449ZM6.02039 9.10449L6.42761 9.51074L6.83386 9.10352L6.42859 8.69824L6.02039 9.10449ZM9.59167 9.10449L9.99792 9.51074L10.4052 9.10352L9.99988 8.69824L9.59167 9.10449ZM7.80554 9.10254L8.21277 9.50977L8.61902 9.10254L8.21277 8.69629L7.80554 9.10254ZM8.69812 8.21094L9.10632 8.61914L9.51355 8.21289L9.10437 7.80371L8.69812 8.21094ZM10.4852 8.21289L10.8905 8.61914L11.2987 8.21289L10.8915 7.80566L10.4852 8.21289ZM6.91394 8.21289L7.31824 8.61816L7.72644 8.21094L7.32019 7.80566L6.91394 8.21289ZM9.58972 7.31836L9.9989 7.72754L10.4061 7.31934L9.99792 6.91113L9.58972 7.31836ZM7.80457 7.31836L8.21277 7.72559L8.61902 7.31836L8.21277 6.91113L7.80457 7.31836ZM8.69812 6.42578L9.10437 6.83203L9.5116 6.42578L9.10437 6.01855L8.69812 6.42578ZM8.86707 5.3623C8.94727 5.3448 9.03179 5.35789 9.10535 5.39844C9.17839 5.35875 9.2621 5.34716 9.34167 5.36426L9.10437 5.12598L8.86707 5.3623ZM8.69714 3.74902L9.10339 4.15527L9.51062 3.74707L9.10535 3.3418L8.69714 3.74902ZM8.69812 1.96289L9.10535 2.37012L9.5116 1.96387L9.10535 1.55664L8.69812 1.96289Z" fill="#0ABF00"/>
</svg>
