<svg width="27" height="26" viewBox="0 0 27 26" fill="none" xmlns="http://www.w3.org/2000/svg">
<path d="M7.53491 11.9292C7.67123 11.7932 7.89259 11.7934 8.02905 11.9292C8.16553 12.0657 8.16549 12.2878 8.02905 12.4243L7.53491 12.9185L8.02905 13.4126C8.16553 13.5491 8.16549 13.7702 8.02905 13.9067C8.02809 13.9077 8.02612 13.9077 8.02515 13.9087C8.02664 13.9101 8.02856 13.9111 8.03003 13.9126C8.03097 13.9135 8.03203 13.9146 8.03296 13.9155C8.03392 13.9145 8.03491 13.9136 8.03589 13.9126C8.1724 13.7762 8.39358 13.7761 8.53003 13.9126L9.02417 14.4067L9.51831 13.9126C9.65475 13.7762 9.87594 13.7763 10.0125 13.9126C10.1489 14.0491 10.1489 14.2703 10.0125 14.4067L9.51733 14.9009L10.0125 15.396C10.1489 15.5325 10.1489 15.7537 10.0125 15.8901C10.0111 15.8914 10.0089 15.8918 10.0076 15.8931C10.0091 15.8945 10.011 15.8955 10.0125 15.897C10.0136 15.8981 10.0143 15.8997 10.0154 15.9009C10.0167 15.8996 10.018 15.8983 10.0193 15.897C10.1558 15.7605 10.3769 15.7605 10.5134 15.897L11.0076 16.3901L11.5017 15.897C11.6382 15.7605 11.8603 15.7605 11.9968 15.897C12.1328 16.0335 12.1331 16.2548 11.9968 16.3911L11.5017 16.8853L11.9968 17.3794C12.133 17.5158 12.133 17.7371 11.9968 17.8735C11.9955 17.8748 11.9933 17.8752 11.9919 17.8765C11.9934 17.8779 11.9954 17.8789 11.9968 17.8804C11.9977 17.8813 11.9988 17.8824 11.9998 17.8833C12.0007 17.8823 12.0017 17.8814 12.0027 17.8804C12.1392 17.744 12.3603 17.744 12.4968 17.8804L12.991 18.3755L13.4851 17.8804C13.6216 17.7439 13.8437 17.7439 13.9802 17.8804C14.1163 18.0168 14.1163 18.2381 13.9802 18.3745L13.4851 18.8696L13.9802 19.3638C14.1162 19.5003 14.1165 19.7216 13.9802 19.8579C13.8438 19.994 13.6215 19.9941 13.4851 19.8579L12.991 19.3638L12.4968 19.8579C12.3604 19.9939 12.1391 19.994 12.0027 19.8579C12.0013 19.8565 12.0002 19.8545 11.9988 19.853C11.9978 19.854 11.9978 19.856 11.9968 19.8569C11.9957 19.8581 11.9941 19.8587 11.9929 19.8599C11.9941 19.861 11.9957 19.8617 11.9968 19.8628C12.1331 19.9992 12.1329 20.2204 11.9968 20.3569L11.5027 20.8521L11.9968 21.3462C12.1332 21.4827 12.1332 21.7039 11.9968 21.8403C11.8604 21.9768 11.6392 21.9767 11.5027 21.8403L11.0085 21.3462L10.5134 21.8403C10.3769 21.9766 10.1557 21.9767 10.0193 21.8403C10.0178 21.8389 10.0168 21.8369 10.0154 21.8354C10.0141 21.8367 10.0137 21.839 10.0125 21.8403C10.0113 21.8415 10.0097 21.8421 10.0085 21.8433C10.0097 21.8444 10.0113 21.8451 10.0125 21.8462C10.1489 21.9827 10.1489 22.2038 10.0125 22.3403L9.51831 22.8335L10.0134 23.3286C10.1499 23.4651 10.1498 23.6872 10.0134 23.8237C9.87693 23.9602 9.65481 23.9602 9.51831 23.8237L9.02417 23.3286L8.53003 23.8237C8.39361 23.96 8.17236 23.9599 8.03589 23.8237C8.03458 23.8224 8.03326 23.8211 8.03198 23.8198C8.03077 23.8211 8.03029 23.8235 8.02905 23.8247C8.02774 23.826 8.0255 23.8264 8.02417 23.8276C8.02563 23.829 8.02761 23.8301 8.02905 23.8315C8.16544 23.9681 8.16552 24.1892 8.02905 24.3257L7.53491 24.8198L8.02905 25.314C8.16545 25.4505 8.16552 25.6716 8.02905 25.8081C7.89256 25.9442 7.67129 25.9444 7.53491 25.8081L7.04077 25.314L6.54663 25.8081C6.41016 25.9444 6.18896 25.9445 6.05249 25.8081C5.91603 25.6716 5.91612 25.4505 6.05249 25.314L6.54663 24.8198L6.05249 24.3247C5.91613 24.1882 5.91615 23.967 6.05249 23.8306C6.05343 23.8296 6.05448 23.8286 6.05542 23.8276C6.05443 23.8267 6.05347 23.8257 6.05249 23.8247C6.05137 23.8236 6.05066 23.8219 6.04956 23.8208C6.04844 23.822 6.04777 23.8236 6.04663 23.8247C5.91013 23.9612 5.68801 23.9612 5.55151 23.8247L5.05737 23.3315L4.56323 23.8247C4.42673 23.9612 4.20559 23.9612 4.06909 23.8247C3.93285 23.6882 3.93268 23.467 4.06909 23.3306L4.56323 22.8364L4.06909 22.3423C3.93271 22.2058 3.93263 21.9836 4.06909 21.8472C4.0704 21.8459 4.07168 21.8445 4.073 21.8433C4.07186 21.8422 4.07022 21.8415 4.06909 21.8403C4.06779 21.839 4.06647 21.8377 4.06519 21.8364C4.06403 21.8376 4.06343 21.8401 4.06226 21.8413C3.92574 21.9773 3.70447 21.9776 3.56812 21.8413L3.07397 21.3472L2.57983 21.8413C2.44335 21.9774 2.22207 21.9775 2.08569 21.8413C1.94933 21.7049 1.9496 21.4837 2.08569 21.3472L2.57983 20.853L2.08569 20.3589C1.94935 20.2225 1.94965 20.0013 2.08569 19.8647C2.08686 19.8636 2.08842 19.862 2.0896 19.8608C2.08817 19.8595 2.08613 19.8583 2.08472 19.8569C2.08374 19.856 2.08275 19.855 2.08179 19.854C2.08082 19.855 2.08081 19.8569 2.07983 19.8579C1.94352 19.9942 1.72224 19.9939 1.58569 19.8579L1.09058 19.3638L0.596436 19.8579C0.460025 19.9943 0.238811 19.9941 0.102295 19.8579C-0.0341102 19.7214 -0.034159 19.5002 0.102295 19.3638L0.596436 18.8696L0.102295 18.3745C-0.034005 18.238 -0.0341382 18.0168 0.102295 17.8804C0.238751 17.7442 0.460014 17.7442 0.596436 17.8804L1.09058 18.3755L1.58569 17.8804C1.72221 17.7445 1.94354 17.7442 2.07983 17.8804C2.08065 17.8812 2.08098 17.8825 2.08179 17.8833L2.08862 17.8765C2.08772 17.8756 2.08659 17.8744 2.08569 17.8735C1.94944 17.737 1.94928 17.5158 2.08569 17.3794L2.57983 16.8853L2.08569 16.3901C1.94948 16.2536 1.94929 16.0324 2.08569 15.896C2.22214 15.7601 2.4435 15.76 2.57983 15.896L3.07397 16.3911L3.56812 15.897C3.70455 15.7607 3.9258 15.7608 4.06226 15.897C4.06332 15.898 4.06414 15.8998 4.06519 15.9009L4.073 15.8931C4.07195 15.892 4.07013 15.8912 4.06909 15.8901C3.93296 15.7536 3.93272 15.5324 4.06909 15.396L4.56323 14.9019L4.06909 14.4077C3.93293 14.2712 3.93274 14.05 4.06909 13.9136C4.20548 13.7772 4.42671 13.7774 4.56323 13.9136L5.05737 14.4077L5.55151 13.9136C5.68789 13.7772 5.90913 13.7774 6.04565 13.9136C6.04652 13.9144 6.04773 13.9156 6.04858 13.9165L6.05542 13.9097C6.05451 13.9088 6.05339 13.9076 6.05249 13.9067C5.91622 13.7702 5.91607 13.549 6.05249 13.4126L6.54663 12.9185L6.05249 12.4233C5.91622 12.2868 5.91607 12.0656 6.05249 11.9292C6.18894 11.7932 6.41024 11.7931 6.54663 11.9292L7.04077 12.4243L7.53491 11.9292ZM6.54663 23.8247C6.54549 23.8258 6.54388 23.8265 6.54272 23.8276C6.54385 23.8287 6.54552 23.8295 6.54663 23.8306L7.04077 24.3257L7.53882 23.8276C7.53766 23.8265 7.53605 23.8258 7.53491 23.8247L7.04077 23.3306L6.54663 23.8247ZM6.04663 22.3423L5.55151 22.8364L6.04663 23.3306C6.04757 23.3315 6.04864 23.3326 6.04956 23.3335C6.05052 23.3325 6.05151 23.3315 6.05249 23.3306L6.54565 22.8364L6.05249 22.3423C6.05137 22.3412 6.05066 22.3395 6.04956 22.3384C6.04844 22.3395 6.04777 22.3411 6.04663 22.3423ZM8.02905 22.3423L7.53491 22.8364L8.02905 23.3306C8.02987 23.3314 8.0302 23.3327 8.03101 23.3335C8.03257 23.3319 8.03429 23.3302 8.03589 23.3286L8.52905 22.8345L8.03589 22.3403C8.03475 22.3392 8.03408 22.3376 8.03296 22.3364C8.03143 22.338 8.03062 22.3407 8.02905 22.3423ZM4.56323 21.8403C4.562 21.8416 4.5596 21.842 4.55835 21.8433C4.55984 21.8447 4.56176 21.8457 4.56323 21.8472L5.05737 22.3423L5.5564 21.8433C5.55526 21.8422 5.55362 21.8415 5.55249 21.8403L5.05835 21.3462L4.56323 21.8403ZM6.54663 15.8901C6.41015 16.0266 6.18898 16.0266 6.05249 15.8901C6.05102 15.8887 6.05002 15.8867 6.04858 15.8853C6.0473 15.8866 6.04696 15.8888 6.04565 15.8901C6.04451 15.8913 6.0429 15.8919 6.04175 15.8931C6.04314 15.8944 6.04525 15.8956 6.04663 15.897C6.18233 16.0334 6.18262 16.2548 6.04663 16.3911L5.55151 16.8853L6.04663 17.3794C6.18256 17.5158 6.18252 17.7371 6.04663 17.8735C5.91022 18.0099 5.68804 18.0098 5.55151 17.8735L5.05737 17.3794L4.56323 17.8735C4.42682 18.0099 4.20561 18.0098 4.06909 17.8735C4.06771 17.8722 4.06654 17.8701 4.06519 17.8687C4.0639 17.87 4.06357 17.8722 4.06226 17.8735C4.06101 17.8748 4.05863 17.8752 4.05737 17.8765C4.05887 17.8779 4.06078 17.8789 4.06226 17.8804C4.19836 18.0168 4.19845 18.2381 4.06226 18.3745L3.56714 18.8687L4.06226 19.3628C4.19853 19.4991 4.19828 19.7204 4.06226 19.8569C4.06078 19.8584 4.05887 19.8594 4.05737 19.8608C4.05884 19.8623 4.0608 19.8633 4.06226 19.8647C4.06307 19.8656 4.0634 19.8669 4.06421 19.8677C4.06573 19.8661 4.06754 19.8643 4.06909 19.8628C4.20559 19.7265 4.42778 19.7264 4.56421 19.8628L5.05835 20.3579L5.55249 19.8628C5.68897 19.7268 5.91028 19.7266 6.04663 19.8628C6.18297 19.9991 6.18264 20.2204 6.04663 20.3569L5.55249 20.8521L6.04663 21.3462C6.18301 21.4826 6.18289 21.7038 6.04663 21.8403C6.04523 21.8417 6.04316 21.8429 6.04175 21.8442C6.04324 21.8457 6.04516 21.8467 6.04663 21.8481C6.04741 21.8489 6.04782 21.8503 6.04858 21.8511C6.04986 21.8498 6.05119 21.8485 6.05249 21.8472C6.18897 21.7111 6.41024 21.7109 6.54663 21.8472L7.04077 22.3423L7.53491 21.8472C7.67129 21.7109 7.89256 21.7111 8.02905 21.8472C8.03003 21.8481 8.03102 21.8491 8.03198 21.8501L8.03882 21.8433C8.03777 21.8422 8.03595 21.8414 8.03491 21.8403C7.89913 21.7039 7.89886 21.4825 8.03491 21.3462L8.53003 20.8521L8.03589 20.3579C7.89974 20.2214 7.89958 20.0002 8.03589 19.8638C8.17228 19.7274 8.39351 19.7276 8.53003 19.8638L9.02417 20.3579L9.51831 19.8638C9.6547 19.7274 9.87593 19.7276 10.0125 19.8638C10.0133 19.8646 10.0145 19.8658 10.0154 19.8667L10.0222 19.8599C10.0213 19.859 10.0202 19.8579 10.0193 19.8569C9.88306 19.7204 9.88293 19.4992 10.0193 19.3628L10.5134 18.8687L10.0193 18.3745C9.88305 18.2381 9.88311 18.0168 10.0193 17.8804C10.0206 17.8791 10.0219 17.8777 10.0232 17.8765C10.022 17.8753 10.0204 17.8747 10.0193 17.8735C10.0179 17.8721 10.0168 17.8701 10.0154 17.8687C10.0141 17.8699 10.0137 17.8723 10.0125 17.8735C9.87597 18.0099 9.65477 18.0099 9.51831 17.8735L9.02319 17.3784L8.52905 17.8735C8.39254 18.0099 8.17136 18.01 8.03491 17.8735C7.89861 17.7371 7.89861 17.5159 8.03491 17.3794L8.52905 16.8843L8.03491 16.3911C7.89857 16.2547 7.8988 16.0335 8.03491 15.897C8.03617 15.8957 8.03755 15.8943 8.03882 15.8931C8.03783 15.8921 8.03687 15.8911 8.03589 15.8901C8.03477 15.889 8.03406 15.8874 8.03296 15.8862C8.03184 15.8874 8.03117 15.889 8.03003 15.8901C7.89353 16.0266 7.67141 16.0266 7.53491 15.8901L7.04077 15.396L6.54663 15.8901ZM8.53003 21.8403C8.52888 21.8415 8.52728 21.8421 8.52612 21.8433C8.52728 21.8444 8.52889 21.845 8.53003 21.8462L9.02417 22.3394L9.51831 21.8462C9.51945 21.8451 9.52009 21.8434 9.52124 21.8423C9.52053 21.8416 9.51902 21.841 9.51831 21.8403L9.02417 21.3462L8.53003 21.8403ZM4.06226 20.3589L3.56812 20.853L4.06519 21.3501C4.06639 21.3489 4.06786 21.3474 4.06909 21.3462L4.56421 20.8521L4.06909 20.3569C4.06795 20.3558 4.06729 20.3542 4.06616 20.353C4.06469 20.3545 4.06376 20.3574 4.06226 20.3589ZM10.0125 20.3579L9.51831 20.8521L10.0125 21.3462C10.0135 21.3472 10.0144 21.3491 10.0154 21.3501C10.0166 21.3488 10.018 21.3475 10.0193 21.3462L10.5144 20.8521L10.0154 20.353C10.0141 20.3543 10.0137 20.3566 10.0125 20.3579ZM2.57886 19.8569C2.57755 19.8582 2.5753 19.8586 2.57397 19.8599C2.57578 19.8616 2.57805 19.863 2.57983 19.8647L3.07397 20.3589L3.57202 19.8608C3.57059 19.8595 3.56855 19.8583 3.56714 19.8569L3.073 19.3638L2.57886 19.8569ZM10.5134 19.8569C10.5124 19.8579 10.5105 19.8579 10.5095 19.8589C10.511 19.8603 10.513 19.8613 10.5144 19.8628L11.0085 20.3579L11.5027 19.8628C11.5037 19.8618 11.5046 19.8608 11.5056 19.8599C11.5045 19.8588 11.5028 19.858 11.5017 19.8569L11.0076 19.3638L10.5134 19.8569ZM11.9968 18.3745L11.5017 18.8687L11.9968 19.3628C11.9979 19.3639 11.9987 19.3656 11.9998 19.3667L12.4968 18.8696L12.0027 18.3745C12.0016 18.3734 12.0008 18.3717 11.9998 18.3706C11.9986 18.3717 11.998 18.3734 11.9968 18.3745ZM2.07983 18.3755L1.58472 18.8696L2.07983 19.3638L2.08179 19.3657L2.57886 18.8687L2.08179 18.3716C2.08082 18.3726 2.08081 18.3745 2.07983 18.3755ZM2.57983 17.8735C2.57859 17.8748 2.57621 17.8752 2.57495 17.8765L3.073 18.3745L3.57104 17.8765L3.07397 17.3794L2.57983 17.8735ZM10.5134 17.8735C10.5121 17.8748 10.5099 17.8752 10.5085 17.8765C10.51 17.8779 10.512 17.8789 10.5134 17.8804L11.0076 18.3745L11.5056 17.8765L11.0076 17.3784L10.5134 17.8735ZM4.06226 16.3911L3.56812 16.8853L4.06226 17.3794C4.06332 17.3805 4.06414 17.3822 4.06519 17.3833L4.56323 16.8853L4.06909 16.3911C4.06771 16.3897 4.06654 16.3876 4.06519 16.3862C4.0639 16.3876 4.06357 16.3898 4.06226 16.3911ZM10.0125 16.3911L9.51733 16.8853L10.0125 17.3794C10.0136 17.3805 10.0143 17.3822 10.0154 17.3833C10.0167 17.382 10.018 17.3807 10.0193 17.3794L10.5134 16.8843L10.0193 16.3911C10.0179 16.3897 10.0168 16.3877 10.0154 16.3862C10.0141 16.3875 10.0137 16.3899 10.0125 16.3911ZM4.56323 15.8901C4.56192 15.8914 4.55968 15.8918 4.55835 15.8931C4.55975 15.8944 4.56185 15.8956 4.56323 15.897L5.05737 16.3901L5.55151 15.897C5.55282 15.8957 5.5541 15.8943 5.55542 15.8931C5.55438 15.892 5.55255 15.8912 5.55151 15.8901L5.05737 15.396L4.56323 15.8901ZM8.53003 15.8901C8.52872 15.8914 8.52647 15.8918 8.52515 15.8931C8.52647 15.8943 8.52775 15.8957 8.52905 15.897L9.02319 16.3901L9.51733 15.897C9.51859 15.8957 9.51997 15.8943 9.52124 15.8931C9.52026 15.8921 9.51929 15.8911 9.51831 15.8901L9.02417 15.395L8.53003 15.8901ZM6.04565 14.4077L5.55151 14.9019L6.04565 15.396C6.04669 15.397 6.04757 15.3989 6.04858 15.3999L6.54663 14.9019L6.05249 14.4067C6.05119 14.4054 6.04986 14.4042 6.04858 14.4028C6.0473 14.4042 6.04696 14.4064 6.04565 14.4077ZM8.03003 14.4067L7.53491 14.9019L8.03003 15.396C8.03097 15.3969 8.03203 15.398 8.03296 15.3989C8.03392 15.3979 8.03491 15.397 8.03589 15.396L8.53003 14.9009L8.03589 14.4067C8.03477 14.4056 8.03406 14.404 8.03296 14.4028C8.03184 14.404 8.03117 14.4056 8.03003 14.4067ZM6.54663 13.9067C6.54551 13.9079 6.54386 13.9086 6.54272 13.9097C6.54388 13.9108 6.54549 13.9115 6.54663 13.9126L7.04077 14.4077L7.53491 13.9126C7.53589 13.9116 7.53685 13.9106 7.53784 13.9097L7.04077 13.4126L6.54663 13.9067ZM21.1218 8.83057C21.2582 8.69438 21.4795 8.69449 21.616 8.83057C21.7523 8.96708 21.7524 9.18924 21.616 9.32568L21.1228 9.81982L21.616 10.314C21.7523 10.4505 21.7524 10.6717 21.616 10.8081C21.4795 10.9444 21.2583 10.9444 21.1218 10.8081L20.6277 10.314L20.1335 10.8081C19.9971 10.9444 19.7759 10.9443 19.6394 10.8081C19.5029 10.6716 19.503 10.4505 19.6394 10.314L20.1335 9.81982L19.6394 9.32568C19.5029 9.18921 19.503 8.96707 19.6394 8.83057C19.7759 8.69451 19.9972 8.69436 20.1335 8.83057L20.6277 9.32568L21.1218 8.83057ZM21.1208 6.64795C21.2573 6.51149 21.4785 6.51156 21.615 6.64795C21.7513 6.78446 21.7514 7.00565 21.615 7.14209L21.1208 7.63623L21.615 8.13135C21.7513 8.26786 21.7514 8.48905 21.615 8.62549C21.4785 8.76177 21.2573 8.76174 21.1208 8.62549L20.6267 8.13037L20.1326 8.62549C19.9961 8.76188 19.774 8.76178 19.6375 8.62549C19.5704 8.55835 19.5359 8.47039 19.5349 8.38232C19.5338 8.47003 19.501 8.55747 19.4343 8.62451C19.2978 8.761 19.0767 8.76097 18.9402 8.62451L18.446 8.12939L17.9509 8.62451C17.8144 8.76097 17.5933 8.76096 17.4568 8.62451C17.3207 8.48799 17.3204 8.26675 17.4568 8.13037L17.9519 7.63623L17.4568 7.14209C17.3204 7.00566 17.3205 6.78445 17.4568 6.64795C17.5933 6.51189 17.8146 6.51165 17.9509 6.64795L18.446 7.14209L18.9402 6.64795C19.0767 6.51187 19.298 6.51159 19.4343 6.64795C19.5009 6.7146 19.5333 6.80187 19.5349 6.88916C19.5363 6.80162 19.5708 6.71471 19.6375 6.64795C19.774 6.51145 19.9961 6.51145 20.1326 6.64795L20.6267 7.14209L21.1208 6.64795ZM23.3035 6.64795C23.44 6.51177 23.6622 6.51156 23.7986 6.64795C23.9346 6.78429 23.9344 7.00565 23.7986 7.14209L23.3035 7.63623L23.7976 8.13037C23.934 8.26676 23.9338 8.48897 23.7976 8.62549C23.6611 8.7615 23.4398 8.76171 23.3035 8.62549L22.8093 8.13037L22.3152 8.62549C22.1788 8.76163 21.9575 8.76158 21.821 8.62549C21.6845 8.48899 21.6845 8.26687 21.821 8.13037L22.3142 7.63623L21.821 7.14209C21.6845 7.00559 21.6845 6.78445 21.821 6.64795C21.9576 6.51182 22.1788 6.51157 22.3152 6.64795L22.8093 7.14209L23.3035 6.64795ZM19.5349 6.8999C19.5338 6.98762 19.5011 7.07506 19.4343 7.14209L18.9402 7.63623L19.4343 8.13037C19.5012 8.19724 19.5336 8.28491 19.5349 8.37256C19.5363 8.28505 19.5709 8.19815 19.6375 8.13135L20.1326 7.63623L19.6375 7.14209C19.5708 7.07515 19.5362 6.9876 19.5349 6.8999ZM16.7566 4.46631C16.8931 4.33012 17.1143 4.32991 17.2507 4.46631C17.3871 4.60271 17.3869 4.82394 17.2507 4.96045L16.7566 5.45459L17.2507 5.94873C17.3871 6.08511 17.3868 6.30636 17.2507 6.44287C17.1142 6.57935 16.8931 6.57932 16.7566 6.44287L16.2625 5.94873L15.7683 6.44287C15.6318 6.57935 15.4107 6.57932 15.2742 6.44287C15.1377 6.30637 15.1377 6.08523 15.2742 5.94873L15.7683 5.45459L15.2742 4.96045C15.1377 4.82395 15.1377 4.60281 15.2742 4.46631C15.4107 4.3302 15.6319 4.32994 15.7683 4.46631L16.2625 4.96045L16.7566 4.46631ZM18.9382 4.46631C19.0746 4.32992 19.2958 4.33013 19.4324 4.46631C19.5687 4.60282 19.5688 4.82401 19.4324 4.96045L18.9382 5.45459L19.4324 5.94873C19.5689 6.08521 19.5688 6.30637 19.4324 6.44287C19.2959 6.57931 19.0747 6.57935 18.9382 6.44287L18.4441 5.94971L17.95 6.44287C17.8134 6.57931 17.5913 6.57935 17.4548 6.44287C17.319 6.3064 17.3188 6.08504 17.4548 5.94873L17.95 5.45459L17.4548 4.96045C17.3189 4.82408 17.319 4.60272 17.4548 4.46631C17.5912 4.32992 17.8134 4.33013 17.95 4.46631L18.4441 4.96045L18.9382 4.46631ZM23.3035 4.46631C23.44 4.32991 23.6621 4.32984 23.7986 4.46631C23.9346 4.60277 23.9347 4.82408 23.7986 4.96045L23.3035 5.45459L23.7986 5.94873C23.9346 6.08507 23.9344 6.30641 23.7986 6.44287C23.6621 6.57932 23.44 6.57923 23.3035 6.44287L22.8093 5.94873L22.3152 6.44287C22.1787 6.57932 21.9576 6.57923 21.821 6.44287C21.6847 6.30636 21.6846 6.08517 21.821 5.94873L22.3152 5.45459L21.821 4.96045C21.6846 4.82396 21.6846 4.60281 21.821 4.46631C21.9576 4.32991 22.1787 4.32984 22.3152 4.46631L22.8093 4.95947L23.3035 4.46631ZM25.4861 4.46631C25.6225 4.32994 25.8437 4.33002 25.9802 4.46631C26.1166 4.6028 26.1166 4.82399 25.9802 4.96045L25.4861 5.45459L25.9802 5.94873C26.1167 6.08521 26.1167 6.30637 25.9802 6.44287C25.8437 6.57937 25.6226 6.57937 25.4861 6.44287L24.9919 5.94873L24.4978 6.44287C24.3613 6.57937 24.1392 6.57937 24.0027 6.44287C23.8668 6.30639 23.8666 6.08507 24.0027 5.94873L24.4978 5.45459L24.0037 4.96045C23.8674 4.82393 23.8672 4.60274 24.0037 4.46631C24.1401 4.32995 24.3613 4.33002 24.4978 4.46631L24.9919 4.96045L25.4861 4.46631ZM21.1208 2.28369C21.2573 2.14736 21.4785 2.14734 21.615 2.28369C21.7514 2.42015 21.7514 2.64132 21.615 2.77783L21.1208 3.27197L21.615 3.76709C21.7513 3.90357 21.7513 4.12477 21.615 4.26123C21.4785 4.39749 21.2573 4.39752 21.1208 4.26123L20.6267 3.76611L20.1326 4.26123C19.9961 4.39773 19.774 4.39773 19.6375 4.26123C19.5703 4.194 19.5358 4.10624 19.5349 4.01807C19.5337 4.10587 19.5004 4.19322 19.4333 4.26025C19.2968 4.39663 19.0757 4.39671 18.9392 4.26025L18.4451 3.76611L17.9509 4.26025C17.8145 4.39669 17.5933 4.3966 17.4568 4.26025C17.3204 4.12375 17.3203 3.90257 17.4568 3.76611L17.9509 3.27197L17.4568 2.77783C17.3204 2.64133 17.3203 2.41917 17.4568 2.28271C17.5932 2.14669 17.8145 2.14661 17.9509 2.28271L18.4451 2.77783L18.9392 2.28271C19.0756 2.14655 19.2969 2.14674 19.4333 2.28271C19.5005 2.34982 19.5338 2.43774 19.5349 2.52588C19.5361 2.43812 19.5706 2.35063 19.6375 2.28369C19.774 2.1473 19.9961 2.14724 20.1326 2.28369L20.6267 2.77783L21.1208 2.28369ZM23.3035 2.28271C23.4398 2.14674 23.6612 2.1468 23.7976 2.28271C23.9341 2.41916 23.934 2.64132 23.7976 2.77783L23.3035 3.27197L23.7976 3.76611C23.9341 3.90256 23.934 4.12374 23.7976 4.26025C23.6611 4.39673 23.44 4.39675 23.3035 4.26025L22.8093 3.76611L22.3152 4.26025C22.1787 4.3967 21.9576 4.3966 21.821 4.26025C21.6847 4.12374 21.6846 3.90257 21.821 3.76611L22.3142 3.27197L21.821 2.77783C21.6847 2.64132 21.6846 2.41917 21.821 2.28271C21.9575 2.1469 22.1789 2.14664 22.3152 2.28271L22.8093 2.77783L23.3035 2.28271ZM19.5349 2.53467C19.5338 2.62288 19.5005 2.71067 19.4333 2.77783L18.9402 3.27197L19.4333 3.76611C19.5003 3.83309 19.5337 3.92057 19.5349 4.0083C19.5364 3.92089 19.571 3.83381 19.6375 3.76709L20.1326 3.27197L19.6375 2.77783C19.5704 2.71057 19.5359 2.62281 19.5349 2.53467ZM21.1218 0.102051C21.2582 -0.0343405 21.4794 -0.034124 21.616 0.102051C21.7522 0.238571 21.7524 0.459775 21.616 0.596191L21.1218 1.09033L21.616 1.58447C21.7524 1.72093 21.7523 1.9421 21.616 2.07861C21.4795 2.21511 21.2583 2.21511 21.1218 2.07861L20.6277 1.58447L20.1326 2.07861C19.9961 2.21506 19.7749 2.2151 19.6384 2.07861C19.5025 1.94208 19.5022 1.72079 19.6384 1.58447L20.1335 1.09033L19.6384 0.596191C19.5024 0.459782 19.5024 0.238457 19.6384 0.102051C19.7748 -0.0343263 19.996 -0.0340815 20.1326 0.102051L20.6277 0.597168L21.1218 0.102051Z" fill="#0ABF00"/>
</svg>
