<svg width="27" height="26" viewBox="0 0 27 26" fill="none" xmlns="http://www.w3.org/2000/svg">
<path d="M7.53574 11.9295C7.67213 11.7933 7.89342 11.7934 8.02988 11.9295C8.16633 12.066 8.16636 12.2881 8.02988 12.4246L7.53574 12.9188L8.02988 13.4129C8.16633 13.5494 8.16636 13.7705 8.02988 13.907C8.0289 13.908 8.02696 13.908 8.02597 13.909C8.0274 13.9104 8.02944 13.9115 8.03086 13.9129C8.03167 13.9137 8.032 13.915 8.03281 13.9158C8.03408 13.9145 8.03542 13.9132 8.03672 13.9119C8.17318 13.7757 8.39441 13.7756 8.53086 13.9119L9.025 14.4061L9.51914 13.9119C9.65553 13.7756 9.87676 13.7758 10.0133 13.9119C10.1498 14.0484 10.1497 14.2696 10.0133 14.4061L9.51816 14.9002L10.0133 15.3953C10.1498 15.5318 10.1497 15.753 10.0133 15.8895C10.0118 15.8909 10.0099 15.8919 10.0084 15.8934C10.0098 15.8947 10.0119 15.8959 10.0133 15.8973C10.0144 15.8984 10.0151 15.9 10.0162 15.9012C10.0175 15.8999 10.0188 15.8986 10.0201 15.8973C10.1566 15.7608 10.3778 15.7608 10.5143 15.8973L11.0084 16.3904L11.5025 15.8973C11.639 15.7608 11.8612 15.7608 11.9977 15.8973C12.1334 16.0338 12.1338 16.2552 11.9977 16.3914L11.5025 16.8856L11.9977 17.3797C12.1336 17.5161 12.1337 17.7375 11.9977 17.8738C11.9963 17.8751 11.9941 17.8755 11.9928 17.8768C11.9942 17.8782 11.9962 17.8792 11.9977 17.8807C11.9985 17.8815 11.9988 17.8828 11.9996 17.8836C12.0008 17.8823 12.0023 17.881 12.0035 17.8797C12.14 17.7435 12.3612 17.7434 12.4977 17.8797L12.9918 18.3748L13.4859 17.8797C13.6224 17.7433 13.8446 17.7433 13.9811 17.8797C14.1173 18.0161 14.1171 18.2373 13.9811 18.3738L13.4859 18.8689L13.9811 19.3631C14.1171 19.4995 14.1172 19.7208 13.9811 19.8572C13.8446 19.9937 13.6224 19.9937 13.4859 19.8572L12.9918 19.3631L12.4977 19.8572C12.3612 19.9935 12.14 19.9936 12.0035 19.8572C12.0024 19.8561 12.0017 19.8545 12.0006 19.8533C11.9995 19.8544 11.9988 19.8561 11.9977 19.8572C11.9965 19.8584 11.9949 19.859 11.9937 19.8602C11.9948 19.8612 11.9966 19.8621 11.9977 19.8631C12.1337 19.9995 12.1337 20.2208 11.9977 20.3572L11.5035 20.8523L11.9977 21.3465C12.1338 21.483 12.134 21.7043 11.9977 21.8406C11.8613 21.977 11.64 21.9767 11.5035 21.8406L11.0094 21.3465L10.5143 21.8406C10.3778 21.9768 10.1566 21.9767 10.0201 21.8406C10.0188 21.8393 10.0175 21.8371 10.0162 21.8357C10.015 21.837 10.0145 21.8394 10.0133 21.8406C10.0121 21.8418 10.0105 21.8424 10.0094 21.8436C10.0105 21.8446 10.0122 21.8454 10.0133 21.8465C10.1497 21.983 10.1497 22.2042 10.0133 22.3406L9.51914 22.8338L10.0143 23.3289C10.1506 23.4654 10.1507 23.6876 10.0143 23.824C9.87779 23.9605 9.65565 23.9604 9.51914 23.824L9.025 23.3289L8.53086 23.824C8.39447 23.9602 8.1732 23.9601 8.03672 23.824C8.03528 23.8226 8.03421 23.8206 8.03281 23.8191C8.03152 23.8205 8.03119 23.8227 8.02988 23.824C8.02864 23.8253 8.02624 23.8257 8.025 23.827C8.02649 23.8284 8.02841 23.8294 8.02988 23.8309C8.16626 23.9673 8.16607 24.1885 8.02988 24.325L7.53574 24.8191L8.02988 25.3133C8.16628 25.4497 8.16607 25.6709 8.02988 25.8074C7.89336 25.9437 7.67215 25.9438 7.53574 25.8074L7.0416 25.3133L6.54746 25.8074C6.41096 25.9439 6.18982 25.9439 6.05332 25.8074C5.91693 25.6709 5.91686 25.4497 6.05332 25.3133L6.54746 24.8191L6.05332 24.324C5.91703 24.1875 5.91689 23.9663 6.05332 23.8299C6.0543 23.8289 6.05526 23.8279 6.05625 23.827C6.05531 23.826 6.05425 23.825 6.05332 23.824C6.05217 23.8229 6.05151 23.8213 6.05039 23.8201C6.04911 23.8214 6.04876 23.8237 6.04746 23.825C5.91101 23.9614 5.68885 23.9614 5.55234 23.825L5.0582 23.3318L4.56406 23.825C4.42761 23.9614 4.20643 23.9614 4.06992 23.825C3.93356 23.6885 3.93347 23.4673 4.06992 23.3309L4.56406 22.8367L4.06992 22.3426C3.93342 22.2061 3.93343 21.984 4.06992 21.8475C4.07122 21.8462 4.07251 21.8448 4.07382 21.8436C4.07267 21.8424 4.07106 21.8418 4.06992 21.8406C4.06852 21.8392 4.06738 21.8372 4.06601 21.8357C4.06473 21.8371 4.06439 21.8393 4.06308 21.8406C3.92658 21.9771 3.70542 21.9771 3.56894 21.8406L3.0748 21.3465L2.58066 21.8406C2.44419 21.9771 2.22303 21.977 2.08652 21.8406C1.95018 21.7041 1.95007 21.4829 2.08652 21.3465L2.58066 20.8523L2.08652 20.3582C1.95019 20.2217 1.95013 20.0005 2.08652 19.8641C2.08766 19.8629 2.0883 19.8613 2.08945 19.8602C2.0883 19.859 2.08669 19.8584 2.08554 19.8572C2.08444 19.8561 2.0837 19.8544 2.08261 19.8533C2.08144 19.8545 2.08087 19.857 2.07968 19.8582C1.94326 19.9942 1.72195 19.9943 1.58554 19.8582L1.09043 19.3641L0.596285 19.8582C0.459775 19.9943 0.238525 19.9945 0.102145 19.8582C-0.0341421 19.7218 -0.0339545 19.5006 0.102145 19.3641L0.596285 18.8699L0.102145 18.3748C-0.0340369 18.2384 -0.0339334 18.0171 0.102145 17.8807C0.238586 17.7443 0.459801 17.7444 0.596285 17.8807L1.09043 18.3758L1.58554 17.8807C1.72205 17.7447 1.94333 17.7444 2.07968 17.8807C2.08066 17.8816 2.08165 17.8826 2.08261 17.8836L2.08945 17.8768C2.08846 17.8758 2.0875 17.8748 2.08652 17.8738C1.95002 17.7373 1.95002 17.5162 2.08652 17.3797L2.58066 16.8856L2.08652 16.3904C1.95006 16.2539 1.95003 16.0328 2.08652 15.8963C2.22305 15.7603 2.44432 15.76 2.58066 15.8963L3.0748 16.3914L3.56894 15.8973C3.70545 15.7609 3.92663 15.7608 4.06308 15.8973C4.06406 15.8982 4.06505 15.8992 4.06601 15.9002L4.07285 15.8934C4.07188 15.8924 4.07088 15.8914 4.06992 15.8904C3.93353 15.7539 3.93351 15.5328 4.06992 15.3963L4.56406 14.9022L4.06992 14.408C3.93351 14.2715 3.93353 14.0504 4.06992 13.9139C4.2064 13.7774 4.42755 13.7774 4.56406 13.9139L5.0582 14.408L5.55234 13.9139C5.68881 13.7774 5.90997 13.7775 6.04648 13.9139C6.04744 13.9148 6.04846 13.9158 6.04941 13.9168L6.05625 13.91C6.05526 13.909 6.0543 13.908 6.05332 13.907C5.91682 13.7705 5.91682 13.5494 6.05332 13.4129L6.54746 12.9188L6.05332 12.4236C5.91682 12.2871 5.91682 12.066 6.05332 11.9295C6.18984 11.7933 6.41107 11.7931 6.54746 11.9295L7.0416 12.4246L7.53574 11.9295ZM6.54746 23.824C6.54639 23.8251 6.54463 23.8259 6.54355 23.827C6.54471 23.8281 6.54631 23.8287 6.54746 23.8299L7.0416 24.325L7.53964 23.827C7.53854 23.8259 7.53683 23.8251 7.53574 23.824L7.0416 23.3299L6.54746 23.824ZM6.04746 22.3426L5.55234 22.8367L6.04746 23.3309C6.04827 23.3317 6.0486 23.333 6.04941 23.3338C6.05062 23.3326 6.05209 23.3311 6.05332 23.3299L6.54648 22.8357L6.05332 22.3416C6.05217 22.3405 6.05151 22.3389 6.05039 22.3377C6.04911 22.339 6.04876 22.3413 6.04746 22.3426ZM8.02988 22.3416L7.53574 22.8357L8.03281 23.3328C8.03408 23.3315 8.03542 23.3302 8.03672 23.3289L8.52988 22.8348L8.03672 22.3406C8.03545 22.3394 8.03405 22.338 8.03281 22.3367C8.03152 22.3381 8.03119 22.3403 8.02988 22.3416ZM4.56406 21.8406C4.56281 21.8419 4.56044 21.8423 4.55918 21.8436C4.56062 21.8449 4.56264 21.846 4.56406 21.8475L5.0582 22.3426L5.55722 21.8436C5.55607 21.8424 5.55446 21.8418 5.55332 21.8406L5.05918 21.3465L4.56406 21.8406ZM6.54746 15.8904C6.41104 16.0268 6.18982 16.0267 6.05332 15.8904C6.0519 15.889 6.05079 15.887 6.04941 15.8856C6.04815 15.8869 6.04777 15.8891 6.04648 15.8904C6.04517 15.8917 6.04292 15.8921 6.0416 15.8934C6.04307 15.8948 6.04503 15.8958 6.04648 15.8973C6.18245 16.0338 6.1827 16.2551 6.04648 16.3914L5.55136 16.8856L6.04648 17.3797C6.18268 17.5161 6.1826 17.7374 6.04648 17.8738C5.90997 18.0099 5.68774 18.0101 5.55136 17.8738L5.05722 17.3797L4.56308 17.8738C4.42657 18.0099 4.20532 18.0101 4.06894 17.8738C4.06782 17.8727 4.06712 17.8711 4.06601 17.8699C4.06489 17.8711 4.06422 17.8727 4.06308 17.8738C4.06182 17.8751 4.05948 17.8755 4.0582 17.8768C4.05965 17.8782 4.06165 17.8792 4.06308 17.8807C4.19908 18.0171 4.19924 18.2384 4.06308 18.3748L3.56797 18.8689L4.06308 19.3631C4.19924 19.4995 4.19907 19.7208 4.06308 19.8572C4.06177 19.8585 4.05953 19.8589 4.0582 19.8602C4.05969 19.8616 4.06161 19.8626 4.06308 19.8641C4.06401 19.865 4.0651 19.8661 4.06601 19.867C4.06724 19.8657 4.06867 19.8643 4.06992 19.8631C4.20643 19.7268 4.42859 19.7266 4.56504 19.8631L5.05918 20.3582L5.55332 19.8631C5.68981 19.7271 5.91109 19.7269 6.04746 19.8631C6.1836 19.9995 6.18345 20.2208 6.04746 20.3572L5.55332 20.8523L6.04746 21.3465C6.18364 21.483 6.1837 21.7042 6.04746 21.8406C6.0462 21.8419 6.04384 21.8423 6.04257 21.8436L6.04941 21.8504C6.05062 21.8492 6.05209 21.8477 6.05332 21.8465C6.18977 21.7107 6.41113 21.7105 6.54746 21.8465L7.0416 22.3416L7.53574 21.8465C7.67208 21.7105 7.89345 21.7107 8.02988 21.8465C8.03097 21.8476 8.03173 21.8493 8.03281 21.8504L8.03964 21.8436C8.03851 21.8425 8.03686 21.8418 8.03574 21.8406C7.8997 21.7042 7.89965 21.4829 8.03574 21.3465L8.53086 20.8523L8.03672 20.3582C7.90031 20.2217 7.90037 20.0006 8.03672 19.8641C8.1732 19.7276 8.39436 19.7276 8.53086 19.8641L9.025 20.3582L9.51914 19.8641C9.65562 19.7276 9.87677 19.7276 10.0133 19.8641C10.0142 19.865 10.0153 19.866 10.0162 19.867L10.023 19.8602C10.0221 19.8592 10.0211 19.8582 10.0201 19.8572C9.88373 19.7208 9.88375 19.4996 10.0201 19.3631L10.5143 18.8689L10.0201 18.3748C9.88372 18.2384 9.88393 18.0172 10.0201 17.8807C10.0214 17.8794 10.0227 17.878 10.024 17.8768C10.0229 17.8756 10.0213 17.875 10.0201 17.8738C10.0188 17.8725 10.0175 17.8703 10.0162 17.8689C10.015 17.8702 10.0145 17.8726 10.0133 17.8738C9.87687 18.01 9.6556 18.0099 9.51914 17.8738L9.02402 17.3787L8.52988 17.8738C8.39344 18.0101 8.17219 18.01 8.03574 17.8738C7.89942 17.7374 7.89948 17.5162 8.03574 17.3797L8.52988 16.8846L8.03574 16.3914C7.89938 16.2551 7.89968 16.0338 8.03574 15.8973C8.0373 15.8957 8.03903 15.8939 8.04062 15.8924C8.03952 15.8913 8.03781 15.8905 8.03672 15.8895C8.03557 15.8883 8.03491 15.8867 8.03379 15.8856C8.0325 15.8869 8.03216 15.8891 8.03086 15.8904C7.89441 16.0269 7.67225 16.0268 7.53574 15.8904L7.0416 15.3963L6.54746 15.8904ZM8.53086 21.8406C8.52971 21.8418 8.52811 21.8424 8.52695 21.8436C8.52807 21.8446 8.52975 21.8454 8.53086 21.8465L9.025 22.3397L9.51914 21.8465C9.52012 21.8455 9.52108 21.8445 9.52207 21.8436L9.025 21.3465L8.53086 21.8406ZM4.06308 20.3582L3.56894 20.8523L4.06308 21.3465C4.06417 21.3476 4.06494 21.3493 4.06601 21.3504C4.06724 21.3491 4.06867 21.3477 4.06992 21.3465L4.56504 20.8523L4.06601 20.3533C4.06473 20.3547 4.06439 20.3569 4.06308 20.3582ZM10.0133 20.3582L9.51914 20.8523L10.0133 21.3465C10.0144 21.3476 10.0151 21.3493 10.0162 21.3504C10.0175 21.3491 10.0188 21.3478 10.0201 21.3465L10.5152 20.8523L10.0162 20.3533C10.015 20.3546 10.0145 20.3569 10.0133 20.3582ZM2.57968 19.8572C2.57854 19.8584 2.57693 19.859 2.57578 19.8602C2.57727 19.8616 2.57919 19.8626 2.58066 19.8641L3.0748 20.3582L3.56894 19.8641C3.57008 19.8629 3.57072 19.8613 3.57187 19.8602C3.57072 19.859 3.56911 19.8584 3.56797 19.8572L3.07382 19.3641L2.57968 19.8572ZM10.5143 19.8572C10.5133 19.8582 10.5113 19.8582 10.5103 19.8592C10.5117 19.8605 10.5139 19.8617 10.5152 19.8631L11.0094 20.3582L11.5035 19.8631C11.5045 19.8621 11.5055 19.8611 11.5064 19.8602C11.5053 19.859 11.5037 19.8584 11.5025 19.8572L11.0084 19.3641L10.5143 19.8572ZM2.07968 18.3758L1.58457 18.8699L2.07968 19.3641C2.0805 19.3649 2.08083 19.3662 2.08164 19.367L2.57968 18.8689L2.08554 18.3748C2.08444 18.3737 2.0837 18.372 2.08261 18.3709C2.08144 18.3721 2.08087 18.3746 2.07968 18.3758ZM11.9977 18.3748L11.5025 18.8689L11.9977 19.3631C11.9986 19.3641 11.9996 19.365 12.0006 19.366L12.4977 18.8689L12.0035 18.3738C12.0024 18.3727 12.0017 18.3711 12.0006 18.3699C11.9993 18.3712 11.9989 18.3735 11.9977 18.3748ZM2.58066 17.8738C2.5794 17.8751 2.57706 17.8755 2.57578 17.8768L3.07382 18.3748L3.57187 17.8768L3.0748 17.3797L2.58066 17.8738ZM10.5143 17.8738C10.5129 17.8751 10.5107 17.8755 10.5094 17.8768C10.5108 17.8782 10.5128 17.8792 10.5143 17.8807L11.0084 18.3748L11.5064 17.8768L11.0084 17.3787L10.5143 17.8738ZM10.0133 16.3914L9.51816 16.8856L10.0133 17.3797C10.0144 17.3808 10.0151 17.3824 10.0162 17.3836C10.0175 17.3823 10.0188 17.381 10.0201 17.3797L10.5143 16.8846L10.0201 16.3914C10.0188 16.3901 10.0175 16.3879 10.0162 16.3865C10.015 16.3878 10.0145 16.3902 10.0133 16.3914ZM4.06308 16.3914L3.56894 16.8856L4.06601 17.3826L4.56308 16.8856L4.06894 16.3914C4.06782 16.3903 4.06712 16.3886 4.06601 16.3875C4.06489 16.3887 4.06422 16.3903 4.06308 16.3914ZM4.56406 15.8904C4.56275 15.8917 4.5605 15.8921 4.55918 15.8934C4.56048 15.8946 4.56179 15.896 4.56308 15.8973L5.05722 16.3904L5.55136 15.8973C5.55254 15.8961 5.55408 15.8945 5.55527 15.8934L5.0582 15.3963L4.56406 15.8904ZM8.53086 15.8895C8.52923 15.8911 8.52665 15.8918 8.525 15.8934C8.5264 15.8947 8.52849 15.8959 8.52988 15.8973L9.02402 16.3904L9.51816 15.8973C9.51973 15.8957 9.52145 15.8939 9.52304 15.8924C9.52194 15.8913 9.52023 15.8906 9.51914 15.8895L9.025 15.3943L8.53086 15.8895ZM6.04648 14.408L5.55234 14.9022L6.04648 15.3963C6.04761 15.3974 6.0483 15.3991 6.04941 15.4002L6.54746 14.9022L6.05332 14.407C6.05207 14.4058 6.05063 14.4044 6.04941 14.4031C6.04815 14.4044 6.04777 14.4067 6.04648 14.408ZM8.03086 14.407L7.53574 14.9022L8.03086 15.3963C8.03167 15.3971 8.032 15.3984 8.03281 15.3992C8.03408 15.3979 8.03542 15.3966 8.03672 15.3953L8.53086 14.9002L8.03672 14.4061C8.03557 14.4049 8.03491 14.4033 8.03379 14.4022C8.0325 14.4035 8.03216 14.4057 8.03086 14.407ZM6.54746 13.907C6.54632 13.9082 6.5447 13.9088 6.54355 13.91C6.54465 13.911 6.54637 13.9118 6.54746 13.9129L7.0416 14.408L7.53574 13.9129C7.53672 13.9119 7.53768 13.9109 7.53867 13.91L7.0416 13.4129L6.54746 13.907ZM21.1227 8.82989C21.2591 8.69407 21.4804 8.69399 21.6168 8.82989C21.7532 8.96627 21.7529 9.18848 21.6168 9.325L21.1236 9.81915L21.6168 10.3133C21.7532 10.4497 21.7529 10.6709 21.6168 10.8074C21.4803 10.9438 21.2591 10.9439 21.1227 10.8074L20.6285 10.3133L20.1344 10.8074C19.9979 10.9439 19.7767 10.9438 19.6402 10.8074C19.5038 10.6709 19.5037 10.4498 19.6402 10.3133L20.1344 9.81915L19.6402 9.325C19.5038 9.1885 19.5037 8.96637 19.6402 8.82989C19.7767 8.6942 19.9981 8.69386 20.1344 8.82989L20.6285 9.325L21.1227 8.82989ZM23.3033 6.64825C23.4398 6.51181 23.6619 6.51194 23.7984 6.64825C23.9346 6.7847 23.9346 7.00597 23.7984 7.14239L23.3033 7.63653L23.7975 8.13067C23.934 8.26717 23.934 8.48929 23.7975 8.62579C23.6609 8.76159 23.4396 8.76195 23.3033 8.62579L22.8092 8.13067L22.315 8.62579C22.1786 8.76172 21.9573 8.76183 21.8209 8.62579C21.6847 8.48934 21.6847 8.26712 21.8209 8.13067L22.3141 7.63653L21.8209 7.14239C21.6847 7.00594 21.6847 6.7847 21.8209 6.64825C21.9573 6.51186 22.1785 6.51196 22.315 6.64825L22.8092 7.14239L23.3033 6.64825ZM21.1217 6.64727C21.2582 6.51121 21.4794 6.51104 21.6158 6.64727C21.7522 6.78364 21.7519 7.00488 21.6158 7.14141L21.1217 7.63555L21.6158 8.13067C21.7522 8.26704 21.7519 8.48828 21.6158 8.62481C21.4793 8.7612 21.2581 8.76127 21.1217 8.62481L20.6275 8.12969L20.1334 8.62481C19.9969 8.76131 19.7748 8.76131 19.6383 8.62481C19.571 8.55751 19.5366 8.46991 19.5357 8.38165C19.5347 8.46976 19.5013 8.55754 19.4342 8.62481C19.2977 8.76119 19.0765 8.76127 18.94 8.62481L18.4459 8.12969L17.9508 8.62481C17.8143 8.76117 17.5931 8.76126 17.4566 8.62481C17.3207 8.48831 17.3205 8.267 17.4566 8.13067L17.9518 7.63653L17.4566 7.14239C17.3205 7.00598 17.3206 6.7847 17.4566 6.64825C17.5931 6.51183 17.8143 6.51198 17.9508 6.64825L18.4459 7.14239L18.94 6.64825C19.0765 6.5118 19.2977 6.51192 19.4342 6.64825C19.5009 6.71499 19.5343 6.80204 19.5357 6.88946C19.537 6.80178 19.5715 6.71411 19.6383 6.64727C19.7748 6.51117 19.997 6.51093 20.1334 6.64727L20.6275 7.14141L21.1217 6.64727ZM19.5357 6.89922C19.5348 6.98735 19.5014 7.07514 19.4342 7.14239L18.94 7.63653L19.4342 8.13067C19.5011 8.19763 19.5345 8.28508 19.5357 8.37286C19.5371 8.28522 19.5716 8.19756 19.6383 8.13067L20.1334 7.63555L19.6383 7.14141C19.5714 7.07431 19.5369 6.98713 19.5357 6.89922ZM16.7564 4.46661C16.8929 4.33016 17.1141 4.33027 17.2506 4.46661C17.3871 4.60311 17.3871 4.82425 17.2506 4.96075L16.7564 5.45489L17.2506 5.94903C17.3871 6.0855 17.387 6.30666 17.2506 6.44317C17.1141 6.57943 16.8929 6.57959 16.7564 6.44317L16.2623 5.94903L15.7682 6.44317C15.6316 6.57943 15.4104 6.57959 15.274 6.44317C15.1378 6.30673 15.1378 6.08549 15.274 5.94903L15.7682 5.45489L15.274 4.96075C15.1378 4.82431 15.1378 4.60307 15.274 4.46661C15.4105 4.33024 15.6317 4.3303 15.7682 4.46661L16.2623 4.96075L16.7564 4.46661ZM18.9391 4.46661C19.0755 4.33012 19.2967 4.33016 19.4332 4.46661C19.5695 4.60312 19.5696 4.82431 19.4332 4.96075L18.9391 5.45489L19.4332 5.94903C19.5697 6.08551 19.5696 6.30666 19.4332 6.44317C19.2967 6.57955 19.0755 6.57963 18.9391 6.44317L18.4449 5.95L17.9508 6.44317C17.8143 6.57955 17.5921 6.57963 17.4557 6.44317C17.3196 6.30674 17.3196 6.08543 17.4557 5.94903L17.9508 5.45489L17.4557 4.96075C17.3195 4.82442 17.3198 4.60311 17.4557 4.46661C17.5921 4.33012 17.8143 4.33016 17.9508 4.46661L18.4449 4.96075L18.9391 4.46661ZM25.4869 4.46661C25.6234 4.33012 25.8446 4.33011 25.9811 4.46661C26.1173 4.60312 26.1175 4.82432 25.9811 4.96075L25.4869 5.45489L25.9811 5.94903C26.1175 6.08553 26.1175 6.30669 25.9811 6.44317C25.8446 6.57964 25.6234 6.57959 25.4869 6.44317L24.9928 5.94903L24.4986 6.44317C24.3622 6.57964 24.14 6.57959 24.0035 6.44317C23.8674 6.30671 23.8673 6.08543 24.0035 5.94903L24.4986 5.45489L24.0045 4.96075C23.868 4.82425 23.868 4.60311 24.0045 4.46661C24.141 4.33012 24.3621 4.33011 24.4986 4.46661L24.9928 4.96075L25.4869 4.46661ZM23.3043 4.46661C23.4408 4.33016 23.6629 4.33012 23.7994 4.46661C23.9351 4.60311 23.9355 4.82447 23.7994 4.96075L23.3043 5.45489L23.7994 5.94903C23.9352 6.08541 23.9352 6.30681 23.7994 6.44317C23.663 6.57953 23.4408 6.57925 23.3043 6.44317L22.8102 5.94903L22.316 6.44317C22.1797 6.57953 21.9584 6.57925 21.8219 6.44317C21.6856 6.30665 21.6854 6.08546 21.8219 5.94903L22.316 5.45489L21.8219 4.96075C21.6854 4.82426 21.6854 4.60311 21.8219 4.46661C21.9584 4.33016 22.1795 4.33012 22.316 4.46661L22.8102 4.95977L23.3043 4.46661ZM18.94 2.28301C19.0764 2.14681 19.2977 2.14692 19.4342 2.28301C19.501 2.34993 19.5345 2.43734 19.5357 2.5252C19.5371 2.43766 19.5716 2.35076 19.6383 2.28399C19.7748 2.14753 19.9969 2.1475 20.1334 2.28399L20.6275 2.77813L21.1217 2.28399C21.2582 2.1476 21.4793 2.14761 21.6158 2.28399C21.752 2.42048 21.7522 2.64171 21.6158 2.77813L21.1217 3.27227L21.6158 3.76739C21.7519 3.9039 21.7521 4.12516 21.6158 4.26153C21.4794 4.3977 21.2581 4.39756 21.1217 4.26153L20.6275 3.76641L20.1334 4.26153C19.997 4.39794 19.7748 4.39777 19.6383 4.26153C19.5712 4.19438 19.5367 4.10643 19.5357 4.01836C19.5345 4.10606 19.5011 4.1936 19.4342 4.26055C19.2977 4.39683 19.0765 4.39684 18.94 4.26055L18.4459 3.76641L17.9518 4.26055C17.8153 4.39688 17.5941 4.39673 17.4576 4.26055C17.3211 4.12407 17.3212 3.90292 17.4576 3.76641L17.9518 3.27227L17.4576 2.77813C17.3211 2.64165 17.3212 2.41952 17.4576 2.28301C17.5941 2.14694 17.8154 2.14678 17.9518 2.28301L18.4459 2.77813L18.94 2.28301ZM23.3043 2.28301C23.4407 2.14693 23.662 2.14695 23.7984 2.28301C23.9348 2.41949 23.9348 2.64167 23.7984 2.77813L23.3043 3.27227L23.7984 3.76641C23.9348 3.90289 23.9348 4.12409 23.7984 4.26055C23.662 4.39698 23.4408 4.39691 23.3043 4.26055L22.8102 3.76641L22.316 4.26055C22.1796 4.39695 21.9584 4.39676 21.8219 4.26055C21.6854 4.12405 21.6854 3.90291 21.8219 3.76641L22.315 3.27227L21.8219 2.77813C21.6854 2.64163 21.6854 2.41951 21.8219 2.28301C21.9584 2.1471 22.1797 2.14678 22.316 2.28301L22.8102 2.77813L23.3043 2.28301ZM19.5357 2.53497C19.5346 2.62307 19.5013 2.71105 19.4342 2.77813L18.941 3.27227L19.4342 3.76641C19.5011 3.83345 19.5346 3.92082 19.5357 4.0086C19.5372 3.92108 19.5717 3.83419 19.6383 3.76739L20.1334 3.27227L19.6383 2.77813C19.5713 2.71095 19.5368 2.62301 19.5357 2.53497ZM21.1227 0.102348C21.2591 -0.0341338 21.4803 -0.0340983 21.6168 0.102348C21.753 0.238868 21.7532 0.460072 21.6168 0.596489L21.1227 1.09063L21.6168 1.58477C21.7532 1.72123 21.7532 1.9424 21.6168 2.07891C21.4803 2.21535 21.2591 2.21539 21.1227 2.07891L20.6285 1.58477L20.1334 2.07891C19.9969 2.21531 19.7757 2.21538 19.6393 2.07891C19.5031 1.94242 19.503 1.72118 19.6393 1.58477L20.1344 1.09063L19.6393 0.596489C19.503 0.460119 19.5032 0.238849 19.6393 0.102348C19.7757 -0.0341196 19.9969 -0.0340558 20.1334 0.102348L20.6285 0.597465L21.1227 0.102348Z" fill="#262626"/>
</svg>
