<svg width="19" height="20" viewBox="0 0 19 20" fill="none" xmlns="http://www.w3.org/2000/svg">
<path d="M9.58977 0.100533C9.72382 -0.0332892 9.94113 -0.0333956 10.0751 0.100533C10.2091 0.234516 10.209 0.451824 10.0751 0.585885L9.59074 1.07124L10.0751 1.55659C10.1853 1.66693 10.203 1.83259 10.1318 1.96284C10.204 2.09335 10.1868 2.26032 10.0761 2.37104L9.59074 2.85639L10.0761 3.34174C10.1863 3.45221 10.2033 3.61775 10.1318 3.74799C10.2035 3.87837 10.1854 4.04464 10.0751 4.15522L9.58977 4.64057L10.0751 5.1269C10.2089 5.26091 10.2089 5.47825 10.0751 5.61225C9.98993 5.6974 9.87136 5.72817 9.76164 5.70503L9.99797 5.94038L10.4833 5.45503C10.6174 5.32139 10.8348 5.32111 10.9687 5.45503C11.1025 5.58895 11.1023 5.80632 10.9687 5.94038L10.4833 6.42573L10.9687 6.91206C11.0324 6.9759 11.0643 7.05892 11.0673 7.14253C11.1509 7.14556 11.2339 7.17831 11.2978 7.24213L11.7841 7.72749L12.2695 7.24213C12.4035 7.10838 12.6209 7.10818 12.7548 7.24213C12.8884 7.37612 12.8884 7.59353 12.7548 7.72749L12.2695 8.21284L12.7548 8.69819C12.8175 8.76103 12.8486 8.84246 12.8525 8.92475C12.9362 8.92768 13.019 8.96045 13.0829 9.02436L13.5683 9.50971L14.0536 9.02436C14.1641 8.91404 14.3306 8.89529 14.4609 8.96674C14.5912 8.89534 14.7577 8.914 14.8681 9.02436L15.3534 9.50971L15.8388 9.02436C15.9496 8.91368 16.1165 8.89545 16.247 8.96772C16.3774 8.89706 16.5442 8.91628 16.6542 9.02631L17.1396 9.51069L17.6249 9.02631C17.759 8.89256 17.9763 8.89239 18.1103 9.02631C18.2442 9.16028 18.244 9.37762 18.1103 9.51167L17.6249 9.99702L18.1103 10.4824C18.2442 10.6163 18.2439 10.8336 18.1103 10.9677C17.9762 11.1018 17.759 11.1018 17.6249 10.9677L17.1396 10.4824L16.6542 10.9677C16.5431 11.0788 16.375 11.0964 16.2441 11.0234C16.114 11.0939 15.9488 11.0757 15.8388 10.9658L15.3534 10.4804L14.8681 10.9658C14.7576 11.0763 14.5912 11.0941 14.4609 11.0224C14.3305 11.0941 14.1642 11.0763 14.0536 10.9658L13.5683 10.4804L13.0829 10.9658C13.019 11.0296 12.9361 11.0614 12.8525 11.0644C12.8501 11.1489 12.8173 11.2323 12.7529 11.2968L12.2675 11.7822L12.7529 12.2685C12.8866 12.4025 12.8867 12.6199 12.7529 12.7539C12.6189 12.8877 12.4015 12.8876 12.2675 12.7539L11.7822 12.2675L11.2968 12.7529C11.2334 12.8163 11.1514 12.8482 11.0683 12.8515C11.0656 12.9355 11.0336 13.0188 10.9697 13.083L10.4843 13.5683L10.9697 14.0546C11.1034 14.1886 11.1033 14.406 10.9697 14.54C10.8357 14.674 10.6184 14.6738 10.4843 14.54L9.99895 14.0537L9.76262 14.289C9.87225 14.266 9.99097 14.2976 10.0761 14.3828C10.2096 14.5168 10.2099 14.7342 10.0761 14.8681L9.59074 15.3535L10.0761 15.8388C10.1863 15.9492 10.2033 16.1147 10.1318 16.2451C10.2031 16.3753 10.1853 16.5409 10.0751 16.6513L9.58977 17.1367L10.0751 17.623C10.1852 17.7333 10.2029 17.899 10.1318 18.0292C10.2048 18.1599 10.1869 18.3273 10.0761 18.4384L9.59074 18.9238L10.0761 19.4091C10.21 19.543 10.2096 19.7604 10.0761 19.8945C9.94204 20.0285 9.7248 20.0285 9.59074 19.8945L9.10539 19.4091L8.61907 19.8955C8.485 20.0291 8.26764 20.0293 8.13371 19.8955C8 19.7615 8.00011 19.5441 8.13371 19.4101L8.62004 18.9238L8.13371 18.4384C8.02365 18.328 8.00464 18.1614 8.0761 18.0312C8.00426 17.9008 8.02249 17.7336 8.13274 17.623L8.61907 17.1367L8.13274 16.6513C8.02257 16.5406 8.00408 16.3735 8.0761 16.2431C8.00602 16.1132 8.02423 15.9487 8.13371 15.8388L8.62004 15.3535L8.13371 14.8681C8.00001 14.7341 8.00006 14.5168 8.13371 14.3828C8.21933 14.2971 8.33893 14.2662 8.44914 14.29L8.21184 14.0527L7.72649 14.538C7.59252 14.6719 7.3742 14.6718 7.24016 14.538C7.1065 14.404 7.10647 14.1867 7.24016 14.0527L7.72649 13.5673L7.24016 13.082C7.17671 13.0185 7.14379 12.9358 7.14055 12.8525C7.05741 12.8491 6.9755 12.8172 6.91203 12.7539L6.42668 12.2675L5.94133 12.7529C5.80734 12.8869 5.59004 12.8868 5.45598 12.7529C5.32199 12.6188 5.32195 12.4016 5.45598 12.2675L5.94133 11.7822L5.45598 11.2968C5.39149 11.2323 5.3578 11.1489 5.35539 11.0644C5.27237 11.0611 5.19035 11.029 5.12688 10.9658L4.64153 10.4804L4.1552 10.9667C4.0448 11.0768 3.87823 11.0946 3.74797 11.0234C3.61767 11.0948 3.45213 11.0771 3.34172 10.9667L2.85735 10.4814L2.37102 10.9677C2.26048 11.0782 2.09343 11.0961 1.96282 11.0244C1.83254 11.0957 1.66693 11.078 1.55657 10.9677L1.07121 10.4814L0.585862 10.9667C0.45181 11.1008 0.234562 11.1008 0.10051 10.9667C-0.0334841 10.8327 -0.0335222 10.6154 0.10051 10.4814L0.585862 9.99604L0.10051 9.51167C-0.0334846 9.37761 -0.0335223 9.16035 0.10051 9.02631C0.234555 8.89242 0.451853 8.89237 0.585862 9.02631L1.07121 9.51069L1.55657 9.02534C1.66678 8.91535 1.83267 8.89681 1.96282 8.96772C2.09335 8.89634 2.26064 8.91496 2.37102 9.02534L2.85637 9.50971L3.34172 9.02534C3.45175 8.91566 3.61698 8.89726 3.74699 8.96772C3.87743 8.89569 4.0445 8.91387 4.1552 9.02436L4.64153 9.50971L5.12688 9.02436C5.19064 8.96078 5.27289 8.92787 5.35637 8.92475C5.36047 8.84273 5.39347 8.76182 5.45598 8.69917L5.94231 8.21284L5.45598 7.72749C5.32206 7.59352 5.32221 7.37619 5.45598 7.24213C5.59002 7.10817 5.8073 7.10815 5.94133 7.24213L6.42766 7.72749L6.91301 7.24213C6.97669 7.1787 7.05912 7.14572 7.1425 7.14253C7.14525 7.05849 7.17795 6.97524 7.24211 6.91108L7.72746 6.42573L7.24211 5.94038C7.10806 5.80633 7.10806 5.58908 7.24211 5.45503C7.3762 5.32142 7.59356 5.32112 7.72746 5.45503L8.21282 5.94038L8.44914 5.70307C8.33864 5.72728 8.21859 5.69804 8.13274 5.61225C7.99891 5.4782 7.99881 5.25991 8.13274 5.12592L8.61809 4.64057L8.13274 4.1562C8.02206 4.04532 8.00355 3.87756 8.0761 3.74702C8.00556 3.61688 8.02391 3.45175 8.13371 3.34174L8.62004 2.85542L8.13469 2.37104C8.02452 2.26087 8.00616 2.09498 8.07707 1.96479C8.00528 1.83441 8.02318 1.66812 8.13371 1.55756L8.62004 1.07124L8.13371 0.585885C7.99967 0.451842 7.99969 0.234587 8.13371 0.100533C8.26777 -0.0335073 8.48502 -0.0335148 8.61907 0.100533L9.10539 0.585885L9.58977 0.100533ZM8.69621 18.0302L9.10539 18.4384L9.51262 18.0302L9.10442 17.622L8.69621 18.0302ZM8.69817 16.2451L9.10442 16.6513L9.51067 16.2441L9.10539 15.8378L8.69817 16.2451ZM9.10246 14.5947C9.02919 14.6345 8.94583 14.6463 8.86614 14.6289L9.10539 14.8681L9.34172 14.6308C9.26079 14.6482 9.1763 14.6362 9.10246 14.5947ZM8.69719 13.5673L9.10539 13.9755L9.51262 13.5683L9.10344 13.1601L8.69719 13.5673ZM9.58879 12.6748L9.99797 13.083L10.4042 12.6757L9.99699 12.2675L9.58879 12.6748ZM7.80559 12.6748L8.21184 13.081L8.61809 12.6748L8.21282 12.2685L7.80559 12.6748ZM6.91203 11.7822L7.31926 12.1904L7.72746 11.7832L7.31828 11.3749L6.91203 11.7822ZM8.69817 11.7832L9.10344 12.1894L9.51164 11.7822L9.10539 11.3759L8.69817 11.7832ZM10.4823 11.7822L10.8886 12.1894L11.2968 11.7822L10.8896 11.3749L10.4823 11.7822ZM7.80364 10.8886L8.21282 11.2978L8.62102 10.8886L8.21282 10.4804L7.80364 10.8886ZM6.01946 10.8896L6.42668 11.2968L6.83391 10.8886L6.42766 10.4814L6.01946 10.8896ZM9.58977 10.8896L9.99699 11.2968L10.4042 10.8886L9.99797 10.4824L9.58977 10.8896ZM11.3749 10.8896L11.7822 11.2968L12.1894 10.8886L11.7831 10.4824L11.3749 10.8896ZM10.4833 9.99702L10.8905 10.4042L11.2978 9.99702L10.8905 9.58979L10.4833 9.99702ZM5.12688 9.99506L5.53508 10.4033L5.94231 9.99604L5.53313 9.58784L5.12688 9.99506ZM12.2685 9.99702L12.6747 10.4033L13.0829 9.99506L12.6767 9.58881L12.2685 9.99702ZM15.8388 9.99506L16.247 10.4033L16.6542 9.99702L16.245 9.58784L15.8388 9.99506ZM1.55657 9.99604L1.96282 10.4023L2.37102 9.99604L1.96282 9.58881L1.55657 9.99604ZM6.91301 9.99604L7.31828 10.4023L7.72746 9.99506L7.32024 9.58784L6.91301 9.99604ZM8.69817 9.99506L9.10539 10.4023L9.51262 9.99702L9.10344 9.58881L8.69817 9.99506ZM14.0536 9.99506L14.4609 10.4023L14.8681 9.99506L14.4609 9.58784L14.0536 9.99506ZM3.3427 9.99604L3.74797 10.4013L4.15617 9.99506L3.74895 9.58784L3.3427 9.99604ZM11.3759 9.10444L11.7831 9.51167L12.1904 9.10346L11.7841 8.69721L11.3759 9.10444ZM6.02043 9.10444L6.42766 9.51069L6.83391 9.10346L6.42864 8.69819L6.02043 9.10444ZM9.59172 9.10444L9.99797 9.51069L10.4052 9.10346L9.99992 8.69819L9.59172 9.10444ZM7.80559 9.10249L8.21282 9.50971L8.61907 9.10249L8.21282 8.69624L7.80559 9.10249ZM8.69817 8.21088L9.10637 8.61909L9.5136 8.21284L9.10442 7.80366L8.69817 8.21088ZM10.4853 8.21284L10.8905 8.61909L11.2988 8.21284L10.8915 7.80561L10.4853 8.21284ZM6.91399 8.21284L7.31828 8.61811L7.72649 8.21088L7.32024 7.80561L6.91399 8.21284ZM9.58977 7.31831L9.99895 7.72749L10.4062 7.31928L9.99797 6.91108L9.58977 7.31831ZM7.80461 7.31831L8.21282 7.72553L8.61907 7.31831L8.21282 6.91108L7.80461 7.31831ZM8.69817 6.42573L9.10442 6.83198L9.51164 6.42573L9.10442 6.0185L8.69817 6.42573ZM8.86711 5.36225C8.94732 5.34475 9.03184 5.35784 9.10539 5.39838C9.17844 5.3587 9.26215 5.34711 9.34172 5.3642L9.10442 5.12592L8.86711 5.36225ZM8.69719 3.74897L9.10344 4.15522L9.51067 3.74702L9.10539 3.34174L8.69719 3.74897ZM8.69817 1.96284L9.10539 2.37006L9.51164 1.96381L9.10539 1.55659L8.69817 1.96284Z" fill="#262626"/>
</svg>
