<svg width="336" height="23" viewBox="0 0 336 23" fill="none" xmlns="http://www.w3.org/2000/svg">
<path d="M166.368 2.23449C166.055 1.92183 165.548 1.92184 165.235 2.23449C164.922 2.54724 164.922 3.05454 165.235 3.36731L166.368 4.49914L165.235 5.63293C164.923 5.94563 164.923 6.45205 165.235 6.76477C165.548 7.07753 166.055 7.07753 166.368 6.76477L167.501 5.63196L168.633 6.76477C168.945 7.07753 169.453 7.07753 169.765 6.76477C170.078 6.45201 170.078 5.94567 169.765 5.63293L168.634 4.49914L169.765 3.36731C170.078 3.05454 170.078 2.54726 169.765 2.23449C169.453 1.92199 168.945 1.92182 168.633 2.23449L167.501 3.36633L166.368 2.23449Z" fill="#0ABF00"/>
<path d="M166.368 17.2345C166.055 16.9218 165.548 16.9218 165.235 17.2345C164.922 17.5472 164.922 18.0545 165.235 18.3673L166.368 19.4991L165.235 20.6329C164.923 20.9456 164.923 21.4521 165.235 21.7648C165.548 22.0775 166.055 22.0775 166.368 21.7648L167.501 20.632L168.633 21.7648C168.945 22.0775 169.453 22.0775 169.765 21.7648C170.078 21.452 170.078 20.9457 169.765 20.6329L168.634 19.4991L169.765 18.3673C170.078 18.0545 170.078 17.5473 169.765 17.2345C169.453 16.922 168.945 16.9218 168.633 17.2345L167.501 18.3663L166.368 17.2345Z" fill="#0ABF00"/>
<path d="M85.6325 8.23449C85.9453 7.92182 86.4526 7.92184 86.7653 8.23449C87.0781 8.54724 87.078 9.05454 86.7653 9.36731L85.6325 10.4991L86.7653 11.6329C87.0778 11.9456 87.0778 12.4521 86.7653 12.7648C86.4526 13.0775 85.9453 13.0775 85.6325 12.7648L84.4997 11.632L83.3679 12.7648C83.0551 13.0775 82.5478 13.0775 82.2351 12.7648C81.9224 12.452 81.9224 11.9457 82.2351 11.6329L83.3669 10.4991L82.2351 9.36731C81.9223 9.05454 81.9223 8.54726 82.2351 8.23449C82.5478 7.92199 83.0552 7.92182 83.3679 8.23449L84.4997 9.36633L85.6325 8.23449Z" fill="#0ABF00"/>
<path d="M90.6325 9.23449C90.9453 8.92182 91.4526 8.92184 91.7653 9.23449C92.0781 9.54724 92.078 10.0545 91.7653 10.3673L90.6325 11.4991L91.7653 12.6329C92.0778 12.9456 92.0778 13.4521 91.7653 13.7648C91.4526 14.0775 90.9453 14.0775 90.6325 13.7648L89.4997 12.632L88.3679 13.7648C88.0551 14.0775 87.5478 14.0775 87.2351 13.7648C86.9224 13.452 86.9224 12.9457 87.2351 12.6329L88.3669 11.4991L87.2351 10.3673C86.9223 10.0545 86.9223 9.54726 87.2351 9.23449C87.5478 8.92199 88.0552 8.92182 88.3679 9.23449L89.4997 10.3663L90.6325 9.23449Z" fill="#0ABF00"/>
<path d="M95.6325 11.2345C95.9453 10.9218 96.4526 10.9218 96.7653 11.2345C97.0781 11.5472 97.078 12.0545 96.7653 12.3673L95.6325 13.4991L96.7653 14.6329C97.0778 14.9456 97.0778 15.4521 96.7653 15.7648C96.4526 16.0775 95.9453 16.0775 95.6325 15.7648L94.4997 14.632L93.3679 15.7648C93.0551 16.0775 92.5478 16.0775 92.2351 15.7648C91.9224 15.452 91.9224 14.9457 92.2351 14.6329L93.3669 13.4991L92.2351 12.3673C91.9223 12.0545 91.9223 11.5473 92.2351 11.2345C92.5478 10.922 93.0552 10.9218 93.3679 11.2345L94.4997 12.3663L95.6325 11.2345Z" fill="#0ABF00"/>
<path d="M100.633 13.2345C100.945 12.9218 101.453 12.9218 101.765 13.2345C102.078 13.5472 102.078 14.0545 101.765 14.3673L100.633 15.4991L101.765 16.6329C102.078 16.9456 102.078 17.4521 101.765 17.7648C101.453 18.0775 100.945 18.0775 100.633 17.7648L99.4997 16.632L98.3679 17.7648C98.0551 18.0775 97.5478 18.0775 97.2351 17.7648C96.9224 17.452 96.9224 16.9457 97.2351 16.6329L98.3669 15.4991L97.2351 14.3673C96.9223 14.0545 96.9223 13.5473 97.2351 13.2345C97.5478 12.922 98.0552 12.9218 98.3679 13.2345L99.4997 14.3663L100.633 13.2345Z" fill="#0ABF00"/>
<path d="M63.6325 8.23449C63.9453 7.92182 64.4526 7.92184 64.7653 8.23449C65.0781 8.54724 65.078 9.05454 64.7653 9.36731L63.6325 10.4991L64.7653 11.6329C65.0778 11.9456 65.0778 12.4521 64.7653 12.7648C64.4526 13.0775 63.9453 13.0775 63.6325 12.7648L62.4997 11.632L61.3679 12.7648C61.0551 13.0775 60.5478 13.0775 60.2351 12.7648C59.9224 12.452 59.9224 11.9457 60.2351 11.6329L61.3669 10.4991L60.2351 9.36731C59.9223 9.05454 59.9223 8.54726 60.2351 8.23449C60.5478 7.92199 61.0552 7.92182 61.3679 8.23449L62.4997 9.36633L63.6325 8.23449Z" fill="#0ABF00"/>
<path d="M48.632 3.23449C48.9448 2.92183 49.4521 2.92184 49.7648 3.23449C50.0776 3.54724 50.0775 4.05454 49.7648 4.36731L48.632 5.49914L49.7648 6.63293C50.0773 6.94563 50.0773 7.45205 49.7648 7.76477C49.4521 8.07753 48.9448 8.07753 48.632 7.76477L47.4992 6.63196L46.3674 7.76477C46.0546 8.07753 45.5473 8.07753 45.2346 7.76477C44.9219 7.45201 44.9219 6.94567 45.2346 6.63293L46.3664 5.49914L45.2346 4.36731C44.9218 4.05454 44.9218 3.54726 45.2346 3.23449C45.5474 2.92199 46.0547 2.92182 46.3674 3.23449L47.4992 4.36633L48.632 3.23449Z" fill="#0ABF00"/>
<path d="M43.632 0.234495C43.9448 -0.0781746 44.4521 -0.0781552 44.7648 0.234495C45.0776 0.547237 45.0775 1.05454 44.7648 1.36731L43.632 2.49914L44.7648 3.63293C45.0773 3.94563 45.0773 4.45205 44.7648 4.76477C44.4521 5.07753 43.9448 5.07753 43.632 4.76477L42.4992 3.63196L41.3674 4.76477C41.0546 5.07753 40.5473 5.07753 40.2346 4.76477C39.9219 4.45201 39.9219 3.94567 40.2346 3.63293L41.3664 2.49914L40.2346 1.36731C39.9218 1.05454 39.9218 0.547258 40.2346 0.234495C40.5474 -0.0780079 41.0547 -0.0781815 41.3674 0.234495L42.4992 1.36633L43.632 0.234495Z" fill="#0ABF00"/>
<path d="M38.632 0.234495C38.9448 -0.0781746 39.4521 -0.0781552 39.7648 0.234495C40.0776 0.547237 40.0775 1.05454 39.7648 1.36731L38.632 2.49914L39.7648 3.63293C40.0773 3.94563 40.0773 4.45205 39.7648 4.76477C39.4521 5.07753 38.9448 5.07753 38.632 4.76477L37.4992 3.63196L36.3674 4.76477C36.0546 5.07753 35.5473 5.07753 35.2346 4.76477C34.9219 4.45201 34.9219 3.94567 35.2346 3.63293L36.3664 2.49914L35.2346 1.36731C34.9218 1.05454 34.9218 0.547258 35.2346 0.234495C35.5474 -0.0780079 36.0547 -0.0781815 36.3674 0.234495L37.4992 1.36633L38.632 0.234495Z" fill="#0ABF00"/>
<path d="M23.632 3.23449C23.9448 2.92183 24.4521 2.92184 24.7648 3.23449C25.0776 3.54724 25.0775 4.05454 24.7648 4.36731L23.632 5.49914L24.7648 6.63293C25.0773 6.94563 25.0773 7.45205 24.7648 7.76477C24.4521 8.07753 23.9448 8.07753 23.632 7.76477L22.4992 6.63196L21.3674 7.76477C21.0546 8.07753 20.5473 8.07753 20.2346 7.76477C19.9219 7.45201 19.9219 6.94567 20.2346 6.63293L21.3664 5.49914L20.2346 4.36731C19.9218 4.05454 19.9218 3.54726 20.2346 3.23449C20.5474 2.92199 21.0547 2.92182 21.3674 3.23449L22.4992 4.36633L23.632 3.23449Z" fill="#0ABF00"/>
<path d="M18.632 7.23449C18.9448 6.92183 19.4521 6.92184 19.7648 7.23449C20.0776 7.54724 20.0775 8.05454 19.7648 8.36731L18.632 9.49914L19.7648 10.6329C20.0773 10.9456 20.0773 11.4521 19.7648 11.7648C19.4521 12.0775 18.9448 12.0775 18.632 11.7648L17.4992 10.632L16.3674 11.7648C16.0546 12.0775 15.5473 12.0775 15.2346 11.7648C14.9219 11.452 14.9219 10.9457 15.2346 10.6329L16.3664 9.49914L15.2346 8.36731C14.9218 8.05454 14.9218 7.54726 15.2346 7.23449C15.5474 6.92199 16.0547 6.92182 16.3674 7.23449L17.4992 8.36633L18.632 7.23449Z" fill="#0ABF00"/>
<path d="M3.63203 4.23449C3.94477 3.92183 4.4521 3.92184 4.76485 4.23449C5.07759 4.54724 5.07755 5.05454 4.76485 5.36731L3.63203 6.49914L4.76485 7.63293C5.07731 7.94563 5.07728 8.45205 4.76485 8.76477C4.45208 9.07753 3.9448 9.07753 3.63203 8.76477L2.49922 7.63196L1.36738 8.76477C1.05462 9.07753 0.547335 9.07753 0.234572 8.76477C-0.0780849 8.45201 -0.0781191 7.94567 0.234572 7.63293L1.36641 6.49914L0.234572 5.36731C-0.0781908 5.05454 -0.0781908 4.54726 0.234572 4.23449C0.547356 3.92199 1.05471 3.92182 1.36738 4.23449L2.49922 5.36633L3.63203 4.23449Z" fill="#0ABF00"/>
<path d="M75.6325 8.23449C75.9453 7.92182 76.4526 7.92184 76.7653 8.23449C77.0781 8.54724 77.078 9.05454 76.7653 9.36731L75.6325 10.4991L76.7653 11.6329C77.0778 11.9456 77.0778 12.4521 76.7653 12.7648C76.4526 13.0775 75.9453 13.0775 75.6325 12.7648L74.4997 11.632L73.3679 12.7648C73.0551 13.0775 72.5478 13.0775 72.2351 12.7648C71.9224 12.452 71.9224 11.9457 72.2351 11.6329L73.3669 10.4991L72.2351 9.36731C71.9223 9.05454 71.9223 8.54726 72.2351 8.23449C72.5478 7.92199 73.0552 7.92182 73.3679 8.23449L74.4997 9.36633L75.6325 8.23449Z" fill="#0ABF00"/>
<path d="M110.633 13.2345C110.945 12.9218 111.453 12.9218 111.765 13.2345C112.078 13.5472 112.078 14.0545 111.765 14.3673L110.633 15.4991L111.765 16.6329C112.078 16.9456 112.078 17.4521 111.765 17.7648C111.453 18.0775 110.945 18.0775 110.633 17.7648L109.5 16.632L108.368 17.7648C108.055 18.0775 107.548 18.0775 107.235 17.7648C106.922 17.452 106.922 16.9457 107.235 16.6329L108.367 15.4991L107.235 14.3673C106.922 14.0545 106.922 13.5473 107.235 13.2345C107.548 12.922 108.055 12.9218 108.368 13.2345L109.5 14.3663L110.633 13.2345Z" fill="#0ABF00"/>
<path d="M105.633 13.2345C105.945 12.9218 106.453 12.9218 106.765 13.2345C107.078 13.5472 107.078 14.0545 106.765 14.3673L105.633 15.4991L106.765 16.6329C107.078 16.9456 107.078 17.4521 106.765 17.7648C106.453 18.0775 105.945 18.0775 105.633 17.7648L104.5 16.632L103.368 17.7648C103.055 18.0775 102.548 18.0775 102.235 17.7648C101.922 17.452 101.922 16.9457 102.235 16.6329L103.367 15.4991L102.235 14.3673C101.922 14.0545 101.922 13.5473 102.235 13.2345C102.548 12.922 103.055 12.9218 103.368 13.2345L104.5 14.3663L105.633 13.2345Z" fill="#0ABF00"/>
<path d="M120.633 11.2345C120.945 10.9218 121.453 10.9218 121.765 11.2345C122.078 11.5472 122.078 12.0545 121.765 12.3673L120.633 13.4991L121.765 14.6329C122.078 14.9456 122.078 15.4521 121.765 15.7648C121.453 16.0775 120.945 16.0775 120.633 15.7648L119.5 14.632L118.368 15.7648C118.055 16.0775 117.548 16.0775 117.235 15.7648C116.922 15.452 116.922 14.9457 117.235 14.6329L118.367 13.4991L117.235 12.3673C116.922 12.0545 116.922 11.5473 117.235 11.2345C117.548 10.922 118.055 10.9218 118.368 11.2345L119.5 12.3663L120.633 11.2345Z" fill="#0ABF00"/>
<path d="M122.633 16.2345C122.945 15.9218 123.453 15.9218 123.765 16.2345C124.078 16.5472 124.078 17.0545 123.765 17.3673L122.633 18.4991L123.765 19.6329C124.078 19.9456 124.078 20.4521 123.765 20.7648C123.453 21.0775 122.945 21.0775 122.633 20.7648L121.5 19.632L120.368 20.7648C120.055 21.0775 119.548 21.0775 119.235 20.7648C118.922 20.452 118.922 19.9457 119.235 19.6329L120.367 18.4991L119.235 17.3673C118.922 17.0545 118.922 16.5473 119.235 16.2345C119.548 15.922 120.055 15.9218 120.368 16.2345L121.5 17.3663L122.633 16.2345Z" fill="#0ABF00"/>
<path d="M127.633 17.2345C127.945 16.9218 128.453 16.9218 128.765 17.2345C129.078 17.5472 129.078 18.0545 128.765 18.3673L127.633 19.4991L128.765 20.6329C129.078 20.9456 129.078 21.4521 128.765 21.7648C128.453 22.0775 127.945 22.0775 127.633 21.7648L126.5 20.632L125.368 21.7648C125.055 22.0775 124.548 22.0775 124.235 21.7648C123.922 21.452 123.922 20.9457 124.235 20.6329L125.367 19.4991L124.235 18.3673C123.922 18.0545 123.922 17.5473 124.235 17.2345C124.548 16.922 125.055 16.9218 125.368 17.2345L126.5 18.3663L127.633 17.2345Z" fill="#0ABF00"/>
<path d="M132.633 15.2345C132.945 14.9218 133.453 14.9218 133.765 15.2345C134.078 15.5472 134.078 16.0545 133.765 16.3673L132.633 17.4991L133.765 18.6329C134.078 18.9456 134.078 19.4521 133.765 19.7648C133.453 20.0775 132.945 20.0775 132.633 19.7648L131.5 18.632L130.368 19.7648C130.055 20.0775 129.548 20.0775 129.235 19.7648C128.922 19.452 128.922 18.9457 129.235 18.6329L130.367 17.4991L129.235 16.3673C128.922 16.0545 128.922 15.5473 129.235 15.2345C129.548 14.922 130.055 14.9218 130.368 15.2345L131.5 16.3663L132.633 15.2345Z" fill="#0ABF00"/>
<path d="M137.633 13.2345C137.945 12.9218 138.453 12.9218 138.765 13.2345C139.078 13.5472 139.078 14.0545 138.765 14.3673L137.633 15.4991L138.765 16.6329C139.078 16.9456 139.078 17.4521 138.765 17.7648C138.453 18.0775 137.945 18.0775 137.633 17.7648L136.5 16.632L135.368 17.7648C135.055 18.0775 134.548 18.0775 134.235 17.7648C133.922 17.452 133.922 16.9457 134.235 16.6329L135.367 15.4991L134.235 14.3673C133.922 14.0545 133.922 13.5473 134.235 13.2345C134.548 12.922 135.055 12.9218 135.368 13.2345L136.5 14.3663L137.633 13.2345Z" fill="#0ABF00"/>
<path d="M125.633 9.23449C125.945 8.92182 126.453 8.92184 126.765 9.23449C127.078 9.54724 127.078 10.0545 126.765 10.3673L125.633 11.4991L126.765 12.6329C127.078 12.9456 127.078 13.4521 126.765 13.7648C126.453 14.0775 125.945 14.0775 125.633 13.7648L124.5 12.632L123.368 13.7648C123.055 14.0775 122.548 14.0775 122.235 13.7648C121.922 13.452 121.922 12.9457 122.235 12.6329L123.367 11.4991L122.235 10.3673C121.922 10.0545 121.922 9.54726 122.235 9.23449C122.548 8.92199 123.055 8.92182 123.368 9.23449L124.5 10.3663L125.633 9.23449Z" fill="#0ABF00"/>
<path d="M130.633 7.23449C130.945 6.92183 131.453 6.92184 131.765 7.23449C132.078 7.54724 132.078 8.05454 131.765 8.36731L130.633 9.49914L131.765 10.6329C132.078 10.9456 132.078 11.4521 131.765 11.7648C131.453 12.0775 130.945 12.0775 130.633 11.7648L129.5 10.632L128.368 11.7648C128.055 12.0775 127.548 12.0775 127.235 11.7648C126.922 11.452 126.922 10.9457 127.235 10.6329L128.367 9.49914L127.235 8.36731C126.922 8.05454 126.922 7.54726 127.235 7.23449C127.548 6.92199 128.055 6.92182 128.368 7.23449L129.5 8.36633L130.633 7.23449Z" fill="#0ABF00"/>
<path d="M135.633 5.23449C135.945 4.92183 136.453 4.92184 136.765 5.23449C137.078 5.54724 137.078 6.05454 136.765 6.36731L135.633 7.49914L136.765 8.63293C137.078 8.94562 137.078 9.45205 136.765 9.76477C136.453 10.0775 135.945 10.0775 135.633 9.76477L134.5 8.63196L133.368 9.76477C133.055 10.0775 132.548 10.0775 132.235 9.76477C131.922 9.45201 131.922 8.94567 132.235 8.63293L133.367 7.49914L132.235 6.36731C131.922 6.05454 131.922 5.54726 132.235 5.23449C132.548 4.92199 133.055 4.92182 133.368 5.23449L134.5 6.36633L135.633 5.23449Z" fill="#0ABF00"/>
<path d="M140.633 5.23449C140.945 4.92183 141.453 4.92184 141.765 5.23449C142.078 5.54724 142.078 6.05454 141.765 6.36731L140.633 7.49914L141.765 8.63293C142.078 8.94562 142.078 9.45205 141.765 9.76477C141.453 10.0775 140.945 10.0775 140.633 9.76477L139.5 8.63196L138.368 9.76477C138.055 10.0775 137.548 10.0775 137.235 9.76477C136.922 9.45201 136.922 8.94567 137.235 8.63293L138.367 7.49914L137.235 6.36731C136.922 6.05454 136.922 5.54726 137.235 5.23449C137.548 4.92199 138.055 4.92182 138.368 5.23449L139.5 6.36633L140.633 5.23449Z" fill="#0ABF00"/>
<path d="M145.633 5.23449C145.945 4.92183 146.453 4.92184 146.765 5.23449C147.078 5.54724 147.078 6.05454 146.765 6.36731L145.633 7.49914L146.765 8.63293C147.078 8.94562 147.078 9.45205 146.765 9.76477C146.453 10.0775 145.945 10.0775 145.633 9.76477L144.5 8.63196L143.368 9.76477C143.055 10.0775 142.548 10.0775 142.235 9.76477C141.922 9.45201 141.922 8.94567 142.235 8.63293L143.367 7.49914L142.235 6.36731C141.922 6.05454 141.922 5.54726 142.235 5.23449C142.548 4.92199 143.055 4.92182 143.368 5.23449L144.5 6.36633L145.633 5.23449Z" fill="#0ABF00"/>
<path d="M150.633 7.23449C150.945 6.92183 151.453 6.92184 151.765 7.23449C152.078 7.54724 152.078 8.05454 151.765 8.36731L150.633 9.49914L151.765 10.6329C152.078 10.9456 152.078 11.4521 151.765 11.7648C151.453 12.0775 150.945 12.0775 150.633 11.7648L149.5 10.632L148.368 11.7648C148.055 12.0775 147.548 12.0775 147.235 11.7648C146.922 11.452 146.922 10.9457 147.235 10.6329L148.367 9.49914L147.235 8.36731C146.922 8.05454 146.922 7.54726 147.235 7.23449C147.548 6.92199 148.055 6.92182 148.368 7.23449L149.5 8.36633L150.633 7.23449Z" fill="#0ABF00"/>
<path d="M145.633 11.2345C145.945 10.9218 146.453 10.9218 146.765 11.2345C147.078 11.5472 147.078 12.0545 146.765 12.3673L145.633 13.4991L146.765 14.6329C147.078 14.9456 147.078 15.4521 146.765 15.7648C146.453 16.0775 145.945 16.0775 145.633 15.7648L144.5 14.632L143.368 15.7648C143.055 16.0775 142.548 16.0775 142.235 15.7648C141.922 15.452 141.922 14.9457 142.235 14.6329L143.367 13.4991L142.235 12.3673C141.922 12.0545 141.922 11.5473 142.235 11.2345C142.548 10.922 143.055 10.9218 143.368 11.2345L144.5 12.3663L145.633 11.2345Z" fill="#0ABF00"/>
<path d="M142.633 16.2345C142.945 15.9218 143.453 15.9218 143.765 16.2345C144.078 16.5472 144.078 17.0545 143.765 17.3673L142.633 18.4991L143.765 19.6329C144.078 19.9456 144.078 20.4521 143.765 20.7648C143.453 21.0775 142.945 21.0775 142.633 20.7648L141.5 19.632L140.368 20.7648C140.055 21.0775 139.548 21.0775 139.235 20.7648C138.922 20.452 138.922 19.9457 139.235 19.6329L140.367 18.4991L139.235 17.3673C138.922 17.0545 138.922 16.5473 139.235 16.2345C139.548 15.922 140.055 15.9218 140.368 16.2345L141.5 17.3663L142.633 16.2345Z" fill="#0ABF00"/>
<path d="M147.633 18.2345C147.945 17.9218 148.453 17.9218 148.765 18.2345C149.078 18.5472 149.078 19.0545 148.765 19.3673L147.633 20.4991L148.765 21.6329C149.078 21.9456 149.078 22.4521 148.765 22.7648C148.453 23.0775 147.945 23.0775 147.633 22.7648L146.5 21.632L145.368 22.7648C145.055 23.0775 144.548 23.0775 144.235 22.7648C143.922 22.452 143.922 21.9457 144.235 21.6329L145.367 20.4991L144.235 19.3673C143.922 19.0545 143.922 18.5473 144.235 18.2345C144.548 17.922 145.055 17.9218 145.368 18.2345L146.5 19.3663L147.633 18.2345Z" fill="#0ABF00"/>
<path d="M152.633 16.2345C152.945 15.9218 153.453 15.9218 153.765 16.2345C154.078 16.5472 154.078 17.0545 153.765 17.3673L152.633 18.4991L153.765 19.6329C154.078 19.9456 154.078 20.4521 153.765 20.7648C153.453 21.0775 152.945 21.0775 152.633 20.7648L151.5 19.632L150.368 20.7648C150.055 21.0775 149.548 21.0775 149.235 20.7648C148.922 20.452 148.922 19.9457 149.235 19.6329L150.367 18.4991L149.235 17.3673C148.922 17.0545 148.922 16.5473 149.235 16.2345C149.548 15.922 150.055 15.9218 150.368 16.2345L151.5 17.3663L152.633 16.2345Z" fill="#0ABF00"/>
<path d="M155.633 10.2345C155.945 9.92182 156.453 9.92184 156.765 10.2345C157.078 10.5472 157.078 11.0545 156.765 11.3673L155.633 12.4991L156.765 13.6329C157.078 13.9456 157.078 14.4521 156.765 14.7648C156.453 15.0775 155.945 15.0775 155.633 14.7648L154.5 13.632L153.368 14.7648C153.055 15.0775 152.548 15.0775 152.235 14.7648C151.922 14.452 151.922 13.9457 152.235 13.6329L153.367 12.4991L152.235 11.3673C151.922 11.0545 151.922 10.5473 152.235 10.2345C152.548 9.92199 153.055 9.92182 153.368 10.2345L154.5 11.3663L155.633 10.2345Z" fill="#0ABF00"/>
<path d="M155.633 0.234495C155.945 -0.0781746 156.453 -0.0781552 156.765 0.234495C157.078 0.547237 157.078 1.05454 156.765 1.36731L155.633 2.49914L156.765 3.63293C157.078 3.94563 157.078 4.45205 156.765 4.76477C156.453 5.07753 155.945 5.07753 155.633 4.76477L154.5 3.63196L153.368 4.76477C153.055 5.07753 152.548 5.07753 152.235 4.76477C151.922 4.45201 151.922 3.94567 152.235 3.63293L153.367 2.49914L152.235 1.36731C151.922 1.05454 151.922 0.547258 152.235 0.234495C152.548 -0.0780079 153.055 -0.0781815 153.368 0.234495L154.5 1.36633L155.633 0.234495Z" fill="#0ABF00"/>
<path d="M160.633 2.23449C160.945 1.92183 161.453 1.92184 161.765 2.23449C162.078 2.54724 162.078 3.05454 161.765 3.36731L160.633 4.49914L161.765 5.63293C162.078 5.94563 162.078 6.45205 161.765 6.76477C161.453 7.07753 160.945 7.07753 160.633 6.76477L159.5 5.63196L158.368 6.76477C158.055 7.07753 157.548 7.07753 157.235 6.76477C156.922 6.45201 156.922 5.94567 157.235 5.63293L158.367 4.49914L157.235 3.36731C156.922 3.05454 156.922 2.54726 157.235 2.23449C157.548 1.92199 158.055 1.92182 158.368 2.23449L159.5 3.36633L160.633 2.23449Z" fill="#0ABF00"/>
<path d="M160.633 7.23449C160.945 6.92183 161.453 6.92184 161.765 7.23449C162.078 7.54724 162.078 8.05454 161.765 8.36731L160.633 9.49914L161.765 10.6329C162.078 10.9456 162.078 11.4521 161.765 11.7648C161.453 12.0775 160.945 12.0775 160.633 11.7648L159.5 10.632L158.368 11.7648C158.055 12.0775 157.548 12.0775 157.235 11.7648C156.922 11.452 156.922 10.9457 157.235 10.6329L158.367 9.49914L157.235 8.36731C156.922 8.05454 156.922 7.54726 157.235 7.23449C157.548 6.92199 158.055 6.92182 158.368 7.23449L159.5 8.36633L160.633 7.23449Z" fill="#0ABF00"/>
<path d="M160.633 12.2345C160.945 11.9218 161.453 11.9218 161.765 12.2345C162.078 12.5472 162.078 13.0545 161.765 13.3673L160.633 14.4991L161.765 15.6329C162.078 15.9456 162.078 16.4521 161.765 16.7648C161.453 17.0775 160.945 17.0775 160.633 16.7648L159.5 15.632L158.368 16.7648C158.055 17.0775 157.548 17.0775 157.235 16.7648C156.922 16.452 156.922 15.9457 157.235 15.6329L158.367 14.4991L157.235 13.3673C156.922 13.0545 156.922 12.5473 157.235 12.2345C157.548 11.922 158.055 11.9218 158.368 12.2345L159.5 13.3663L160.633 12.2345Z" fill="#0ABF00"/>
<path d="M165.633 7.23449C165.945 6.92183 166.453 6.92184 166.765 7.23449C167.078 7.54724 167.078 8.05454 166.765 8.36731L165.633 9.49914L166.765 10.6329C167.078 10.9456 167.078 11.4521 166.765 11.7648C166.453 12.0775 165.945 12.0775 165.633 11.7648L164.5 10.632L163.368 11.7648C163.055 12.0775 162.548 12.0775 162.235 11.7648C161.922 11.452 161.922 10.9457 162.235 10.6329L163.367 9.49914L162.235 8.36731C161.922 8.05454 161.922 7.54726 162.235 7.23449C162.548 6.92199 163.055 6.92182 163.368 7.23449L164.5 8.36633L165.633 7.23449Z" fill="#0ABF00"/>
<path d="M165.633 12.2345C165.945 11.9218 166.453 11.9218 166.765 12.2345C167.078 12.5472 167.078 13.0545 166.765 13.3673L165.633 14.4991L166.765 15.6329C167.078 15.9456 167.078 16.4521 166.765 16.7648C166.453 17.0775 165.945 17.0775 165.633 16.7648L164.5 15.632L163.368 16.7648C163.055 17.0775 162.548 17.0775 162.235 16.7648C161.922 16.452 161.922 15.9457 162.235 15.6329L163.367 14.4991L162.235 13.3673C161.922 13.0545 161.922 12.5473 162.235 12.2345C162.548 11.922 163.055 11.9218 163.368 12.2345L164.5 13.3663L165.633 12.2345Z" fill="#0ABF00"/>
<path d="M115.633 13.2345C115.945 12.9218 116.453 12.9218 116.765 13.2345C117.078 13.5472 117.078 14.0545 116.765 14.3673L115.633 15.4991L116.765 16.6329C117.078 16.9456 117.078 17.4521 116.765 17.7648C116.453 18.0775 115.945 18.0775 115.633 17.7648L114.5 16.632L113.368 17.7648C113.055 18.0775 112.548 18.0775 112.235 17.7648C111.922 17.452 111.922 16.9457 112.235 16.6329L113.367 15.4991L112.235 14.3673C111.922 14.0545 111.922 13.5473 112.235 13.2345C112.548 12.922 113.055 12.9218 113.368 13.2345L114.5 14.3663L115.633 13.2345Z" fill="#0ABF00"/>
<path d="M250.367 8.23449C250.055 7.92182 249.547 7.92184 249.235 8.23449C248.922 8.54724 248.922 9.05454 249.235 9.36731L250.367 10.4991L249.235 11.6329C248.922 11.9456 248.922 12.4521 249.235 12.7648C249.547 13.0775 250.055 13.0775 250.367 12.7648L251.5 11.632L252.632 12.7648C252.945 13.0775 253.452 13.0775 253.765 12.7648C254.078 12.452 254.078 11.9457 253.765 11.6329L252.633 10.4991L253.765 9.36731C254.078 9.05454 254.078 8.54726 253.765 8.23449C253.452 7.92199 252.945 7.92182 252.632 8.23449L251.5 9.36633L250.367 8.23449Z" fill="#0ABF00"/>
<path d="M245.367 9.23449C245.055 8.92182 244.547 8.92184 244.235 9.23449C243.922 9.54724 243.922 10.0545 244.235 10.3673L245.367 11.4991L244.235 12.6329C243.922 12.9456 243.922 13.4521 244.235 13.7648C244.547 14.0775 245.055 14.0775 245.367 13.7648L246.5 12.632L247.632 13.7648C247.945 14.0775 248.452 14.0775 248.765 13.7648C249.078 13.452 249.078 12.9457 248.765 12.6329L247.633 11.4991L248.765 10.3673C249.078 10.0545 249.078 9.54726 248.765 9.23449C248.452 8.92199 247.945 8.92182 247.632 9.23449L246.5 10.3663L245.367 9.23449Z" fill="#0ABF00"/>
<path d="M240.367 11.2345C240.055 10.9218 239.547 10.9218 239.235 11.2345C238.922 11.5472 238.922 12.0545 239.235 12.3673L240.367 13.4991L239.235 14.6329C238.922 14.9456 238.922 15.4521 239.235 15.7648C239.547 16.0775 240.055 16.0775 240.367 15.7648L241.5 14.632L242.632 15.7648C242.945 16.0775 243.452 16.0775 243.765 15.7648C244.078 15.452 244.078 14.9457 243.765 14.6329L242.633 13.4991L243.765 12.3673C244.078 12.0545 244.078 11.5473 243.765 11.2345C243.452 10.922 242.945 10.9218 242.632 11.2345L241.5 12.3663L240.367 11.2345Z" fill="#0ABF00"/>
<path d="M235.367 13.2345C235.055 12.9218 234.547 12.9218 234.235 13.2345C233.922 13.5472 233.922 14.0545 234.235 14.3673L235.367 15.4991L234.235 16.6329C233.922 16.9456 233.922 17.4521 234.235 17.7648C234.547 18.0775 235.055 18.0775 235.367 17.7648L236.5 16.632L237.632 17.7648C237.945 18.0775 238.452 18.0775 238.765 17.7648C239.078 17.452 239.078 16.9457 238.765 16.6329L237.633 15.4991L238.765 14.3673C239.078 14.0545 239.078 13.5473 238.765 13.2345C238.452 12.922 237.945 12.9218 237.632 13.2345L236.5 14.3663L235.367 13.2345Z" fill="#0ABF00"/>
<path d="M272.367 8.23449C272.055 7.92182 271.547 7.92184 271.235 8.23449C270.922 8.54724 270.922 9.05454 271.235 9.36731L272.367 10.4991L271.235 11.6329C270.922 11.9456 270.922 12.4521 271.235 12.7648C271.547 13.0775 272.055 13.0775 272.367 12.7648L273.5 11.632L274.632 12.7648C274.945 13.0775 275.452 13.0775 275.765 12.7648C276.078 12.452 276.078 11.9457 275.765 11.6329L274.633 10.4991L275.765 9.36731C276.078 9.05454 276.078 8.54726 275.765 8.23449C275.452 7.92199 274.945 7.92182 274.632 8.23449L273.5 9.36633L272.367 8.23449Z" fill="#0ABF00"/>
<path d="M287.368 3.23449C287.055 2.92183 286.548 2.92184 286.235 3.23449C285.922 3.54724 285.922 4.05454 286.235 4.36731L287.368 5.49914L286.235 6.63293C285.923 6.94563 285.923 7.45205 286.235 7.76477C286.548 8.07753 287.055 8.07753 287.368 7.76477L288.501 6.63196L289.633 7.76477C289.945 8.07753 290.453 8.07753 290.765 7.76477C291.078 7.45201 291.078 6.94567 290.765 6.63293L289.634 5.49914L290.765 4.36731C291.078 4.05454 291.078 3.54726 290.765 3.23449C290.453 2.92199 289.945 2.92182 289.633 3.23449L288.501 4.36633L287.368 3.23449Z" fill="#0ABF00"/>
<path d="M292.368 0.234495C292.055 -0.0781746 291.548 -0.0781552 291.235 0.234495C290.922 0.547237 290.922 1.05454 291.235 1.36731L292.368 2.49914L291.235 3.63293C290.923 3.94563 290.923 4.45205 291.235 4.76477C291.548 5.07753 292.055 5.07753 292.368 4.76477L293.501 3.63196L294.633 4.76477C294.945 5.07753 295.453 5.07753 295.765 4.76477C296.078 4.45201 296.078 3.94567 295.765 3.63293L294.634 2.49914L295.765 1.36731C296.078 1.05454 296.078 0.547258 295.765 0.234495C295.453 -0.0780079 294.945 -0.0781815 294.633 0.234495L293.501 1.36633L292.368 0.234495Z" fill="#0ABF00"/>
<path d="M297.368 0.234495C297.055 -0.0781746 296.548 -0.0781552 296.235 0.234495C295.922 0.547237 295.922 1.05454 296.235 1.36731L297.368 2.49914L296.235 3.63293C295.923 3.94563 295.923 4.45205 296.235 4.76477C296.548 5.07753 297.055 5.07753 297.368 4.76477L298.501 3.63196L299.633 4.76477C299.945 5.07753 300.453 5.07753 300.765 4.76477C301.078 4.45201 301.078 3.94567 300.765 3.63293L299.634 2.49914L300.765 1.36731C301.078 1.05454 301.078 0.547258 300.765 0.234495C300.453 -0.0780079 299.945 -0.0781815 299.633 0.234495L298.501 1.36633L297.368 0.234495Z" fill="#0ABF00"/>
<path d="M312.368 3.23449C312.055 2.92183 311.548 2.92184 311.235 3.23449C310.922 3.54724 310.922 4.05454 311.235 4.36731L312.368 5.49914L311.235 6.63293C310.923 6.94563 310.923 7.45205 311.235 7.76477C311.548 8.07753 312.055 8.07753 312.368 7.76477L313.501 6.63196L314.633 7.76477C314.945 8.07753 315.453 8.07753 315.765 7.76477C316.078 7.45201 316.078 6.94567 315.765 6.63293L314.634 5.49914L315.765 4.36731C316.078 4.05454 316.078 3.54726 315.765 3.23449C315.453 2.92199 314.945 2.92182 314.633 3.23449L313.501 4.36633L312.368 3.23449Z" fill="#0ABF00"/>
<path d="M317.368 7.23449C317.055 6.92183 316.548 6.92184 316.235 7.23449C315.922 7.54724 315.922 8.05454 316.235 8.36731L317.368 9.49914L316.235 10.6329C315.923 10.9456 315.923 11.4521 316.235 11.7648C316.548 12.0775 317.055 12.0775 317.368 11.7648L318.501 10.632L319.633 11.7648C319.945 12.0775 320.453 12.0775 320.765 11.7648C321.078 11.452 321.078 10.9457 320.765 10.6329L319.634 9.49914L320.765 8.36731C321.078 8.05454 321.078 7.54726 320.765 7.23449C320.453 6.92199 319.945 6.92182 319.633 7.23449L318.501 8.36633L317.368 7.23449Z" fill="#0ABF00"/>
<path d="M332.368 4.23449C332.055 3.92183 331.548 3.92184 331.235 4.23449C330.922 4.54724 330.922 5.05454 331.235 5.36731L332.368 6.49914L331.235 7.63293C330.923 7.94563 330.923 8.45205 331.235 8.76477C331.548 9.07753 332.055 9.07753 332.368 8.76477L333.501 7.63196L334.633 8.76477C334.945 9.07753 335.453 9.07753 335.765 8.76477C336.078 8.45201 336.078 7.94567 335.765 7.63293L334.634 6.49914L335.765 5.36731C336.078 5.05454 336.078 4.54726 335.765 4.23449C335.453 3.92199 334.945 3.92182 334.633 4.23449L333.501 5.36633L332.368 4.23449Z" fill="#0ABF00"/>
<path d="M260.367 8.23449C260.055 7.92182 259.547 7.92184 259.235 8.23449C258.922 8.54724 258.922 9.05454 259.235 9.36731L260.367 10.4991L259.235 11.6329C258.922 11.9456 258.922 12.4521 259.235 12.7648C259.547 13.0775 260.055 13.0775 260.367 12.7648L261.5 11.632L262.632 12.7648C262.945 13.0775 263.452 13.0775 263.765 12.7648C264.078 12.452 264.078 11.9457 263.765 11.6329L262.633 10.4991L263.765 9.36731C264.078 9.05454 264.078 8.54726 263.765 8.23449C263.452 7.92199 262.945 7.92182 262.632 8.23449L261.5 9.36633L260.367 8.23449Z" fill="#0ABF00"/>
<path d="M225.367 13.2345C225.055 12.9218 224.547 12.9218 224.235 13.2345C223.922 13.5472 223.922 14.0545 224.235 14.3673L225.367 15.4991L224.235 16.6329C223.922 16.9456 223.922 17.4521 224.235 17.7648C224.547 18.0775 225.055 18.0775 225.367 17.7648L226.5 16.632L227.632 17.7648C227.945 18.0775 228.452 18.0775 228.765 17.7648C229.078 17.452 229.078 16.9457 228.765 16.6329L227.633 15.4991L228.765 14.3673C229.078 14.0545 229.078 13.5473 228.765 13.2345C228.452 12.922 227.945 12.9218 227.632 13.2345L226.5 14.3663L225.367 13.2345Z" fill="#0ABF00"/>
<path d="M230.367 13.2345C230.055 12.9218 229.547 12.9218 229.235 13.2345C228.922 13.5472 228.922 14.0545 229.235 14.3673L230.367 15.4991L229.235 16.6329C228.922 16.9456 228.922 17.4521 229.235 17.7648C229.547 18.0775 230.055 18.0775 230.367 17.7648L231.5 16.632L232.632 17.7648C232.945 18.0775 233.452 18.0775 233.765 17.7648C234.078 17.452 234.078 16.9457 233.765 16.6329L232.633 15.4991L233.765 14.3673C234.078 14.0545 234.078 13.5473 233.765 13.2345C233.452 12.922 232.945 12.9218 232.632 13.2345L231.5 14.3663L230.367 13.2345Z" fill="#0ABF00"/>
<path d="M215.367 11.2345C215.055 10.9218 214.547 10.9218 214.235 11.2345C213.922 11.5472 213.922 12.0545 214.235 12.3673L215.367 13.4991L214.235 14.6329C213.922 14.9456 213.922 15.4521 214.235 15.7648C214.547 16.0775 215.055 16.0775 215.367 15.7648L216.5 14.632L217.632 15.7648C217.945 16.0775 218.452 16.0775 218.765 15.7648C219.078 15.452 219.078 14.9457 218.765 14.6329L217.633 13.4991L218.765 12.3673C219.078 12.0545 219.078 11.5473 218.765 11.2345C218.452 10.922 217.945 10.9218 217.632 11.2345L216.5 12.3663L215.367 11.2345Z" fill="#0ABF00"/>
<path d="M213.367 16.2345C213.055 15.9218 212.547 15.9218 212.235 16.2345C211.922 16.5472 211.922 17.0545 212.235 17.3673L213.367 18.4991L212.235 19.6329C211.922 19.9456 211.922 20.4521 212.235 20.7648C212.547 21.0775 213.055 21.0775 213.367 20.7648L214.5 19.632L215.632 20.7648C215.945 21.0775 216.452 21.0775 216.765 20.7648C217.078 20.452 217.078 19.9457 216.765 19.6329L215.633 18.4991L216.765 17.3673C217.078 17.0545 217.078 16.5473 216.765 16.2345C216.452 15.922 215.945 15.9218 215.632 16.2345L214.5 17.3663L213.367 16.2345Z" fill="#0ABF00"/>
<path d="M208.367 17.2345C208.055 16.9218 207.547 16.9218 207.235 17.2345C206.922 17.5472 206.922 18.0545 207.235 18.3673L208.367 19.4991L207.235 20.6329C206.922 20.9456 206.922 21.4521 207.235 21.7648C207.547 22.0775 208.055 22.0775 208.367 21.7648L209.5 20.632L210.632 21.7648C210.945 22.0775 211.452 22.0775 211.765 21.7648C212.078 21.452 212.078 20.9457 211.765 20.6329L210.633 19.4991L211.765 18.3673C212.078 18.0545 212.078 17.5473 211.765 17.2345C211.452 16.922 210.945 16.9218 210.632 17.2345L209.5 18.3663L208.367 17.2345Z" fill="#0ABF00"/>
<path d="M203.367 15.2345C203.055 14.9218 202.547 14.9218 202.235 15.2345C201.922 15.5472 201.922 16.0545 202.235 16.3673L203.367 17.4991L202.235 18.6329C201.922 18.9456 201.922 19.4521 202.235 19.7648C202.547 20.0775 203.055 20.0775 203.367 19.7648L204.5 18.632L205.632 19.7648C205.945 20.0775 206.452 20.0775 206.765 19.7648C207.078 19.452 207.078 18.9457 206.765 18.6329L205.633 17.4991L206.765 16.3673C207.078 16.0545 207.078 15.5473 206.765 15.2345C206.452 14.922 205.945 14.9218 205.632 15.2345L204.5 16.3663L203.367 15.2345Z" fill="#0ABF00"/>
<path d="M198.367 13.2345C198.055 12.9218 197.547 12.9218 197.235 13.2345C196.922 13.5472 196.922 14.0545 197.235 14.3673L198.367 15.4991L197.235 16.6329C196.922 16.9456 196.922 17.4521 197.235 17.7648C197.547 18.0775 198.055 18.0775 198.367 17.7648L199.5 16.632L200.632 17.7648C200.945 18.0775 201.452 18.0775 201.765 17.7648C202.078 17.452 202.078 16.9457 201.765 16.6329L200.633 15.4991L201.765 14.3673C202.078 14.0545 202.078 13.5473 201.765 13.2345C201.452 12.922 200.945 12.9218 200.632 13.2345L199.5 14.3663L198.367 13.2345Z" fill="#0ABF00"/>
<path d="M210.367 9.23449C210.055 8.92182 209.547 8.92184 209.235 9.23449C208.922 9.54724 208.922 10.0545 209.235 10.3673L210.367 11.4991L209.235 12.6329C208.922 12.9456 208.922 13.4521 209.235 13.7648C209.547 14.0775 210.055 14.0775 210.367 13.7648L211.5 12.632L212.632 13.7648C212.945 14.0775 213.452 14.0775 213.765 13.7648C214.078 13.452 214.078 12.9457 213.765 12.6329L212.633 11.4991L213.765 10.3673C214.078 10.0545 214.078 9.54726 213.765 9.23449C213.452 8.92199 212.945 8.92182 212.632 9.23449L211.5 10.3663L210.367 9.23449Z" fill="#0ABF00"/>
<path d="M205.367 7.23449C205.055 6.92183 204.547 6.92184 204.235 7.23449C203.922 7.54724 203.922 8.05454 204.235 8.36731L205.367 9.49914L204.235 10.6329C203.922 10.9456 203.922 11.4521 204.235 11.7648C204.547 12.0775 205.055 12.0775 205.367 11.7648L206.5 10.632L207.632 11.7648C207.945 12.0775 208.452 12.0775 208.765 11.7648C209.078 11.452 209.078 10.9457 208.765 10.6329L207.633 9.49914L208.765 8.36731C209.078 8.05454 209.078 7.54726 208.765 7.23449C208.452 6.92199 207.945 6.92182 207.632 7.23449L206.5 8.36633L205.367 7.23449Z" fill="#0ABF00"/>
<path d="M200.367 5.23449C200.055 4.92183 199.547 4.92184 199.235 5.23449C198.922 5.54724 198.922 6.05454 199.235 6.36731L200.367 7.49914L199.235 8.63293C198.922 8.94562 198.922 9.45205 199.235 9.76477C199.547 10.0775 200.055 10.0775 200.367 9.76477L201.5 8.63196L202.632 9.76477C202.945 10.0775 203.452 10.0775 203.765 9.76477C204.078 9.45201 204.078 8.94567 203.765 8.63293L202.633 7.49914L203.765 6.36731C204.078 6.05454 204.078 5.54726 203.765 5.23449C203.452 4.92199 202.945 4.92182 202.632 5.23449L201.5 6.36633L200.367 5.23449Z" fill="#0ABF00"/>
<path d="M195.367 5.23449C195.055 4.92183 194.547 4.92184 194.235 5.23449C193.922 5.54724 193.922 6.05454 194.235 6.36731L195.367 7.49914L194.235 8.63293C193.922 8.94562 193.922 9.45205 194.235 9.76477C194.547 10.0775 195.055 10.0775 195.367 9.76477L196.5 8.63196L197.632 9.76477C197.945 10.0775 198.452 10.0775 198.765 9.76477C199.078 9.45201 199.078 8.94567 198.765 8.63293L197.633 7.49914L198.765 6.36731C199.078 6.05454 199.078 5.54726 198.765 5.23449C198.452 4.92199 197.945 4.92182 197.632 5.23449L196.5 6.36633L195.367 5.23449Z" fill="#0ABF00"/>
<path d="M190.367 5.23449C190.055 4.92183 189.547 4.92184 189.235 5.23449C188.922 5.54724 188.922 6.05454 189.235 6.36731L190.367 7.49914L189.235 8.63293C188.922 8.94562 188.922 9.45205 189.235 9.76477C189.547 10.0775 190.055 10.0775 190.367 9.76477L191.5 8.63196L192.632 9.76477C192.945 10.0775 193.452 10.0775 193.765 9.76477C194.078 9.45201 194.078 8.94567 193.765 8.63293L192.633 7.49914L193.765 6.36731C194.078 6.05454 194.078 5.54726 193.765 5.23449C193.452 4.92199 192.945 4.92182 192.632 5.23449L191.5 6.36633L190.367 5.23449Z" fill="#0ABF00"/>
<path d="M185.367 7.23449C185.055 6.92183 184.547 6.92184 184.235 7.23449C183.922 7.54724 183.922 8.05454 184.235 8.36731L185.367 9.49914L184.235 10.6329C183.922 10.9456 183.922 11.4521 184.235 11.7648C184.547 12.0775 185.055 12.0775 185.367 11.7648L186.5 10.632L187.632 11.7648C187.945 12.0775 188.452 12.0775 188.765 11.7648C189.078 11.452 189.078 10.9457 188.765 10.6329L187.633 9.49914L188.765 8.36731C189.078 8.05454 189.078 7.54726 188.765 7.23449C188.452 6.92199 187.945 6.92182 187.632 7.23449L186.5 8.36633L185.367 7.23449Z" fill="#0ABF00"/>
<path d="M190.367 11.2345C190.055 10.9218 189.547 10.9218 189.235 11.2345C188.922 11.5472 188.922 12.0545 189.235 12.3673L190.367 13.4991L189.235 14.6329C188.922 14.9456 188.922 15.4521 189.235 15.7648C189.547 16.0775 190.055 16.0775 190.367 15.7648L191.5 14.632L192.632 15.7648C192.945 16.0775 193.452 16.0775 193.765 15.7648C194.078 15.452 194.078 14.9457 193.765 14.6329L192.633 13.4991L193.765 12.3673C194.078 12.0545 194.078 11.5473 193.765 11.2345C193.452 10.922 192.945 10.9218 192.632 11.2345L191.5 12.3663L190.367 11.2345Z" fill="#0ABF00"/>
<path d="M193.367 16.2345C193.055 15.9218 192.547 15.9218 192.235 16.2345C191.922 16.5472 191.922 17.0545 192.235 17.3673L193.367 18.4991L192.235 19.6329C191.922 19.9456 191.922 20.4521 192.235 20.7648C192.547 21.0775 193.055 21.0775 193.367 20.7648L194.5 19.632L195.632 20.7648C195.945 21.0775 196.452 21.0775 196.765 20.7648C197.078 20.452 197.078 19.9457 196.765 19.6329L195.633 18.4991L196.765 17.3673C197.078 17.0545 197.078 16.5473 196.765 16.2345C196.452 15.922 195.945 15.9218 195.632 16.2345L194.5 17.3663L193.367 16.2345Z" fill="#0ABF00"/>
<path d="M188.367 18.2345C188.055 17.9218 187.547 17.9218 187.235 18.2345C186.922 18.5472 186.922 19.0545 187.235 19.3673L188.367 20.4991L187.235 21.6329C186.922 21.9456 186.922 22.4521 187.235 22.7648C187.547 23.0775 188.055 23.0775 188.367 22.7648L189.5 21.632L190.632 22.7648C190.945 23.0775 191.452 23.0775 191.765 22.7648C192.078 22.452 192.078 21.9457 191.765 21.6329L190.633 20.4991L191.765 19.3673C192.078 19.0545 192.078 18.5473 191.765 18.2345C191.452 17.922 190.945 17.9218 190.632 18.2345L189.5 19.3663L188.367 18.2345Z" fill="#0ABF00"/>
<path d="M183.367 16.2345C183.055 15.9218 182.547 15.9218 182.235 16.2345C181.922 16.5472 181.922 17.0545 182.235 17.3673L183.367 18.4991L182.235 19.6329C181.922 19.9456 181.922 20.4521 182.235 20.7648C182.547 21.0775 183.055 21.0775 183.367 20.7648L184.5 19.632L185.632 20.7648C185.945 21.0775 186.452 21.0775 186.765 20.7648C187.078 20.452 187.078 19.9457 186.765 19.6329L185.633 18.4991L186.765 17.3673C187.078 17.0545 187.078 16.5473 186.765 16.2345C186.452 15.922 185.945 15.9218 185.632 16.2345L184.5 17.3663L183.367 16.2345Z" fill="#0ABF00"/>
<path d="M180.367 10.2345C180.055 9.92182 179.547 9.92184 179.235 10.2345C178.922 10.5472 178.922 11.0545 179.235 11.3673L180.367 12.4991L179.235 13.6329C178.922 13.9456 178.922 14.4521 179.235 14.7648C179.547 15.0775 180.055 15.0775 180.367 14.7648L181.5 13.632L182.632 14.7648C182.945 15.0775 183.452 15.0775 183.765 14.7648C184.078 14.452 184.078 13.9457 183.765 13.6329L182.633 12.4991L183.765 11.3673C184.078 11.0545 184.078 10.5473 183.765 10.2345C183.452 9.92199 182.945 9.92182 182.632 10.2345L181.5 11.3663L180.367 10.2345Z" fill="#0ABF00"/>
<path d="M180.367 0.234495C180.055 -0.0781746 179.547 -0.0781552 179.235 0.234495C178.922 0.547237 178.922 1.05454 179.235 1.36731L180.367 2.49914L179.235 3.63293C178.922 3.94563 178.922 4.45205 179.235 4.76477C179.547 5.07753 180.055 5.07753 180.367 4.76477L181.5 3.63196L182.632 4.76477C182.945 5.07753 183.452 5.07753 183.765 4.76477C184.078 4.45201 184.078 3.94567 183.765 3.63293L182.633 2.49914L183.765 1.36731C184.078 1.05454 184.078 0.547258 183.765 0.234495C183.452 -0.0780079 182.945 -0.0781815 182.632 0.234495L181.5 1.36633L180.367 0.234495Z" fill="#0ABF00"/>
<path d="M175.367 2.23449C175.055 1.92183 174.547 1.92184 174.235 2.23449C173.922 2.54724 173.922 3.05454 174.235 3.36731L175.367 4.49914L174.235 5.63293C173.922 5.94563 173.922 6.45205 174.235 6.76477C174.547 7.07753 175.055 7.07753 175.367 6.76477L176.5 5.63196L177.632 6.76477C177.945 7.07753 178.452 7.07753 178.765 6.76477C179.078 6.45201 179.078 5.94567 178.765 5.63293L177.633 4.49914L178.765 3.36731C179.078 3.05454 179.078 2.54726 178.765 2.23449C178.452 1.92199 177.945 1.92182 177.632 2.23449L176.5 3.36633L175.367 2.23449Z" fill="#0ABF00"/>
<path d="M175.367 7.23449C175.055 6.92183 174.547 6.92184 174.235 7.23449C173.922 7.54724 173.922 8.05454 174.235 8.36731L175.367 9.49914L174.235 10.6329C173.922 10.9456 173.922 11.4521 174.235 11.7648C174.547 12.0775 175.055 12.0775 175.367 11.7648L176.5 10.632L177.632 11.7648C177.945 12.0775 178.452 12.0775 178.765 11.7648C179.078 11.452 179.078 10.9457 178.765 10.6329L177.633 9.49914L178.765 8.36731C179.078 8.05454 179.078 7.54726 178.765 7.23449C178.452 6.92199 177.945 6.92182 177.632 7.23449L176.5 8.36633L175.367 7.23449Z" fill="#0ABF00"/>
<path d="M175.367 12.2345C175.055 11.9218 174.547 11.9218 174.235 12.2345C173.922 12.5472 173.922 13.0545 174.235 13.3673L175.367 14.4991L174.235 15.6329C173.922 15.9456 173.922 16.4521 174.235 16.7648C174.547 17.0775 175.055 17.0775 175.367 16.7648L176.5 15.632L177.632 16.7648C177.945 17.0775 178.452 17.0775 178.765 16.7648C179.078 16.452 179.078 15.9457 178.765 15.6329L177.633 14.4991L178.765 13.3673C179.078 13.0545 179.078 12.5473 178.765 12.2345C178.452 11.922 177.945 11.9218 177.632 12.2345L176.5 13.3663L175.367 12.2345Z" fill="#0ABF00"/>
<path d="M170.367 7.23449C170.055 6.92183 169.547 6.92184 169.235 7.23449C168.922 7.54724 168.922 8.05454 169.235 8.36731L170.367 9.49914L169.235 10.6329C168.922 10.9456 168.922 11.4521 169.235 11.7648C169.547 12.0775 170.055 12.0775 170.367 11.7648L171.5 10.632L172.632 11.7648C172.945 12.0775 173.452 12.0775 173.765 11.7648C174.078 11.452 174.078 10.9457 173.765 10.6329L172.633 9.49914L173.765 8.36731C174.078 8.05454 174.078 7.54726 173.765 7.23449C173.452 6.92199 172.945 6.92182 172.632 7.23449L171.5 8.36633L170.367 7.23449Z" fill="#0ABF00"/>
<path d="M170.367 12.2345C170.055 11.9218 169.547 11.9218 169.235 12.2345C168.922 12.5472 168.922 13.0545 169.235 13.3673L170.367 14.4991L169.235 15.6329C168.922 15.9456 168.922 16.4521 169.235 16.7648C169.547 17.0775 170.055 17.0775 170.367 16.7648L171.5 15.632L172.632 16.7648C172.945 17.0775 173.452 17.0775 173.765 16.7648C174.078 16.452 174.078 15.9457 173.765 15.6329L172.633 14.4991L173.765 13.3673C174.078 13.0545 174.078 12.5473 173.765 12.2345C173.452 11.922 172.945 11.9218 172.632 12.2345L171.5 13.3663L170.367 12.2345Z" fill="#0ABF00"/>
<path d="M220.367 13.2345C220.055 12.9218 219.547 12.9218 219.235 13.2345C218.922 13.5472 218.922 14.0545 219.235 14.3673L220.367 15.4991L219.235 16.6329C218.922 16.9456 218.922 17.4521 219.235 17.7648C219.547 18.0775 220.055 18.0775 220.367 17.7648L221.5 16.632L222.632 17.7648C222.945 18.0775 223.452 18.0775 223.765 17.7648C224.078 17.452 224.078 16.9457 223.765 16.6329L222.633 15.4991L223.765 14.3673C224.078 14.0545 224.078 13.5473 223.765 13.2345C223.452 12.922 222.945 12.9218 222.632 13.2345L221.5 14.3663L220.367 13.2345Z" fill="#0ABF00"/>
</svg>
