<svg width="35" height="39" viewBox="0 0 35 39" fill="none" xmlns="http://www.w3.org/2000/svg">
<path d="M31.0753 18.2842C30.8179 18.0266 30.8178 17.6091 31.0753 17.3516C31.3329 17.0943 31.7504 17.0942 32.0079 17.3516L32.9406 18.2852L33.8732 17.3516C34.1308 17.0941 34.5492 17.0941 34.8068 17.3516C35.0643 17.6092 35.0643 18.0276 34.8068 18.2852L33.8732 19.2178L34.8068 20.1504C35.064 20.408 35.064 20.8255 34.8068 21.0831C34.5492 21.3406 34.1308 21.3406 33.8732 21.0831L32.9406 20.1514L32.0079 21.0831C31.7504 21.3406 31.3329 21.3406 31.0753 21.0831C30.8178 20.8255 30.8178 20.408 31.0753 20.1504L32.0079 19.2178L31.0753 18.2842Z" fill="#262626"/>
<path d="M27.6446 18.2853C27.3871 18.0278 27.3872 17.6103 27.6446 17.3527C27.9022 17.0951 28.3197 17.0951 28.5772 17.3527L29.5089 18.2853L30.4425 17.3517C30.7001 17.0941 31.1185 17.0942 31.3761 17.3517C31.6337 17.6093 31.6337 18.0277 31.3761 18.2853L30.4425 19.2179L31.3761 20.1505C31.6335 20.408 31.6333 20.8256 31.3761 21.0832C31.1185 21.3407 30.7001 21.3407 30.4425 21.0832L29.5099 20.1515L28.5772 21.0832C28.3197 21.3407 27.9022 21.3407 27.6446 21.0832C27.3871 20.8256 27.3871 20.4081 27.6446 20.1505L28.5763 19.2179L27.6446 18.2853Z" fill="#262626"/>
<path d="M24.2149 18.2857C23.9573 18.0281 23.9573 17.6097 24.2149 17.3521C24.4725 17.0949 24.8901 17.0947 25.1475 17.3521L26.0802 18.2857L27.0128 17.3521C27.2703 17.0946 27.6878 17.0947 27.9454 17.3521C28.203 17.6097 28.203 18.0271 27.9454 18.2847L27.0118 19.2183L27.9454 20.1509C28.203 20.4085 28.203 20.8259 27.9454 21.0835C27.6878 21.341 27.2703 21.3411 27.0128 21.0835L26.0792 20.1509L25.1475 21.0835C24.8901 21.341 24.4725 21.3408 24.2149 21.0835C23.9573 20.8259 23.9573 20.4085 24.2149 20.1509L25.1466 19.2183L24.2149 18.2857Z" fill="#262626"/>
<path d="M20.7818 18.2823C20.5242 18.0247 20.5242 17.6073 20.7818 17.3497C21.0394 17.0925 21.457 17.0922 21.7144 17.3497L22.6471 18.2833L23.5797 17.3497C23.8372 17.0924 24.2547 17.0925 24.5123 17.3497C24.7699 17.6073 24.7699 18.0257 24.5123 18.2833L23.5797 19.2159L24.5123 20.1485C24.7699 20.4061 24.7699 20.8236 24.5123 21.0812C24.2547 21.3386 23.8372 21.3387 23.5797 21.0812L22.6471 20.1485L21.7144 21.0812C21.4569 21.3387 21.0394 21.3386 20.7818 21.0812C20.5242 20.8236 20.5242 20.4061 20.7818 20.1485L21.7144 19.2159L20.7818 18.2823Z" fill="#262626"/>
<path d="M17.3512 18.2857C17.0936 18.0281 17.0936 17.6097 17.3512 17.3521C17.6088 17.0949 18.0264 17.0947 18.2838 17.3521L19.2164 18.2857L20.149 17.3521C20.4066 17.0946 20.8241 17.0947 21.0817 17.3521C21.3392 17.6097 21.3392 18.0271 21.0817 18.2847L20.1481 19.2183L21.0817 20.1509C21.3392 20.4085 21.3392 20.8259 21.0817 21.0835C20.8241 21.341 20.4066 21.3411 20.149 21.0835L19.2154 20.1509L18.2838 21.0835C18.0263 21.341 17.6088 21.3408 17.3512 21.0835C17.0936 20.8259 17.0936 20.4085 17.3512 20.1509L18.2828 19.2183L17.3512 18.2857Z" fill="#262626"/>
<path d="M13.9187 18.2827C13.6611 18.0252 13.6612 17.6077 13.9187 17.3501C14.1763 17.0925 14.5937 17.0925 14.8513 17.3501L15.7839 18.2827L16.7165 17.3501C16.9741 17.0926 17.3925 17.0926 17.6501 17.3501C17.9077 17.6077 17.9077 18.0261 17.6501 18.2837L16.7175 19.2163L17.6501 20.148C17.9077 20.4056 17.9077 20.824 17.6501 21.0816C17.3925 21.3391 16.9741 21.3391 16.7165 21.0816L15.7839 20.1499L14.8513 21.0816C14.5937 21.3392 14.1763 21.3392 13.9187 21.0816C13.6612 20.824 13.6611 20.4065 13.9187 20.149L14.8513 19.2163L13.9187 18.2827Z" fill="#262626"/>
<path d="M10.4872 18.2823C10.2297 18.0247 10.2297 17.6072 10.4872 17.3497C10.7448 17.0923 11.1623 17.0922 11.4199 17.3497L12.3525 18.2833L13.2851 17.3497C13.5427 17.0921 13.9611 17.0921 14.2187 17.3497C14.4762 17.6073 14.4762 18.0257 14.2187 18.2833L13.2851 19.2159L14.2187 20.1485C14.4759 20.4061 14.4759 20.8236 14.2187 21.0811C13.9611 21.3387 13.5427 21.3387 13.2851 21.0811L12.3525 20.1495L11.4199 21.0811C11.1623 21.3387 10.7448 21.3387 10.4872 21.0811C10.2297 20.8235 10.2297 20.4061 10.4872 20.1485L11.4199 19.2159L10.4872 18.2823Z" fill="#262626"/>
<path d="M20.7829 14.8521C20.5255 14.5945 20.5254 14.177 20.7829 13.9195C21.0404 13.6622 21.458 13.6621 21.7155 13.9195L22.6481 14.8531L23.5808 13.9205C23.8383 13.6629 24.2568 13.6629 24.5143 13.9205C24.7715 14.1781 24.7718 14.5956 24.5143 14.8531L23.5808 15.7857L24.5143 16.7183C24.7716 16.9759 24.7717 17.3934 24.5143 17.6509C24.2568 17.9085 23.8383 17.9085 23.5808 17.6509L22.6481 16.7193L21.7155 17.6509C21.4579 17.9085 21.0405 17.9085 20.7829 17.6509C20.5254 17.3933 20.5253 16.9759 20.7829 16.7183L21.7155 15.7857L20.7829 14.8521Z" fill="#262626"/>
<path d="M17.35 14.8507C17.0925 14.5931 17.0924 14.1756 17.35 13.9181C17.6075 13.6607 18.0251 13.6606 18.2826 13.9181L19.2152 14.8517L20.1478 13.9181C20.4054 13.6605 20.8238 13.6605 21.0814 13.9181C21.339 14.1756 21.3389 14.5941 21.0814 14.8517L20.1478 15.7843L21.0814 16.7169C21.3386 16.9744 21.3387 17.392 21.0814 17.6495C20.8238 17.9071 20.4054 17.9071 20.1478 17.6495L19.2152 16.7179L18.2826 17.6495C18.025 17.9071 17.6076 17.9071 17.35 17.6495C17.0924 17.3919 17.0924 16.9745 17.35 16.7169L18.2826 15.7843L17.35 14.8507Z" fill="#262626"/>
<path d="M13.9201 14.8521C13.6628 14.5945 13.6626 14.177 13.9201 13.9195C14.1777 13.6621 14.5952 13.6622 14.8528 13.9195L15.7854 14.8531L16.719 13.9205C16.9766 13.6629 17.394 13.6629 17.6516 13.9205C17.9088 14.1781 17.909 14.5956 17.6516 14.8531L16.718 15.7857L17.6516 16.7183C17.9089 16.9759 17.9089 17.3934 17.6516 17.6509C17.3941 17.9084 16.9766 17.9083 16.719 17.6509L15.7854 16.7183L14.8528 17.6509C14.5952 17.9085 14.1777 17.9085 13.9201 17.6509C13.6626 17.3933 13.6626 16.9759 13.9201 16.7183L14.8528 15.7857L13.9201 14.8521Z" fill="#262626"/>
<path d="M10.489 14.8521C10.2316 14.5945 10.2315 14.177 10.489 13.9195C10.7465 13.6621 11.1641 13.6622 11.4216 13.9195L12.3542 14.8531L13.2878 13.9205C13.5454 13.6629 13.9629 13.6629 14.2204 13.9205C14.4777 14.1781 14.4779 14.5956 14.2204 14.8531L13.2869 15.7857L14.2204 16.7183C14.4778 16.9759 14.4778 17.3934 14.2204 17.6509C13.9629 17.9084 13.5454 17.9083 13.2878 17.6509L12.3542 16.7183L11.4216 17.6509C11.164 17.9085 10.7466 17.9085 10.489 17.6509C10.2315 17.3933 10.2315 16.9759 10.489 16.7183L11.4216 15.7857L10.489 14.8521Z" fill="#262626"/>
<path d="M20.7812 21.7131C20.5236 21.4555 20.5236 21.038 20.7812 20.7805C21.0388 20.5231 21.4563 20.5229 21.7138 20.7805L22.6464 21.714L23.579 20.7805C23.8365 20.523 24.254 20.5232 24.5116 20.7805C24.7692 21.038 24.7692 21.4565 24.5116 21.714L23.579 22.6467L24.5116 23.5793C24.7692 23.8369 24.7692 24.2543 24.5116 24.5119C24.254 24.7692 23.8365 24.7694 23.579 24.5119L22.6464 23.5793L21.7138 24.5119C21.4562 24.7694 21.0388 24.7694 20.7812 24.5119C20.5236 24.2543 20.5236 23.8369 20.7812 23.5793L21.7138 22.6467L20.7812 21.7131Z" fill="#262626"/>
<path d="M17.3517 21.7147C17.0942 21.4571 17.0942 21.0387 17.3517 20.7811C17.6093 20.5238 18.0268 20.5239 18.2844 20.7811L19.217 21.7147L20.1506 20.7821C20.4082 20.5245 20.8256 20.5245 21.0832 20.7821C21.3405 21.0397 21.3406 21.4572 21.0832 21.7147L20.1496 22.6473L21.0832 23.5799C21.3406 23.8374 21.3405 24.255 21.0832 24.5125C20.8256 24.7701 20.4082 24.77 20.1506 24.5125L19.217 23.5799L18.2844 24.5125C18.0268 24.7701 17.6093 24.7701 17.3517 24.5125C17.0943 24.2549 17.0942 23.8374 17.3517 23.5799L18.2844 22.6473L17.3517 21.7147Z" fill="#262626"/>
<path d="M13.9179 21.7131C13.6603 21.4555 13.6603 21.038 13.9179 20.7804C14.1755 20.5231 14.593 20.5229 14.8505 20.7804L15.7832 21.714L16.7158 20.7804C16.9732 20.523 17.3908 20.5232 17.6484 20.7804C17.906 21.038 17.906 21.4565 17.6484 21.714L16.7158 22.6467L17.6484 23.5793C17.906 23.8369 17.906 24.2543 17.6484 24.5119C17.3908 24.7692 16.9733 24.7694 16.7158 24.5119L15.7832 23.5793L14.8505 24.5119C14.593 24.7694 14.1755 24.7694 13.9179 24.5119C13.6603 24.2543 13.6603 23.8369 13.9179 23.5793L14.8505 22.6467L13.9179 21.7131Z" fill="#262626"/>
<path d="M17.3499 25.1449C17.0924 24.8873 17.0924 24.4699 17.3499 24.2123C17.6075 23.955 18.025 23.9549 18.2825 24.2123L19.2151 25.1459L20.1478 24.2123C20.4054 23.9547 20.8238 23.9547 21.0814 24.2123C21.3386 24.4698 21.3385 24.8874 21.0814 25.1449L20.1478 26.0785L21.0814 27.0111C21.3386 27.2687 21.3386 27.6863 21.0814 27.9438C20.8238 28.2013 20.4054 28.2013 20.1478 27.9438L19.2151 27.0111L18.2825 27.9438C18.025 28.2012 17.6075 28.2011 17.3499 27.9438C17.0924 27.6862 17.0924 27.2687 17.3499 27.0111L18.2825 26.0785L17.3499 25.1449Z" fill="#262626"/>
<path d="M13.9192 25.145C13.6617 24.8874 13.6616 24.4699 13.9192 24.2124C14.1767 23.955 14.5942 23.955 14.8518 24.2124L15.7844 25.146L16.717 24.2134C16.9746 23.9558 17.393 23.9559 17.6506 24.2134C17.9082 24.471 17.9082 24.8894 17.6506 25.147L16.718 26.0796L17.6506 27.0112C17.9079 27.2688 17.908 27.6863 17.6506 27.9438C17.393 28.2014 16.9746 28.2014 16.717 27.9438L15.7844 27.0122L14.8518 27.9448C14.5942 28.2024 14.1768 28.2024 13.9192 27.9448C13.6616 27.6872 13.6616 27.2698 13.9192 27.0122L14.8518 26.0786L13.9192 25.145Z" fill="#262626"/>
<path d="M17.3517 11.4208C17.0942 11.1632 17.0942 10.7448 17.3517 10.4872C17.6092 10.23 18.0268 10.23 18.2844 10.4872L19.217 11.4208L20.1506 10.4882C20.4082 10.2307 20.8256 10.2306 21.0832 10.4882C21.3405 10.7458 21.3406 11.1633 21.0832 11.4208L20.1496 12.3534L21.0832 13.286C21.3406 13.5435 21.3405 13.9611 21.0832 14.2186C20.8256 14.4762 20.4082 14.4761 20.1506 14.2186L19.217 13.286L18.2844 14.2186C18.0268 14.4762 17.6093 14.4762 17.3517 14.2186C17.0944 13.961 17.0942 13.5435 17.3517 13.286L18.2844 12.3534L17.3517 11.4208Z" fill="#262626"/>
<path d="M15.6346 7.98754C15.377 7.72999 15.3771 7.31252 15.6346 7.05492C15.8922 6.79734 16.3096 6.79734 16.5672 7.05492L17.4998 7.98754L18.4324 7.05492C18.69 6.79734 19.1084 6.79734 19.366 7.05492C19.6236 7.31251 19.6236 7.73094 19.366 7.98852L18.4334 8.92114L19.366 9.85278C19.6234 10.1102 19.6232 10.5278 19.366 10.7854C19.1084 11.043 18.69 11.043 18.4324 10.7854L17.4998 9.85375L16.5672 10.7864C16.3096 11.0439 15.8922 11.0439 15.6346 10.7864C15.377 10.5288 15.377 10.1113 15.6346 9.85375L16.5672 8.92114L15.6346 7.98754Z" fill="#262626"/>
<path d="M15.6353 4.55821C15.3777 4.30063 15.3777 3.8822 15.6353 3.62462C15.8927 3.36723 16.3103 3.3674 16.5679 3.62462L17.5005 4.55821L18.4341 3.62559C18.6917 3.36801 19.1091 3.36801 19.3667 3.62559C19.624 3.8832 19.6242 4.30071 19.3667 4.55821L18.4331 5.49083L19.3667 6.42345C19.6242 6.68101 19.6242 7.0985 19.3667 7.35606C19.1091 7.61362 18.6917 7.61357 18.4341 7.35606L17.5005 6.42345L16.5679 7.35606C16.3103 7.61363 15.8928 7.61364 15.6353 7.35606C15.3779 7.09846 15.3778 6.68095 15.6353 6.42345L16.5679 5.49083L15.6353 4.55821Z" fill="#262626"/>
<path d="M15.6344 1.12581C15.3769 0.868274 15.377 0.450789 15.6344 0.19319C15.892 -0.0643966 16.3094 -0.0643966 16.567 0.19319L17.4996 1.12678L18.4332 0.19319C18.6908 -0.0639739 19.1084 -0.0642032 19.3658 0.19319C19.6234 0.450776 19.6234 0.869197 19.3658 1.12678L18.4332 2.0594L19.3658 2.99104C19.6233 3.24852 19.6231 3.66605 19.3658 3.92366C19.1083 4.18124 18.6908 4.18123 18.4332 3.92366L17.5006 2.99202L16.567 3.92464C16.3094 4.18221 15.892 4.18222 15.6344 3.92464C15.3769 3.66705 15.3769 3.24959 15.6344 2.99202L16.567 2.0594L15.6344 1.12581Z" fill="#262626"/>
<path d="M15.6359 35.438C15.3784 35.1804 15.3783 34.763 15.6359 34.5054C15.8934 34.2479 16.3109 34.248 16.5685 34.5054L17.5021 35.439L18.4347 34.5064C18.6923 34.2492 19.1098 34.2489 19.3673 34.5064C19.6248 34.7639 19.6246 35.1814 19.3673 35.439L18.4347 36.3716L19.3673 37.3042C19.6246 37.5619 19.6248 37.9794 19.3673 38.2369C19.1098 38.4944 18.6923 38.4942 18.4347 38.2369L17.5021 37.3042L16.5685 38.2378C16.3109 38.4954 15.8934 38.4954 15.6359 38.2378C15.3783 37.9803 15.3784 37.5628 15.6359 37.3052L16.5695 36.3716L15.6359 35.438Z" fill="#262626"/>
<path d="M15.6346 32.008C15.377 31.7505 15.377 31.332 15.6346 31.0744C15.8921 30.8172 16.3097 30.8172 16.5672 31.0744L17.5008 32.008L18.4324 31.0764C18.69 30.8188 19.1084 30.8188 19.366 31.0764C19.6232 31.334 19.6234 31.7515 19.366 32.009L18.4334 32.9416L19.366 33.8733C19.6233 34.1308 19.6233 34.5484 19.366 34.8059C19.1084 35.0635 18.69 35.0635 18.4324 34.8059L17.4998 33.8743L16.5672 34.8069C16.3096 35.0645 15.8921 35.0645 15.6346 34.8069C15.3771 34.5493 15.377 34.1318 15.6346 33.8743L16.5672 32.9416L15.6346 32.008Z" fill="#262626"/>
<path d="M15.6362 28.5772C15.3787 28.3196 15.3787 27.9021 15.6362 27.6445C15.8938 27.387 16.3113 27.387 16.5689 27.6445L17.5015 28.5781L18.4341 27.6445C18.6916 27.3872 19.1091 27.3874 19.3667 27.6445C19.6243 27.9021 19.6243 28.3205 19.3667 28.5781L18.4341 29.5107L19.3667 30.4424C19.6243 30.7 19.6243 31.1174 19.3667 31.375C19.1091 31.6326 18.6917 31.6326 18.4341 31.375L17.5015 30.4434L16.5689 31.376C16.3113 31.6335 15.8938 31.6335 15.6362 31.376C15.3787 31.1184 15.3787 30.701 15.6362 30.4434L16.5689 29.5107L15.6362 28.5772Z" fill="#262626"/>
<path d="M13.918 11.4192C13.6604 11.1616 13.6604 10.7442 13.918 10.4866C14.1756 10.229 14.593 10.229 14.8506 10.4866L15.7832 11.4202L16.7158 10.4866C16.9733 10.2292 17.3908 10.2294 17.6484 10.4866C17.906 10.7442 17.906 11.1626 17.6484 11.4202L16.7158 12.3528L17.6484 13.2844C17.906 13.542 17.906 13.9595 17.6484 14.2171C17.3908 14.4746 16.9734 14.4746 16.7158 14.2171L15.7832 13.2854L14.8506 14.218C14.593 14.4756 14.1756 14.4755 13.918 14.218C13.6604 13.9605 13.6604 13.543 13.918 13.2854L14.8506 12.3528L13.918 11.4192Z" fill="#262626"/>
<path d="M10.487 21.7134C10.2295 21.4558 10.2296 21.0384 10.487 20.7808C10.7446 20.5232 11.1621 20.5232 11.4197 20.7808L12.3523 21.7144L13.2859 20.7808C13.5435 20.5237 13.9611 20.5234 14.2185 20.7808C14.4761 21.0383 14.4761 21.4568 14.2185 21.7144L13.2859 22.647L14.2185 23.5786C14.4759 23.8361 14.4757 24.2536 14.2185 24.5112C13.9609 24.7688 13.5435 24.7688 13.2859 24.5112L12.3533 23.5796L11.4197 24.5122C11.1621 24.7698 10.7446 24.7698 10.487 24.5122C10.2295 24.2546 10.2295 23.8372 10.487 23.5796L11.4197 22.647L10.487 21.7134Z" fill="#262626"/>
<path d="M7.05661 18.2848C6.79911 18.0272 6.79905 17.6097 7.05661 17.3521C7.31419 17.0948 7.73172 17.0947 7.98923 17.3521L8.92185 18.2857L9.85446 17.3521C10.112 17.0946 10.5305 17.0946 10.7881 17.3521C11.0453 17.6097 11.0452 18.0272 10.7881 18.2848L9.85446 19.2184L10.7881 20.151C11.0452 20.4085 11.0453 20.8261 10.7881 21.0836C10.5305 21.3412 10.112 21.3412 9.85446 21.0836L8.92185 20.151L7.98923 21.0836C7.73172 21.341 7.31418 21.3409 7.05661 21.0836C6.79906 20.826 6.79914 20.4086 7.05661 20.151L7.98923 19.2184L7.05661 18.2848Z" fill="#262626"/>
<path d="M3.62597 18.2848C3.36848 18.0272 3.36842 17.6097 3.62597 17.3521C3.88355 17.0948 4.30108 17.0947 4.55859 17.3521L5.49121 18.2857L6.42383 17.3521C6.68141 17.0946 7.09983 17.0946 7.35742 17.3521C7.61465 17.6097 7.61462 18.0272 7.35742 18.2848L6.42383 19.2184L7.35742 20.151C7.6146 20.4085 7.61467 20.8261 7.35742 21.0836C7.09983 21.3412 6.68141 21.3412 6.42383 21.0836L5.49121 20.151L4.55859 21.0836C4.30108 21.341 3.88354 21.3409 3.62598 21.0836C3.36843 20.826 3.36851 20.4086 3.62598 20.151L4.55859 19.2184L3.62597 18.2848Z" fill="#262626"/>
<path d="M0.193135 18.2813C-0.0642427 18.0237 -0.0643821 17.6062 0.193135 17.3487C0.450662 17.0913 0.86819 17.0913 1.12575 17.3487L2.05935 18.2822L2.99196 17.3496C3.24955 17.0925 3.66713 17.0923 3.92458 17.3496C4.18217 17.6072 4.18217 18.0256 3.92458 18.2832L2.99196 19.2158L3.92458 20.1475C4.18191 20.405 4.18197 20.8226 3.92458 21.0801C3.66706 21.3376 3.24957 21.3375 2.99196 21.0801L2.05935 20.1485L1.12575 21.0811C0.868165 21.3387 0.450721 21.3387 0.193135 21.0811C-0.0643416 20.8235 -0.064415 20.406 0.193135 20.1485L1.12673 19.2149L0.193135 18.2813Z" fill="#262626"/>
</svg>
