<svg width="29" height="29" viewBox="0 0 29 29" fill="none" xmlns="http://www.w3.org/2000/svg">
<path d="M7.19766 8.20722C7.47294 7.93205 7.91948 7.93198 8.19473 8.20722C8.46969 8.48249 8.4698 8.9291 8.19473 9.20429L7.19668 10.2004L8.19375 11.1975C8.46903 11.4727 8.46903 11.9192 8.19375 12.1945C7.91847 12.4697 7.47193 12.4698 7.19668 12.1945L6.19961 11.1975L5.20352 12.1945C4.92824 12.4698 4.48172 12.4698 4.20644 12.1945C3.93138 11.9192 3.93124 11.4727 4.20644 11.1975L5.20254 10.2004L4.20644 9.20429C3.93119 8.92904 3.93124 8.48251 4.20644 8.20722C4.48172 7.93195 4.92824 7.93195 5.20352 8.20722L6.19961 9.20332L7.19766 8.20722Z" fill="#262626"/>
<path d="M5.20221 12.207C4.92692 11.9318 4.48137 11.9317 4.20611 12.207C3.93087 12.4822 3.93091 12.9278 4.20611 13.2031L5.20318 14.2001L4.20611 15.1972C3.93084 15.4725 3.93084 15.919 4.20611 16.1943C4.48133 16.4693 4.92696 16.4693 5.20221 16.1943L6.20025 15.1972L7.19635 16.1943C7.47163 16.4695 7.91815 16.4695 8.19342 16.1943C8.46869 15.919 8.46867 15.4725 8.19342 15.1972L7.19732 14.2001L8.19342 13.204C8.46865 12.9288 8.46856 12.4823 8.19342 12.207C7.91814 11.9317 7.47163 11.9317 7.19635 12.207L6.20025 13.2031L5.20221 12.207Z" fill="#262626"/>
<path d="M8.19411 17.2035C8.46934 16.9282 8.46937 16.4817 8.19411 16.2064C7.91884 15.9312 7.4723 15.9312 7.19703 16.2064L6.20094 17.2045L5.20289 16.2064C4.9277 15.9315 4.48202 15.9316 4.2068 16.2064C3.93152 16.4817 3.93152 16.9282 4.2068 17.2035L5.20387 18.2006L4.2068 19.1976C3.9316 19.4729 3.93158 19.9185 4.2068 20.1937C4.48208 20.469 4.92859 20.469 5.20387 20.1937L6.20094 19.1976L7.19703 20.1937C7.47231 20.469 7.91883 20.469 8.19411 20.1937C8.46895 19.9185 8.46894 19.4728 8.19411 19.1976L7.19703 18.2006L8.19411 17.2035Z" fill="#262626"/>
<path d="M11.1976 8.20747C11.4729 7.93219 11.9194 7.93219 12.1947 8.20747C12.4698 8.4827 12.4698 8.92831 12.1947 9.20356L11.1976 10.2006L12.1947 11.1977C12.4699 11.473 12.47 11.9195 12.1947 12.1948C11.9194 12.47 11.4729 12.47 11.1976 12.1948L10.2006 11.1977L9.20446 12.1948C8.92923 12.47 8.48268 12.4699 8.20739 12.1948C7.93212 11.9195 7.93212 11.473 8.20739 11.1977L9.20349 10.2006L8.20739 9.20356C7.93218 8.92828 7.93216 8.48273 8.20739 8.20747C8.48265 7.93221 8.9282 7.93225 9.20349 8.20747L10.2006 9.20356L11.1976 8.20747Z" fill="#262626"/>
<path d="M12.1954 17.2032C12.4706 16.9279 12.4707 16.4814 12.1954 16.2062C11.9201 15.9309 11.4736 15.9309 11.1983 16.2062L10.2022 17.2042L9.20418 16.2062C8.92899 15.9312 8.48332 15.9313 8.20809 16.2062C7.93281 16.4814 7.93281 16.9279 8.20809 17.2032L9.20516 18.2003L8.20809 19.1974C7.93289 19.4726 7.93284 19.9182 8.20809 20.1935C8.48334 20.4687 8.9289 20.4687 9.20418 20.1935L10.2022 19.1974L11.1983 20.1935C11.4736 20.4687 11.9201 20.4687 12.1954 20.1935C12.4702 19.9183 12.4702 19.4726 12.1954 19.1974L11.1983 18.2003L12.1954 17.2032Z" fill="#262626"/>
<path d="M19.1975 8.20722C19.4728 7.9321 19.9193 7.932 20.1946 8.20722C20.4696 8.48247 20.4696 8.92907 20.1946 9.20429L19.1965 10.2004L20.1936 11.1975C20.4689 11.4727 20.4689 11.9192 20.1936 12.1945C19.9183 12.4698 19.4718 12.4698 19.1965 12.1945L18.1995 11.1975L17.2034 12.1945C16.9281 12.4698 16.4816 12.4698 16.2063 12.1945C15.9313 11.9192 15.9311 11.4726 16.2063 11.1975L17.2024 10.2004L16.2063 9.20429C15.931 8.92902 15.931 8.4825 16.2063 8.20722C16.4816 7.93195 16.9281 7.93195 17.2034 8.20722L18.1995 9.20332L19.1975 8.20722Z" fill="#262626"/>
<path d="M20.1946 17.2034C20.4698 16.9281 20.4698 16.4816 20.1946 16.2063C19.9193 15.9312 19.4727 15.9311 19.1975 16.2063L18.2014 17.2043L17.2034 16.2063C16.9282 15.9315 16.4824 15.9315 16.2073 16.2063C15.932 16.4816 15.932 16.9281 16.2073 17.2034L17.2043 18.2004L16.2073 19.1975C15.932 19.4728 15.932 19.9193 16.2073 20.1946C16.4825 20.4695 16.9291 20.4697 17.2043 20.1946L18.2014 19.1985L19.1975 20.1946C19.4727 20.4696 19.9193 20.4696 20.1946 20.1946C20.4698 19.9194 20.4697 19.4728 20.1946 19.1975L19.1985 18.2014L20.1946 17.2034Z" fill="#262626"/>
<path d="M16.1936 7.19688C16.4689 7.47216 16.4689 7.91867 16.1936 8.19395C15.9184 8.46905 15.4728 8.46903 15.1975 8.19395L14.2005 7.19688L13.2034 8.19395C12.9281 8.46918 12.4816 8.46921 12.2063 8.19395C11.9311 7.91868 11.9311 7.47215 12.2063 7.19688L13.2034 6.19981L12.2063 5.20371C11.9311 4.92847 11.9312 4.48193 12.2063 4.20664C12.4816 3.93136 12.9281 3.93136 13.2034 4.20664L14.2005 5.20274L15.1975 4.20664C15.4728 3.93143 15.9184 3.93141 16.1936 4.20664C16.4689 4.4819 16.4688 4.92745 16.1936 5.20274L15.1975 6.19981L16.1936 7.19688Z" fill="#262626"/>
<path d="M20.1937 7.19723C20.4688 7.47252 20.4689 7.91907 20.1937 8.1943C19.9184 8.46932 19.4718 8.46935 19.1966 8.1943L18.2005 7.19625L17.2034 8.19332C16.9282 8.4686 16.4817 8.4686 16.2064 8.19332C15.9311 7.91804 15.9311 7.47152 16.2064 7.19625L17.2034 6.19918L16.2064 5.20309C15.9311 4.92781 15.9311 4.4813 16.2064 4.20602C16.4817 3.93102 16.9283 3.93083 17.2034 4.20602L18.2005 5.20211L19.1966 4.20602C19.4719 3.93075 19.9184 3.93077 20.1937 4.20602C20.469 4.4813 20.469 4.92781 20.1937 5.20309L19.1976 6.19918L20.1937 7.19723Z" fill="#262626"/>
<path d="M24.1946 19.1968C24.4696 19.472 24.4696 19.9186 24.1946 20.1938C23.9193 20.469 23.4728 20.4689 23.1975 20.1938L22.2004 19.1968L21.2034 20.1938C20.9281 20.4689 20.4815 20.469 20.2063 20.1938C19.9311 19.9186 19.9312 19.472 20.2063 19.1968L21.2034 18.1997L20.2063 17.2036C19.9311 16.9284 19.9313 16.4818 20.2063 16.2065C20.4816 15.9312 20.9281 15.9312 21.2034 16.2065L22.2004 17.2026L23.1975 16.2065C23.4728 15.9312 23.9193 15.9312 24.1946 16.2065C24.4693 16.4817 24.4693 16.9275 24.1946 17.2026L23.1975 18.1997L24.1946 19.1968Z" fill="#262626"/>
<path d="M12.1936 5.2039C12.4689 4.92862 12.4689 4.48211 12.1936 4.20683C11.9185 3.9321 11.4727 3.93216 11.1975 4.20683L10.2005 5.20488L9.2034 4.20683C8.9282 3.93175 8.48159 3.93185 8.20633 4.20683C7.93109 4.48207 7.93117 4.92861 8.20633 5.2039L9.2034 6.20195L8.20633 7.19804C7.93117 7.47333 7.93109 7.91987 8.20633 8.19511C8.48158 8.47025 8.92815 8.47024 9.2034 8.19511L10.2005 7.19902L11.1966 8.19511C11.4718 8.47031 11.9183 8.47017 12.1936 8.19511C12.4689 7.91983 12.4689 7.47332 12.1936 7.19804L11.1975 6.20097L12.1936 5.2039Z" fill="#262626"/>
<path d="M16.1942 23.1977C16.4693 23.473 16.4694 23.9196 16.1942 24.1948C15.9189 24.4698 15.4723 24.4698 15.1971 24.1948L14.201 23.1967L13.2039 24.1938C12.9286 24.4691 12.4821 24.4691 12.2069 24.1938C11.9316 23.9185 11.9316 23.472 12.2069 23.1967L13.2039 22.1997L12.2069 21.2036C11.9316 20.9283 11.9316 20.4818 12.2069 20.2065C12.4822 19.9315 12.9287 19.9313 13.2039 20.2065L14.201 21.2026L15.1971 20.2065C15.4724 19.9312 15.9189 19.9313 16.1942 20.2065C16.4694 20.4818 16.4694 20.9283 16.1942 21.2036L15.1981 22.1997L16.1942 23.1977Z" fill="#262626"/>
<path d="M16.1946 27.1968C16.4696 27.472 16.4696 27.9186 16.1946 28.1938C15.9193 28.469 15.4728 28.4689 15.1975 28.1938L14.2004 27.1968L13.2034 28.1938C12.9281 28.4689 12.4815 28.469 12.2063 28.1938C11.9311 27.9186 11.9312 27.472 12.2063 27.1968L13.2034 26.1997L12.2063 25.2036C11.9311 24.9284 11.9313 24.4818 12.2063 24.2065C12.4816 23.9312 12.9281 23.9312 13.2034 24.2065L14.2004 25.2026L15.1975 24.2065C15.4728 23.9312 15.9193 23.9312 16.1946 24.2065C16.4693 24.4817 16.4693 24.9275 16.1946 25.2026L15.1975 26.1997L16.1946 27.1968Z" fill="#262626"/>
<path d="M16.1937 3.19764C16.4689 3.47292 16.4689 3.91848 16.1937 4.19374C15.9184 4.46899 15.4729 4.46894 15.1976 4.19374L14.2005 3.19667L13.2034 4.19374C12.9282 4.46902 12.4816 4.46902 12.2064 4.19374C11.9312 3.91845 11.9311 3.47191 12.2064 3.19667L13.2034 2.1996L12.2064 1.2035C11.9311 0.928221 11.9311 0.481699 12.2064 0.206432C12.4816 -0.0688153 12.9282 -0.0688059 13.2034 0.206432L14.2005 1.20253L15.1976 0.206432C15.4728 -0.0686086 15.9184 -0.0686706 16.1937 0.206432C16.4689 0.481711 16.4689 0.928224 16.1937 1.2035L15.1976 2.1996L16.1937 3.19764Z" fill="#262626"/>
<path d="M4.19371 15.1975C4.46891 15.4728 4.46896 15.9193 4.19371 16.1946C3.91846 16.4698 3.4719 16.4698 3.19664 16.1946L2.19957 15.1966L1.2025 16.1936C0.927225 16.4689 0.481687 16.4689 0.20641 16.1936C-0.0687725 15.9183 -0.0688339 15.4728 0.20641 15.1975L1.20348 14.2005L0.20641 13.2034C-0.068822 12.9281 -0.0687842 12.4826 0.20641 12.2073C0.481682 11.932 0.927223 11.932 1.2025 12.2073L2.19957 13.2034L3.19664 12.2063C3.4719 11.9312 3.91846 11.9312 4.19371 12.2063C4.46896 12.4816 4.46889 12.9281 4.19371 13.2034L3.19664 14.2005L4.19371 15.1975Z" fill="#262626"/>
<path d="M28.1946 15.1971C28.4697 15.4723 28.4696 15.9189 28.1946 16.1942C27.9193 16.4694 27.4728 16.4694 27.1975 16.1942L26.2004 15.1971L25.2034 16.1942C24.9281 16.4693 24.4815 16.4694 24.2063 16.1942C23.9311 15.919 23.9312 15.4724 24.2063 15.1971L25.2034 14.2001L24.2063 13.204C23.9311 12.9288 23.9313 12.4822 24.2063 12.2069C24.4816 11.9316 24.9281 11.9316 25.2034 12.2069L26.2004 13.203L27.1975 12.2069C27.4728 11.9316 27.9193 11.9316 28.1946 12.2069C28.4693 12.4821 28.4693 12.9278 28.1946 13.203L27.1975 14.2001L28.1946 15.1971Z" fill="#262626"/>
<path d="M20.1941 23.1972C20.4691 23.4725 20.4691 23.9191 20.1941 24.1943C19.9189 24.4695 19.4723 24.4694 19.197 24.1943L18.1999 23.1972L17.2029 24.1943C16.9276 24.4694 16.481 24.4695 16.2058 24.1943C15.9306 23.9191 15.9308 23.4725 16.2058 23.1972L17.2029 22.2002L16.2058 21.2041C15.9306 20.9289 15.9308 20.4823 16.2058 20.207C16.4811 19.9317 16.9276 19.9317 17.2029 20.207L18.1999 21.2031L19.197 20.207C19.4723 19.9317 19.9188 19.9317 20.1941 20.207C20.4688 20.4822 20.4688 20.9279 20.1941 21.2031L19.197 22.2002L20.1941 23.1972Z" fill="#262626"/>
<path d="M12.1942 21.2059C12.4693 20.9308 12.4691 20.4841 12.1942 20.2088C11.9189 19.9336 11.4724 19.9336 11.1971 20.2088L10.2 21.2059L9.20297 20.2088C8.92769 19.9336 8.48118 19.9336 8.2059 20.2088C7.9308 20.4841 7.93068 20.9307 8.2059 21.2059L9.20297 22.203L8.2059 23.1991C7.93074 23.4743 7.93078 23.9209 8.2059 24.1961C8.48116 24.4714 8.92769 24.4714 9.20297 24.1961L10.2 23.2001L11.1971 24.1961C11.4724 24.4711 11.918 24.4712 12.1932 24.1961C12.4685 23.9209 12.4685 23.4744 12.1932 23.1991L11.1971 22.203L12.1942 21.2059Z" fill="#262626"/>
<path d="M23.1974 8.20677C23.4726 7.93166 23.9192 7.93165 24.1944 8.20677C24.4697 8.48201 24.4696 8.92856 24.1944 9.20385L23.1974 10.2009L24.1944 11.198C24.4694 11.4733 24.4696 11.9199 24.1944 12.1951C23.9192 12.4702 23.4726 12.47 23.1974 12.1951L22.2003 11.198L21.2032 12.1951C20.928 12.4697 20.4823 12.4698 20.2071 12.1951C19.9318 11.9198 19.9318 11.4733 20.2071 11.198L21.2032 10.2009L20.2061 9.20385C19.9312 8.92856 19.931 8.48196 20.2061 8.20677C20.4813 7.93159 20.9279 7.93179 21.2032 8.20677L22.2003 9.20385L23.1974 8.20677Z" fill="#262626"/>
<path d="M21.2044 12.2065C20.9293 11.9314 20.4827 11.9315 20.2074 12.2065C19.9321 12.4818 19.9322 12.9283 20.2074 13.2036L21.2044 14.2006L20.2074 15.1977C19.9321 15.473 19.9321 15.9195 20.2074 16.1948C20.4827 16.4699 20.9292 16.47 21.2044 16.1948L22.2015 15.1977L23.1976 16.1948C23.4728 16.47 23.9194 16.4698 24.1947 16.1948C24.4699 15.9195 24.4699 15.473 24.1947 15.1977L23.1986 14.2006L24.1947 13.2036C24.4697 12.9283 24.4698 12.4827 24.1947 12.2075C23.9194 11.9322 23.4729 11.9322 23.1976 12.2075L22.2015 13.2036L21.2044 12.2065Z" fill="#262626"/>
</svg>
