<svg width="336" height="23" viewBox="0 0 336 23" fill="none" xmlns="http://www.w3.org/2000/svg">
<path d="M169.632 20.7648C169.945 21.0775 170.452 21.0775 170.765 20.7648C171.078 20.4521 171.078 19.9448 170.765 19.632L169.632 18.5002L170.765 17.3664C171.077 17.0537 171.077 16.5473 170.765 16.2346C170.452 15.9218 169.945 15.9218 169.632 16.2346L168.499 17.3674L167.367 16.2346C167.055 15.9218 166.547 15.9218 166.235 16.2346C165.922 16.5473 165.922 17.0537 166.235 17.3664L167.366 18.5002L166.235 19.632C165.922 19.9448 165.922 20.4521 166.235 20.7648C166.547 21.0773 167.055 21.0775 167.367 20.7648L168.499 19.633L169.632 20.7648Z" fill="#0ABF00"/>
<path d="M169.632 5.76485C169.945 6.07752 170.452 6.0775 170.765 5.76485C171.078 5.45211 171.078 4.9448 170.765 4.63204L169.632 3.5002L170.765 2.36641C171.077 2.05372 171.077 1.54729 170.765 1.23457C170.452 0.921811 169.945 0.921811 169.632 1.23457L168.499 2.36739L167.367 1.23457C167.055 0.921811 166.547 0.921811 166.235 1.23457C165.922 1.54733 165.922 2.05367 166.235 2.36641L167.366 3.5002L166.235 4.63204C165.922 4.9448 165.922 5.45208 166.235 5.76485C166.547 6.07735 167.055 6.07752 167.367 5.76485L168.499 4.63301L169.632 5.76485Z" fill="#0ABF00"/>
<path d="M250.367 14.7649C250.055 15.0775 249.547 15.0775 249.235 14.7649C248.922 14.4521 248.922 13.9448 249.235 13.632L250.367 12.5002L249.235 11.3664C248.922 11.0537 248.922 10.5473 249.235 10.2346C249.547 9.92182 250.055 9.92182 250.367 10.2346L251.5 11.3674L252.632 10.2346C252.945 9.92182 253.452 9.92182 253.765 10.2346C254.078 10.5473 254.078 11.0537 253.765 11.3664L252.633 12.5002L253.765 13.632C254.078 13.9448 254.078 14.4521 253.765 14.7649C253.452 15.0774 252.945 15.0775 252.632 14.7649L251.5 13.633L250.367 14.7649Z" fill="#0ABF00"/>
<path d="M245.367 13.7649C245.055 14.0775 244.547 14.0775 244.235 13.7649C243.922 13.4521 243.922 12.9448 244.235 12.632L245.367 11.5002L244.235 10.3664C243.922 10.0537 243.922 9.5473 244.235 9.23458C244.547 8.92182 245.055 8.92182 245.367 9.23458L246.5 10.3674L247.632 9.23458C247.945 8.92182 248.452 8.92182 248.765 9.23458C249.078 9.54734 249.078 10.0537 248.765 10.3664L247.633 11.5002L248.765 12.632C249.078 12.9448 249.078 13.4521 248.765 13.7649C248.452 14.0774 247.945 14.0775 247.632 13.7649L246.5 12.633L245.367 13.7649Z" fill="#0ABF00"/>
<path d="M240.367 11.7649C240.055 12.0775 239.547 12.0775 239.235 11.7649C238.922 11.4521 238.922 10.9448 239.235 10.632L240.367 9.50021L239.235 8.36642C238.922 8.05372 238.922 7.54729 239.235 7.23458C239.547 6.92182 240.055 6.92182 240.367 7.23458L241.5 8.36739L242.632 7.23458C242.945 6.92182 243.452 6.92182 243.765 7.23458C244.078 7.54734 244.078 8.05368 243.765 8.36642L242.633 9.50021L243.765 10.632C244.078 10.9448 244.078 11.4521 243.765 11.7649C243.452 12.0774 242.945 12.0775 242.632 11.7649L241.5 10.633L240.367 11.7649Z" fill="#0ABF00"/>
<path d="M235.367 9.76485C235.055 10.0775 234.547 10.0775 234.235 9.76485C233.922 9.45211 233.922 8.94481 234.235 8.63204L235.367 7.50021L234.235 6.36642C233.922 6.05372 233.922 5.54729 234.235 5.23458C234.547 4.92182 235.055 4.92182 235.367 5.23458L236.5 6.36739L237.632 5.23458C237.945 4.92182 238.452 4.92182 238.765 5.23458C239.078 5.54734 239.078 6.05368 238.765 6.36642L237.633 7.50021L238.765 8.63204C239.078 8.9448 239.078 9.45209 238.765 9.76485C238.452 10.0774 237.945 10.0775 237.632 9.76485L236.5 8.63302L235.367 9.76485Z" fill="#0ABF00"/>
<path d="M272.367 14.7649C272.055 15.0775 271.547 15.0775 271.235 14.7649C270.922 14.4521 270.922 13.9448 271.235 13.632L272.367 12.5002L271.235 11.3664C270.922 11.0537 270.922 10.5473 271.235 10.2346C271.547 9.92182 272.055 9.92182 272.367 10.2346L273.5 11.3674L274.632 10.2346C274.945 9.92182 275.452 9.92182 275.765 10.2346C276.078 10.5473 276.078 11.0537 275.765 11.3664L274.633 12.5002L275.765 13.632C276.078 13.9448 276.078 14.4521 275.765 14.7649C275.452 15.0774 274.945 15.0775 274.632 14.7649L273.5 13.633L272.367 14.7649Z" fill="#0ABF00"/>
<path d="M287.368 19.7649C287.055 20.0775 286.548 20.0775 286.235 19.7649C285.922 19.4521 285.922 18.9448 286.235 18.632L287.368 17.5002L286.235 16.3664C285.923 16.0537 285.923 15.5473 286.235 15.2346C286.548 14.9218 287.055 14.9218 287.368 15.2346L288.501 16.3674L289.633 15.2346C289.945 14.9218 290.453 14.9218 290.765 15.2346C291.078 15.5473 291.078 16.0537 290.765 16.3664L289.634 17.5002L290.765 18.632C291.078 18.9448 291.078 19.4521 290.765 19.7649C290.453 20.0774 289.945 20.0775 289.633 19.7649L288.501 18.633L287.368 19.7649Z" fill="#0ABF00"/>
<path d="M292.368 22.7649C292.055 23.0775 291.548 23.0775 291.235 22.7649C290.922 22.4521 290.922 21.9448 291.235 21.632L292.368 20.5002L291.235 19.3664C290.923 19.0537 290.923 18.5473 291.235 18.2346C291.548 17.9218 292.055 17.9218 292.368 18.2346L293.501 19.3674L294.633 18.2346C294.945 17.9218 295.453 17.9218 295.765 18.2346C296.078 18.5473 296.078 19.0537 295.765 19.3664L294.634 20.5002L295.765 21.632C296.078 21.9448 296.078 22.4521 295.765 22.7649C295.453 23.0774 294.945 23.0775 294.633 22.7649L293.501 21.633L292.368 22.7649Z" fill="#0ABF00"/>
<path d="M297.368 22.7649C297.055 23.0775 296.548 23.0775 296.235 22.7649C295.922 22.4521 295.922 21.9448 296.235 21.632L297.368 20.5002L296.235 19.3664C295.923 19.0537 295.923 18.5473 296.235 18.2346C296.548 17.9218 297.055 17.9218 297.368 18.2346L298.501 19.3674L299.633 18.2346C299.945 17.9218 300.453 17.9218 300.765 18.2346C301.078 18.5473 301.078 19.0537 300.765 19.3664L299.634 20.5002L300.765 21.632C301.078 21.9448 301.078 22.4521 300.765 22.7649C300.453 23.0774 299.945 23.0775 299.633 22.7649L298.501 21.633L297.368 22.7649Z" fill="#0ABF00"/>
<path d="M312.368 19.7649C312.055 20.0775 311.548 20.0775 311.235 19.7649C310.922 19.4521 310.922 18.9448 311.235 18.632L312.368 17.5002L311.235 16.3664C310.923 16.0537 310.923 15.5473 311.235 15.2346C311.548 14.9218 312.055 14.9218 312.368 15.2346L313.501 16.3674L314.633 15.2346C314.945 14.9218 315.453 14.9218 315.765 15.2346C316.078 15.5473 316.078 16.0537 315.765 16.3664L314.634 17.5002L315.765 18.632C316.078 18.9448 316.078 19.4521 315.765 19.7649C315.453 20.0774 314.945 20.0775 314.633 19.7649L313.501 18.633L312.368 19.7649Z" fill="#0ABF00"/>
<path d="M317.368 15.7649C317.055 16.0775 316.548 16.0775 316.235 15.7649C315.922 15.4521 315.922 14.9448 316.235 14.632L317.368 13.5002L316.235 12.3664C315.923 12.0537 315.923 11.5473 316.235 11.2346C316.548 10.9218 317.055 10.9218 317.368 11.2346L318.501 12.3674L319.633 11.2346C319.945 10.9218 320.453 10.9218 320.765 11.2346C321.078 11.5473 321.078 12.0537 320.765 12.3664L319.634 13.5002L320.765 14.632C321.078 14.9448 321.078 15.4521 320.765 15.7649C320.453 16.0774 319.945 16.0775 319.633 15.7649L318.501 14.633L317.368 15.7649Z" fill="#0ABF00"/>
<path d="M332.368 18.7649C332.055 19.0775 331.548 19.0775 331.235 18.7649C330.922 18.4521 330.922 17.9448 331.235 17.632L332.368 16.5002L331.235 15.3664C330.923 15.0537 330.923 14.5473 331.235 14.2346C331.548 13.9218 332.055 13.9218 332.368 14.2346L333.501 15.3674L334.633 14.2346C334.945 13.9218 335.453 13.9218 335.765 14.2346C336.078 14.5473 336.078 15.0537 335.765 15.3664L334.634 16.5002L335.765 17.632C336.078 17.9448 336.078 18.4521 335.765 18.7649C335.453 19.0774 334.945 19.0775 334.633 18.7649L333.501 17.633L332.368 18.7649Z" fill="#0ABF00"/>
<path d="M260.367 14.7649C260.055 15.0775 259.547 15.0775 259.235 14.7649C258.922 14.4521 258.922 13.9448 259.235 13.632L260.367 12.5002L259.235 11.3664C258.922 11.0537 258.922 10.5473 259.235 10.2346C259.547 9.92182 260.055 9.92182 260.367 10.2346L261.5 11.3674L262.632 10.2346C262.945 9.92182 263.452 9.92182 263.765 10.2346C264.078 10.5473 264.078 11.0537 263.765 11.3664L262.633 12.5002L263.765 13.632C264.078 13.9448 264.078 14.4521 263.765 14.7649C263.452 15.0774 262.945 15.0775 262.632 14.7649L261.5 13.633L260.367 14.7649Z" fill="#0ABF00"/>
<path d="M225.367 9.76485C225.055 10.0775 224.547 10.0775 224.235 9.76485C223.922 9.45211 223.922 8.94481 224.235 8.63204L225.367 7.5002L224.235 6.36642C223.922 6.05372 223.922 5.54729 224.235 5.23458C224.547 4.92182 225.055 4.92182 225.367 5.23458L226.5 6.36739L227.632 5.23458C227.945 4.92182 228.452 4.92182 228.765 5.23458C229.078 5.54734 229.078 6.05368 228.765 6.36642L227.633 7.5002L228.765 8.63204C229.078 8.9448 229.078 9.45209 228.765 9.76485C228.452 10.0774 227.945 10.0775 227.632 9.76485L226.5 8.63302L225.367 9.76485Z" fill="#0ABF00"/>
<path d="M230.367 9.76485C230.055 10.0775 229.547 10.0775 229.235 9.76485C228.922 9.45211 228.922 8.94481 229.235 8.63204L230.367 7.5002L229.235 6.36642C228.922 6.05372 228.922 5.54729 229.235 5.23458C229.547 4.92182 230.055 4.92182 230.367 5.23458L231.5 6.36739L232.632 5.23458C232.945 4.92182 233.452 4.92182 233.765 5.23458C234.078 5.54734 234.078 6.05368 233.765 6.36642L232.633 7.50021L233.765 8.63204C234.078 8.9448 234.078 9.45209 233.765 9.76485C233.452 10.0774 232.945 10.0775 232.632 9.76485L231.5 8.63302L230.367 9.76485Z" fill="#0ABF00"/>
<path d="M215.367 11.7649C215.055 12.0775 214.547 12.0775 214.235 11.7649C213.922 11.4521 213.922 10.9448 214.235 10.632L215.367 9.5002L214.235 8.36641C213.922 8.05372 213.922 7.54729 214.235 7.23458C214.547 6.92182 215.055 6.92182 215.367 7.23458L216.5 8.36739L217.632 7.23458C217.945 6.92182 218.452 6.92182 218.765 7.23458C219.078 7.54734 219.078 8.05368 218.765 8.36642L217.633 9.5002L218.765 10.632C219.078 10.9448 219.078 11.4521 218.765 11.7649C218.452 12.0774 217.945 12.0775 217.632 11.7649L216.5 10.633L215.367 11.7649Z" fill="#0ABF00"/>
<path d="M213.367 6.76485C213.055 7.07752 212.547 7.0775 212.235 6.76485C211.922 6.45211 211.922 5.94481 212.235 5.63204L213.367 4.5002L212.235 3.36641C211.922 3.05372 211.922 2.54729 212.235 2.23458C212.547 1.92182 213.055 1.92182 213.367 2.23458L214.5 3.36739L215.632 2.23458C215.945 1.92182 216.452 1.92182 216.765 2.23458C217.078 2.54734 217.078 3.05368 216.765 3.36641L215.633 4.5002L216.765 5.63204C217.078 5.9448 217.078 6.45209 216.765 6.76485C216.452 7.07735 215.945 7.07753 215.632 6.76485L214.5 5.63302L213.367 6.76485Z" fill="#0ABF00"/>
<path d="M208.367 5.76485C208.055 6.07752 207.547 6.0775 207.235 5.76485C206.922 5.45211 206.922 4.94481 207.235 4.63204L208.367 3.5002L207.235 2.36641C206.922 2.05372 206.922 1.54729 207.235 1.23458C207.547 0.921815 208.055 0.921815 208.367 1.23458L209.5 2.36739L210.632 1.23458C210.945 0.921815 211.452 0.921815 211.765 1.23458C212.078 1.54734 212.078 2.05368 211.765 2.36641L210.633 3.5002L211.765 4.63204C212.078 4.9448 212.078 5.45209 211.765 5.76485C211.452 6.07735 210.945 6.07753 210.632 5.76485L209.5 4.63302L208.367 5.76485Z" fill="#0ABF00"/>
<path d="M203.367 7.76485C203.055 8.07752 202.547 8.0775 202.235 7.76485C201.922 7.45211 201.922 6.94481 202.235 6.63204L203.367 5.5002L202.235 4.36641C201.922 4.05372 201.922 3.54729 202.235 3.23458C202.547 2.92181 203.055 2.92181 203.367 3.23458L204.5 4.36739L205.632 3.23458C205.945 2.92181 206.452 2.92181 206.765 3.23458C207.078 3.54733 207.078 4.05368 206.765 4.36641L205.633 5.5002L206.765 6.63204C207.078 6.9448 207.078 7.45209 206.765 7.76485C206.452 8.07735 205.945 8.07753 205.632 7.76485L204.5 6.63302L203.367 7.76485Z" fill="#0ABF00"/>
<path d="M198.367 9.76485C198.055 10.0775 197.547 10.0775 197.235 9.76485C196.922 9.45211 196.922 8.94481 197.235 8.63204L198.367 7.5002L197.235 6.36641C196.922 6.05372 196.922 5.54729 197.235 5.23458C197.547 4.92181 198.055 4.92181 198.367 5.23458L199.5 6.36739L200.632 5.23458C200.945 4.92181 201.452 4.92181 201.765 5.23458C202.078 5.54733 202.078 6.05368 201.765 6.36641L200.633 7.5002L201.765 8.63204C202.078 8.9448 202.078 9.45209 201.765 9.76485C201.452 10.0774 200.945 10.0775 200.632 9.76485L199.5 8.63301L198.367 9.76485Z" fill="#0ABF00"/>
<path d="M210.367 13.7649C210.055 14.0775 209.547 14.0775 209.235 13.7649C208.922 13.4521 208.922 12.9448 209.235 12.632L210.367 11.5002L209.235 10.3664C208.922 10.0537 208.922 9.54729 209.235 9.23458C209.547 8.92182 210.055 8.92182 210.367 9.23458L211.5 10.3674L212.632 9.23458C212.945 8.92182 213.452 8.92182 213.765 9.23458C214.078 9.54734 214.078 10.0537 213.765 10.3664L212.633 11.5002L213.765 12.632C214.078 12.9448 214.078 13.4521 213.765 13.7649C213.452 14.0774 212.945 14.0775 212.632 13.7649L211.5 12.633L210.367 13.7649Z" fill="#0ABF00"/>
<path d="M205.367 15.7649C205.055 16.0775 204.547 16.0775 204.235 15.7649C203.922 15.4521 203.922 14.9448 204.235 14.632L205.367 13.5002L204.235 12.3664C203.922 12.0537 203.922 11.5473 204.235 11.2346C204.547 10.9218 205.055 10.9218 205.367 11.2346L206.5 12.3674L207.632 11.2346C207.945 10.9218 208.452 10.9218 208.765 11.2346C209.078 11.5473 209.078 12.0537 208.765 12.3664L207.633 13.5002L208.765 14.632C209.078 14.9448 209.078 15.4521 208.765 15.7649C208.452 16.0774 207.945 16.0775 207.632 15.7649L206.5 14.633L205.367 15.7649Z" fill="#0ABF00"/>
<path d="M200.367 17.7649C200.055 18.0775 199.547 18.0775 199.235 17.7649C198.922 17.4521 198.922 16.9448 199.235 16.632L200.367 15.5002L199.235 14.3664C198.922 14.0537 198.922 13.5473 199.235 13.2346C199.547 12.9218 200.055 12.9218 200.367 13.2346L201.5 14.3674L202.632 13.2346C202.945 12.9218 203.452 12.9218 203.765 13.2346C204.078 13.5473 204.078 14.0537 203.765 14.3664L202.633 15.5002L203.765 16.632C204.078 16.9448 204.078 17.4521 203.765 17.7649C203.452 18.0774 202.945 18.0775 202.632 17.7649L201.5 16.633L200.367 17.7649Z" fill="#0ABF00"/>
<path d="M195.367 17.7649C195.055 18.0775 194.547 18.0775 194.235 17.7649C193.922 17.4521 193.922 16.9448 194.235 16.632L195.367 15.5002L194.235 14.3664C193.922 14.0537 193.922 13.5473 194.235 13.2346C194.547 12.9218 195.055 12.9218 195.367 13.2346L196.5 14.3674L197.632 13.2346C197.945 12.9218 198.452 12.9218 198.765 13.2346C199.078 13.5473 199.078 14.0537 198.765 14.3664L197.633 15.5002L198.765 16.632C199.078 16.9448 199.078 17.4521 198.765 17.7649C198.452 18.0774 197.945 18.0775 197.632 17.7649L196.5 16.633L195.367 17.7649Z" fill="#0ABF00"/>
<path d="M190.367 17.7649C190.055 18.0775 189.547 18.0775 189.235 17.7648C188.922 17.4521 188.922 16.9448 189.235 16.632L190.367 15.5002L189.235 14.3664C188.922 14.0537 188.922 13.5473 189.235 13.2346C189.547 12.9218 190.055 12.9218 190.367 13.2346L191.5 14.3674L192.632 13.2346C192.945 12.9218 193.452 12.9218 193.765 13.2346C194.078 13.5473 194.078 14.0537 193.765 14.3664L192.633 15.5002L193.765 16.632C194.078 16.9448 194.078 17.4521 193.765 17.7649C193.452 18.0774 192.945 18.0775 192.632 17.7649L191.5 16.633L190.367 17.7649Z" fill="#0ABF00"/>
<path d="M185.367 15.7648C185.055 16.0775 184.547 16.0775 184.235 15.7648C183.922 15.4521 183.922 14.9448 184.235 14.632L185.367 13.5002L184.235 12.3664C183.922 12.0537 183.922 11.5473 184.235 11.2346C184.547 10.9218 185.055 10.9218 185.367 11.2346L186.5 12.3674L187.632 11.2346C187.945 10.9218 188.452 10.9218 188.765 11.2346C189.078 11.5473 189.078 12.0537 188.765 12.3664L187.633 13.5002L188.765 14.632C189.078 14.9448 189.078 15.4521 188.765 15.7648C188.452 16.0774 187.945 16.0775 187.632 15.7648L186.5 14.633L185.367 15.7648Z" fill="#0ABF00"/>
<path d="M190.367 11.7648C190.055 12.0775 189.547 12.0775 189.235 11.7648C188.922 11.4521 188.922 10.9448 189.235 10.632L190.367 9.5002L189.235 8.36641C188.922 8.05372 188.922 7.54729 189.235 7.23458C189.547 6.92181 190.055 6.92181 190.367 7.23458L191.5 8.36739L192.632 7.23458C192.945 6.92181 193.452 6.92181 193.765 7.23458C194.078 7.54733 194.078 8.05368 193.765 8.36641L192.633 9.5002L193.765 10.632C194.078 10.9448 194.078 11.4521 193.765 11.7648C193.452 12.0774 192.945 12.0775 192.632 11.7648L191.5 10.633L190.367 11.7648Z" fill="#0ABF00"/>
<path d="M193.367 6.76485C193.055 7.07752 192.547 7.0775 192.235 6.76485C191.922 6.45211 191.922 5.94481 192.235 5.63204L193.367 4.5002L192.235 3.36641C191.922 3.05372 191.922 2.54729 192.235 2.23458C192.547 1.92181 193.055 1.92181 193.367 2.23458L194.5 3.36739L195.632 2.23458C195.945 1.92181 196.452 1.92181 196.765 2.23458C197.078 2.54733 197.078 3.05368 196.765 3.36641L195.633 4.5002L196.765 5.63204C197.078 5.9448 197.078 6.45209 196.765 6.76485C196.452 7.07735 195.945 7.07753 195.632 6.76485L194.5 5.63301L193.367 6.76485Z" fill="#0ABF00"/>
<path d="M188.367 4.76485C188.055 5.07752 187.547 5.0775 187.235 4.76485C186.922 4.45211 186.922 3.94481 187.235 3.63204L188.367 2.5002L187.235 1.36641C186.922 1.05372 186.922 0.54729 187.235 0.234576C187.547 -0.078187 188.055 -0.078187 188.367 0.234576L189.5 1.36739L190.632 0.234576C190.945 -0.0781867 191.452 -0.0781867 191.765 0.234576C192.078 0.547333 192.078 1.05368 191.765 1.36641L190.633 2.5002L191.765 3.63204C192.078 3.9448 192.078 4.45209 191.765 4.76485C191.452 5.07735 190.945 5.07753 190.632 4.76485L189.5 3.63301L188.367 4.76485Z" fill="#0ABF00"/>
<path d="M183.367 6.76485C183.055 7.07752 182.547 7.0775 182.235 6.76485C181.922 6.45211 181.922 5.9448 182.235 5.63204L183.367 4.5002L182.235 3.36641C181.922 3.05372 181.922 2.54729 182.235 2.23458C182.547 1.92181 183.055 1.92181 183.367 2.23458L184.5 3.36739L185.632 2.23458C185.945 1.92181 186.452 1.92181 186.765 2.23458C187.078 2.54733 187.078 3.05368 186.765 3.36641L185.633 4.5002L186.765 5.63204C187.078 5.9448 187.078 6.45209 186.765 6.76485C186.452 7.07735 185.945 7.07753 185.632 6.76485L184.5 5.63301L183.367 6.76485Z" fill="#0ABF00"/>
<path d="M180.367 12.7648C180.055 13.0775 179.547 13.0775 179.235 12.7648C178.922 12.4521 178.922 11.9448 179.235 11.632L180.367 10.5002L179.235 9.36641C178.922 9.05372 178.922 8.54729 179.235 8.23458C179.547 7.92181 180.055 7.92181 180.367 8.23458L181.5 9.36739L182.632 8.23458C182.945 7.92181 183.452 7.92181 183.765 8.23458C184.078 8.54733 184.078 9.05368 183.765 9.36641L182.633 10.5002L183.765 11.632C184.078 11.9448 184.078 12.4521 183.765 12.7648C183.452 13.0774 182.945 13.0775 182.632 12.7648L181.5 11.633L180.367 12.7648Z" fill="#0ABF00"/>
<path d="M180.367 22.7648C180.055 23.0775 179.547 23.0775 179.235 22.7648C178.922 22.4521 178.922 21.9448 179.235 21.632L180.367 20.5002L179.235 19.3664C178.922 19.0537 178.922 18.5473 179.235 18.2346C179.547 17.9218 180.055 17.9218 180.367 18.2346L181.5 19.3674L182.632 18.2346C182.945 17.9218 183.452 17.9218 183.765 18.2346C184.078 18.5473 184.078 19.0537 183.765 19.3664L182.633 20.5002L183.765 21.632C184.078 21.9448 184.078 22.4521 183.765 22.7648C183.452 23.0774 182.945 23.0775 182.632 22.7648L181.5 21.633L180.367 22.7648Z" fill="#0ABF00"/>
<path d="M175.367 20.7648C175.055 21.0775 174.547 21.0775 174.235 20.7648C173.922 20.4521 173.922 19.9448 174.235 19.632L175.367 18.5002L174.235 17.3664C173.922 17.0537 173.922 16.5473 174.235 16.2346C174.547 15.9218 175.055 15.9218 175.367 16.2346L176.5 17.3674L177.632 16.2346C177.945 15.9218 178.452 15.9218 178.765 16.2346C179.078 16.5473 179.078 17.0537 178.765 17.3664L177.633 18.5002L178.765 19.632C179.078 19.9448 179.078 20.4521 178.765 20.7648C178.452 21.0774 177.945 21.0775 177.632 20.7648L176.5 19.633L175.367 20.7648Z" fill="#0ABF00"/>
<path d="M175.367 15.7648C175.055 16.0775 174.547 16.0775 174.235 15.7648C173.922 15.4521 173.922 14.9448 174.235 14.632L175.367 13.5002L174.235 12.3664C173.922 12.0537 173.922 11.5473 174.235 11.2346C174.547 10.9218 175.055 10.9218 175.367 11.2346L176.5 12.3674L177.632 11.2346C177.945 10.9218 178.452 10.9218 178.765 11.2346C179.078 11.5473 179.078 12.0537 178.765 12.3664L177.633 13.5002L178.765 14.632C179.078 14.9448 179.078 15.4521 178.765 15.7648C178.452 16.0774 177.945 16.0775 177.632 15.7648L176.5 14.633L175.367 15.7648Z" fill="#0ABF00"/>
<path d="M175.367 10.7648C175.055 11.0775 174.547 11.0775 174.235 10.7648C173.922 10.4521 173.922 9.9448 174.235 9.63204L175.367 8.5002L174.235 7.36641C173.922 7.05372 173.922 6.54729 174.235 6.23457C174.547 5.92181 175.055 5.92181 175.367 6.23457L176.5 7.36739L177.632 6.23458C177.945 5.92181 178.452 5.92181 178.765 6.23458C179.078 6.54733 179.078 7.05368 178.765 7.36641L177.633 8.5002L178.765 9.63204C179.078 9.9448 179.078 10.4521 178.765 10.7648C178.452 11.0774 177.945 11.0775 177.632 10.7648L176.5 9.63301L175.367 10.7648Z" fill="#0ABF00"/>
<path d="M170.367 15.7648C170.055 16.0775 169.547 16.0775 169.235 15.7648C168.922 15.4521 168.922 14.9448 169.235 14.632L170.367 13.5002L169.235 12.3664C168.922 12.0537 168.922 11.5473 169.235 11.2346C169.547 10.9218 170.055 10.9218 170.367 11.2346L171.5 12.3674L172.632 11.2346C172.945 10.9218 173.452 10.9218 173.765 11.2346C174.078 11.5473 174.078 12.0537 173.765 12.3664L172.633 13.5002L173.765 14.632C174.078 14.9448 174.078 15.4521 173.765 15.7648C173.452 16.0774 172.945 16.0775 172.632 15.7648L171.5 14.633L170.367 15.7648Z" fill="#0ABF00"/>
<path d="M170.367 10.7648C170.055 11.0775 169.547 11.0775 169.235 10.7648C168.922 10.4521 168.922 9.9448 169.235 9.63204L170.367 8.5002L169.235 7.36641C168.922 7.05372 168.922 6.54729 169.235 6.23457C169.547 5.92181 170.055 5.92181 170.367 6.23457L171.5 7.36739L172.632 6.23457C172.945 5.92181 173.452 5.92181 173.765 6.23457C174.078 6.54733 174.078 7.05368 173.765 7.36641L172.633 8.5002L173.765 9.63204C174.078 9.9448 174.078 10.4521 173.765 10.7648C173.452 11.0774 172.945 11.0775 172.632 10.7648L171.5 9.63301L170.367 10.7648Z" fill="#0ABF00"/>
<path d="M220.367 9.76485C220.055 10.0775 219.547 10.0775 219.235 9.76485C218.922 9.45211 218.922 8.94481 219.235 8.63204L220.367 7.5002L219.235 6.36641C218.922 6.05372 218.922 5.54729 219.235 5.23458C219.547 4.92182 220.055 4.92182 220.367 5.23458L221.5 6.36739L222.632 5.23458C222.945 4.92182 223.452 4.92182 223.765 5.23458C224.078 5.54734 224.078 6.05368 223.765 6.36642L222.633 7.5002L223.765 8.63204C224.078 8.9448 224.078 9.45209 223.765 9.76485C223.452 10.0774 222.945 10.0775 222.632 9.76485L221.5 8.63302L220.367 9.76485Z" fill="#0ABF00"/>
<path d="M85.6325 14.7648C85.9453 15.0775 86.4526 15.0775 86.7653 14.7648C87.0781 14.4521 87.078 13.9448 86.7653 13.632L85.6325 12.5002L86.7653 11.3664C87.0778 11.0537 87.0778 10.5473 86.7653 10.2346C86.4526 9.9218 85.9453 9.9218 85.6325 10.2346L84.4997 11.3674L83.3679 10.2346C83.0551 9.9218 82.5478 9.9218 82.2351 10.2346C81.9224 10.5473 81.9224 11.0537 82.2351 11.3664L83.3669 12.5002L82.2351 13.632C81.9223 13.9448 81.9223 14.4521 82.2351 14.7648C82.5478 15.0773 83.0552 15.0775 83.3679 14.7648L84.4997 13.633L85.6325 14.7648Z" fill="#0ABF00"/>
<path d="M90.6325 13.7648C90.9453 14.0775 91.4526 14.0775 91.7653 13.7648C92.0781 13.4521 92.078 12.9448 91.7653 12.632L90.6325 11.5002L91.7653 10.3664C92.0778 10.0537 92.0778 9.54728 91.7653 9.23457C91.4526 8.9218 90.9453 8.9218 90.6325 9.23457L89.4997 10.3674L88.3679 9.23457C88.0551 8.9218 87.5478 8.9218 87.2351 9.23457C86.9224 9.54732 86.9224 10.0537 87.2351 10.3664L88.3669 11.5002L87.2351 12.632C86.9223 12.9448 86.9223 13.4521 87.2351 13.7648C87.5478 14.0773 88.0552 14.0775 88.3679 13.7648L89.4997 12.633L90.6325 13.7648Z" fill="#0ABF00"/>
<path d="M95.6325 11.7648C95.9453 12.0775 96.4526 12.0775 96.7653 11.7648C97.0781 11.4521 97.078 10.9448 96.7653 10.632L95.6325 9.50019L96.7653 8.3664C97.0778 8.05371 97.0778 7.54728 96.7653 7.23457C96.4526 6.92181 95.9453 6.92181 95.6325 7.23457L94.4997 8.36738L93.3679 7.23457C93.0551 6.9218 92.5478 6.9218 92.2351 7.23457C91.9224 7.54732 91.9224 8.05367 92.2351 8.3664L93.3669 9.50019L92.2351 10.632C91.9223 10.9448 91.9223 11.4521 92.2351 11.7648C92.5478 12.0773 93.0552 12.0775 93.3679 11.7648L94.4997 10.633L95.6325 11.7648Z" fill="#0ABF00"/>
<path d="M100.633 9.76484C100.945 10.0775 101.453 10.0775 101.765 9.76484C102.078 9.4521 102.078 8.9448 101.765 8.63203L100.633 7.50019L101.765 6.3664C102.078 6.05371 102.078 5.54728 101.765 5.23457C101.453 4.92181 100.945 4.92181 100.633 5.23457L99.4997 6.36738L98.3679 5.23457C98.0551 4.92181 97.5478 4.92181 97.2351 5.23457C96.9224 5.54732 96.9224 6.05367 97.2351 6.3664L98.3669 7.50019L97.2351 8.63203C96.9223 8.94479 96.9223 9.45208 97.2351 9.76484C97.5478 10.0773 98.0552 10.0775 98.3679 9.76484L99.4997 8.63301L100.633 9.76484Z" fill="#0ABF00"/>
<path d="M63.6325 14.7648C63.9453 15.0775 64.4526 15.0775 64.7653 14.7648C65.0781 14.4521 65.078 13.9448 64.7653 13.632L63.6325 12.5002L64.7653 11.3664C65.0778 11.0537 65.0778 10.5473 64.7653 10.2346C64.4526 9.9218 63.9453 9.9218 63.6325 10.2346L62.4997 11.3674L61.3679 10.2346C61.0551 9.9218 60.5478 9.9218 60.2351 10.2346C59.9224 10.5473 59.9224 11.0537 60.2351 11.3664L61.3669 12.5002L60.2351 13.632C59.9223 13.9448 59.9223 14.4521 60.2351 14.7648C60.5478 15.0773 61.0552 15.0775 61.3679 14.7648L62.4997 13.633L63.6325 14.7648Z" fill="#0ABF00"/>
<path d="M48.632 19.7648C48.9448 20.0775 49.4521 20.0775 49.7648 19.7648C50.0776 19.4521 50.0775 18.9448 49.7648 18.632L48.632 17.5002L49.7648 16.3664C50.0773 16.0537 50.0773 15.5473 49.7648 15.2346C49.4521 14.9218 48.9448 14.9218 48.632 15.2346L47.4992 16.3674L46.3674 15.2346C46.0546 14.9218 45.5473 14.9218 45.2346 15.2346C44.9219 15.5473 44.9219 16.0537 45.2346 16.3664L46.3664 17.5002L45.2346 18.632C44.9218 18.9448 44.9218 19.4521 45.2346 19.7648C45.5474 20.0773 46.0547 20.0775 46.3674 19.7648L47.4992 18.633L48.632 19.7648Z" fill="#0ABF00"/>
<path d="M43.632 22.7648C43.9448 23.0775 44.4521 23.0775 44.7648 22.7648C45.0776 22.4521 45.0775 21.9448 44.7648 21.632L43.632 20.5002L44.7648 19.3664C45.0773 19.0537 45.0773 18.5473 44.7648 18.2346C44.4521 17.9218 43.9448 17.9218 43.632 18.2346L42.4992 19.3674L41.3674 18.2346C41.0546 17.9218 40.5473 17.9218 40.2346 18.2346C39.9219 18.5473 39.9219 19.0537 40.2346 19.3664L41.3664 20.5002L40.2346 21.632C39.9218 21.9448 39.9218 22.4521 40.2346 22.7648C40.5474 23.0773 41.0547 23.0775 41.3674 22.7648L42.4992 21.633L43.632 22.7648Z" fill="#0ABF00"/>
<path d="M38.632 22.7648C38.9448 23.0775 39.4521 23.0775 39.7648 22.7648C40.0776 22.4521 40.0775 21.9448 39.7648 21.632L38.632 20.5002L39.7648 19.3664C40.0773 19.0537 40.0773 18.5473 39.7648 18.2346C39.4521 17.9218 38.9448 17.9218 38.632 18.2346L37.4992 19.3674L36.3674 18.2346C36.0546 17.9218 35.5473 17.9218 35.2346 18.2346C34.9219 18.5473 34.9219 19.0537 35.2346 19.3664L36.3664 20.5002L35.2346 21.632C34.9218 21.9448 34.9218 22.4521 35.2346 22.7648C35.5474 23.0773 36.0547 23.0775 36.3674 22.7648L37.4992 21.633L38.632 22.7648Z" fill="#0ABF00"/>
<path d="M23.632 19.7648C23.9448 20.0775 24.4521 20.0775 24.7648 19.7648C25.0776 19.4521 25.0775 18.9448 24.7648 18.632L23.632 17.5002L24.7648 16.3664C25.0773 16.0537 25.0773 15.5473 24.7648 15.2346C24.4521 14.9218 23.9448 14.9218 23.632 15.2346L22.4992 16.3674L21.3674 15.2346C21.0546 14.9218 20.5473 14.9218 20.2346 15.2346C19.9219 15.5473 19.9219 16.0537 20.2346 16.3664L21.3664 17.5002L20.2346 18.632C19.9218 18.9448 19.9218 19.4521 20.2346 19.7648C20.5474 20.0773 21.0547 20.0775 21.3674 19.7648L22.4992 18.633L23.632 19.7648Z" fill="#0ABF00"/>
<path d="M18.632 15.7648C18.9448 16.0775 19.4521 16.0775 19.7648 15.7648C20.0776 15.4521 20.0775 14.9448 19.7648 14.632L18.632 13.5002L19.7648 12.3664C20.0773 12.0537 20.0773 11.5473 19.7648 11.2346C19.4521 10.9218 18.9448 10.9218 18.632 11.2346L17.4992 12.3674L16.3674 11.2346C16.0546 10.9218 15.5473 10.9218 15.2346 11.2346C14.9219 11.5473 14.9219 12.0537 15.2346 12.3664L16.3664 13.5002L15.2346 14.632C14.9218 14.9448 14.9218 15.4521 15.2346 15.7648C15.5474 16.0773 16.0547 16.0775 16.3674 15.7648L17.4992 14.633L18.632 15.7648Z" fill="#0ABF00"/>
<path d="M3.63203 18.7648C3.94477 19.0775 4.4521 19.0775 4.76485 18.7648C5.07759 18.4521 5.07755 17.9448 4.76485 17.632L3.63203 16.5002L4.76485 15.3664C5.07731 15.0537 5.07728 14.5473 4.76485 14.2346C4.45208 13.9218 3.9448 13.9218 3.63203 14.2346L2.49922 15.3674L1.36739 14.2346C1.05462 13.9218 0.547336 13.9218 0.234573 14.2346C-0.0780846 14.5473 -0.0781188 15.0537 0.234573 15.3664L1.36641 16.5002L0.234572 17.632C-0.0781907 17.9448 -0.0781908 18.4521 0.234572 18.7648C0.547356 19.0773 1.05471 19.0775 1.36738 18.7648L2.49922 17.633L3.63203 18.7648Z" fill="#0ABF00"/>
<path d="M75.6325 14.7648C75.9453 15.0775 76.4526 15.0775 76.7653 14.7648C77.0781 14.4521 77.078 13.9448 76.7653 13.632L75.6325 12.5002L76.7653 11.3664C77.0778 11.0537 77.0778 10.5473 76.7653 10.2346C76.4526 9.9218 75.9453 9.9218 75.6325 10.2346L74.4997 11.3674L73.3679 10.2346C73.0551 9.9218 72.5478 9.9218 72.2351 10.2346C71.9224 10.5473 71.9224 11.0537 72.2351 11.3664L73.3669 12.5002L72.2351 13.632C71.9223 13.9448 71.9223 14.4521 72.2351 14.7648C72.5478 15.0773 73.0552 15.0775 73.3679 14.7648L74.4997 13.633L75.6325 14.7648Z" fill="#0ABF00"/>
<path d="M110.633 9.76484C110.945 10.0775 111.453 10.0775 111.765 9.76484C112.078 9.4521 112.078 8.9448 111.765 8.63203L110.633 7.50019L111.765 6.36641C112.078 6.05371 112.078 5.54728 111.765 5.23457C111.453 4.92181 110.945 4.92181 110.633 5.23457L109.5 6.36738L108.368 5.23457C108.055 4.92181 107.548 4.92181 107.235 5.23457C106.922 5.54733 106.922 6.05367 107.235 6.36641L108.367 7.50019L107.235 8.63203C106.922 8.94479 106.922 9.45208 107.235 9.76484C107.548 10.0773 108.055 10.0775 108.368 9.76484L109.5 8.63301L110.633 9.76484Z" fill="#0ABF00"/>
<path d="M105.633 9.76484C105.945 10.0775 106.453 10.0775 106.765 9.76484C107.078 9.4521 107.078 8.9448 106.765 8.63203L105.633 7.50019L106.765 6.36641C107.078 6.05371 107.078 5.54728 106.765 5.23457C106.453 4.92181 105.945 4.92181 105.633 5.23457L104.5 6.36738L103.368 5.23457C103.055 4.92181 102.548 4.92181 102.235 5.23457C101.922 5.54733 101.922 6.05367 102.235 6.3664L103.367 7.50019L102.235 8.63203C101.922 8.94479 101.922 9.45208 102.235 9.76484C102.548 10.0773 103.055 10.0775 103.368 9.76484L104.5 8.63301L105.633 9.76484Z" fill="#0ABF00"/>
<path d="M120.633 11.7648C120.945 12.0775 121.453 12.0775 121.765 11.7648C122.078 11.4521 122.078 10.9448 121.765 10.632L120.633 9.5002L121.765 8.36641C122.078 8.05371 122.078 7.54728 121.765 7.23457C121.453 6.92181 120.945 6.92181 120.633 7.23457L119.5 8.36738L118.368 7.23457C118.055 6.92181 117.548 6.92181 117.235 7.23457C116.922 7.54733 116.922 8.05367 117.235 8.36641L118.367 9.50019L117.235 10.632C116.922 10.9448 116.922 11.4521 117.235 11.7648C117.548 12.0773 118.055 12.0775 118.368 11.7648L119.5 10.633L120.633 11.7648Z" fill="#0ABF00"/>
<path d="M122.633 6.76484C122.945 7.07751 123.453 7.07749 123.765 6.76484C124.078 6.4521 124.078 5.9448 123.765 5.63203L122.633 4.5002L123.765 3.36641C124.078 3.05371 124.078 2.54728 123.765 2.23457C123.453 1.92181 122.945 1.92181 122.633 2.23457L121.5 3.36738L120.368 2.23457C120.055 1.92181 119.548 1.92181 119.235 2.23457C118.922 2.54733 118.922 3.05367 119.235 3.36641L120.367 4.5002L119.235 5.63203C118.922 5.94479 118.922 6.45208 119.235 6.76484C119.548 7.07735 120.055 7.07752 120.368 6.76484L121.5 5.63301L122.633 6.76484Z" fill="#0ABF00"/>
<path d="M127.633 5.76484C127.945 6.07751 128.453 6.07749 128.765 5.76484C129.078 5.4521 129.078 4.9448 128.765 4.63203L127.633 3.5002L128.765 2.36641C129.078 2.05371 129.078 1.54729 128.765 1.23457C128.453 0.921808 127.945 0.921808 127.633 1.23457L126.5 2.36738L125.368 1.23457C125.055 0.921808 124.548 0.921807 124.235 1.23457C123.922 1.54733 123.922 2.05367 124.235 2.36641L125.367 3.5002L124.235 4.63203C123.922 4.94479 123.922 5.45208 124.235 5.76484C124.548 6.07735 125.055 6.07752 125.368 5.76484L126.5 4.63301L127.633 5.76484Z" fill="#0ABF00"/>
<path d="M132.633 7.76484C132.945 8.07751 133.453 8.07749 133.765 7.76484C134.078 7.4521 134.078 6.9448 133.765 6.63203L132.633 5.5002L133.765 4.36641C134.078 4.05371 134.078 3.54729 133.765 3.23457C133.453 2.92181 132.945 2.92181 132.633 3.23457L131.5 4.36738L130.368 3.23457C130.055 2.92181 129.548 2.92181 129.235 3.23457C128.922 3.54733 128.922 4.05367 129.235 4.36641L130.367 5.5002L129.235 6.63203C128.922 6.94479 128.922 7.45208 129.235 7.76484C129.548 8.07735 130.055 8.07752 130.368 7.76484L131.5 6.63301L132.633 7.76484Z" fill="#0ABF00"/>
<path d="M137.633 9.76484C137.945 10.0775 138.453 10.0775 138.765 9.76484C139.078 9.4521 139.078 8.9448 138.765 8.63203L137.633 7.5002L138.765 6.36641C139.078 6.05371 139.078 5.54729 138.765 5.23457C138.453 4.92181 137.945 4.92181 137.633 5.23457L136.5 6.36738L135.368 5.23457C135.055 4.92181 134.548 4.92181 134.235 5.23457C133.922 5.54733 133.922 6.05367 134.235 6.36641L135.367 7.5002L134.235 8.63203C133.922 8.9448 133.922 9.45208 134.235 9.76484C134.548 10.0773 135.055 10.0775 135.368 9.76484L136.5 8.63301L137.633 9.76484Z" fill="#0ABF00"/>
<path d="M125.633 13.7648C125.945 14.0775 126.453 14.0775 126.765 13.7648C127.078 13.4521 127.078 12.9448 126.765 12.632L125.633 11.5002L126.765 10.3664C127.078 10.0537 127.078 9.54728 126.765 9.23457C126.453 8.92181 125.945 8.92181 125.633 9.23457L124.5 10.3674L123.368 9.23457C123.055 8.92181 122.548 8.92181 122.235 9.23457C121.922 9.54733 121.922 10.0537 122.235 10.3664L123.367 11.5002L122.235 12.632C121.922 12.9448 121.922 13.4521 122.235 13.7648C122.548 14.0773 123.055 14.0775 123.368 13.7648L124.5 12.633L125.633 13.7648Z" fill="#0ABF00"/>
<path d="M130.633 15.7648C130.945 16.0775 131.453 16.0775 131.765 15.7648C132.078 15.4521 132.078 14.9448 131.765 14.632L130.633 13.5002L131.765 12.3664C132.078 12.0537 132.078 11.5473 131.765 11.2346C131.453 10.9218 130.945 10.9218 130.633 11.2346L129.5 12.3674L128.368 11.2346C128.055 10.9218 127.548 10.9218 127.235 11.2346C126.922 11.5473 126.922 12.0537 127.235 12.3664L128.367 13.5002L127.235 14.632C126.922 14.9448 126.922 15.4521 127.235 15.7648C127.548 16.0773 128.055 16.0775 128.368 15.7648L129.5 14.633L130.633 15.7648Z" fill="#0ABF00"/>
<path d="M135.633 17.7648C135.945 18.0775 136.453 18.0775 136.765 17.7648C137.078 17.4521 137.078 16.9448 136.765 16.632L135.633 15.5002L136.765 14.3664C137.078 14.0537 137.078 13.5473 136.765 13.2346C136.453 12.9218 135.945 12.9218 135.633 13.2346L134.5 14.3674L133.368 13.2346C133.055 12.9218 132.548 12.9218 132.235 13.2346C131.922 13.5473 131.922 14.0537 132.235 14.3664L133.367 15.5002L132.235 16.632C131.922 16.9448 131.922 17.4521 132.235 17.7648C132.548 18.0773 133.055 18.0775 133.368 17.7648L134.5 16.633L135.633 17.7648Z" fill="#0ABF00"/>
<path d="M140.633 17.7648C140.945 18.0775 141.453 18.0775 141.765 17.7648C142.078 17.4521 142.078 16.9448 141.765 16.632L140.633 15.5002L141.765 14.3664C142.078 14.0537 142.078 13.5473 141.765 13.2346C141.453 12.9218 140.945 12.9218 140.633 13.2346L139.5 14.3674L138.368 13.2346C138.055 12.9218 137.548 12.9218 137.235 13.2346C136.922 13.5473 136.922 14.0537 137.235 14.3664L138.367 15.5002L137.235 16.632C136.922 16.9448 136.922 17.4521 137.235 17.7648C137.548 18.0773 138.055 18.0775 138.368 17.7648L139.5 16.633L140.633 17.7648Z" fill="#0ABF00"/>
<path d="M145.633 17.7648C145.945 18.0775 146.453 18.0775 146.765 17.7648C147.078 17.4521 147.078 16.9448 146.765 16.632L145.633 15.5002L146.765 14.3664C147.078 14.0537 147.078 13.5473 146.765 13.2346C146.453 12.9218 145.945 12.9218 145.633 13.2346L144.5 14.3674L143.368 13.2346C143.055 12.9218 142.548 12.9218 142.235 13.2346C141.922 13.5473 141.922 14.0537 142.235 14.3664L143.367 15.5002L142.235 16.632C141.922 16.9448 141.922 17.4521 142.235 17.7648C142.548 18.0773 143.055 18.0775 143.368 17.7648L144.5 16.633L145.633 17.7648Z" fill="#0ABF00"/>
<path d="M150.633 15.7648C150.945 16.0775 151.453 16.0775 151.765 15.7648C152.078 15.4521 152.078 14.9448 151.765 14.632L150.633 13.5002L151.765 12.3664C152.078 12.0537 152.078 11.5473 151.765 11.2346C151.453 10.9218 150.945 10.9218 150.633 11.2346L149.5 12.3674L148.368 11.2346C148.055 10.9218 147.548 10.9218 147.235 11.2346C146.922 11.5473 146.922 12.0537 147.235 12.3664L148.367 13.5002L147.235 14.632C146.922 14.9448 146.922 15.4521 147.235 15.7648C147.548 16.0773 148.055 16.0775 148.368 15.7648L149.5 14.633L150.633 15.7648Z" fill="#0ABF00"/>
<path d="M145.633 11.7648C145.945 12.0775 146.453 12.0775 146.765 11.7648C147.078 11.4521 147.078 10.9448 146.765 10.632L145.633 9.5002L146.765 8.36641C147.078 8.05372 147.078 7.54729 146.765 7.23457C146.453 6.92181 145.945 6.92181 145.633 7.23457L144.5 8.36738L143.368 7.23457C143.055 6.92181 142.548 6.92181 142.235 7.23457C141.922 7.54733 141.922 8.05367 142.235 8.36641L143.367 9.5002L142.235 10.632C141.922 10.9448 141.922 11.4521 142.235 11.7648C142.548 12.0773 143.055 12.0775 143.368 11.7648L144.5 10.633L145.633 11.7648Z" fill="#0ABF00"/>
<path d="M142.633 6.76485C142.945 7.07751 143.453 7.0775 143.765 6.76485C144.078 6.4521 144.078 5.9448 143.765 5.63203L142.633 4.5002L143.765 3.36641C144.078 3.05372 144.078 2.54729 143.765 2.23457C143.453 1.92181 142.945 1.92181 142.633 2.23457L141.5 3.36738L140.368 2.23457C140.055 1.92181 139.548 1.92181 139.235 2.23457C138.922 2.54733 138.922 3.05367 139.235 3.36641L140.367 4.5002L139.235 5.63203C138.922 5.9448 138.922 6.45208 139.235 6.76485C139.548 7.07735 140.055 7.07752 140.368 6.76485L141.5 5.63301L142.633 6.76485Z" fill="#0ABF00"/>
<path d="M147.633 4.76485C147.945 5.07752 148.453 5.0775 148.765 4.76485C149.078 4.4521 149.078 3.9448 148.765 3.63203L147.633 2.5002L148.765 1.36641C149.078 1.05372 149.078 0.547287 148.765 0.234573C148.453 -0.0781904 147.945 -0.0781905 147.633 0.234573L146.5 1.36738L145.368 0.234572C145.055 -0.0781907 144.548 -0.0781908 144.235 0.234572C143.922 0.547329 143.922 1.05367 144.235 1.36641L145.367 2.5002L144.235 3.63203C143.922 3.9448 143.922 4.45208 144.235 4.76485C144.548 5.07735 145.055 5.07752 145.368 4.76485L146.5 3.63301L147.633 4.76485Z" fill="#0ABF00"/>
<path d="M152.633 6.76485C152.945 7.07752 153.453 7.0775 153.765 6.76485C154.078 6.4521 154.078 5.9448 153.765 5.63203L152.633 4.5002L153.765 3.36641C154.078 3.05372 154.078 2.54729 153.765 2.23457C153.453 1.92181 152.945 1.92181 152.633 2.23457L151.5 3.36739L150.368 2.23457C150.055 1.92181 149.548 1.92181 149.235 2.23457C148.922 2.54733 148.922 3.05367 149.235 3.36641L150.367 4.5002L149.235 5.63203C148.922 5.9448 148.922 6.45208 149.235 6.76485C149.548 7.07735 150.055 7.07752 150.368 6.76485L151.5 5.63301L152.633 6.76485Z" fill="#0ABF00"/>
<path d="M155.633 12.7648C155.945 13.0775 156.453 13.0775 156.765 12.7648C157.078 12.4521 157.078 11.9448 156.765 11.632L155.633 10.5002L156.765 9.36641C157.078 9.05372 157.078 8.54729 156.765 8.23457C156.453 7.92181 155.945 7.92181 155.633 8.23457L154.5 9.36739L153.368 8.23457C153.055 7.92181 152.548 7.92181 152.235 8.23457C151.922 8.54733 151.922 9.05367 152.235 9.36641L153.367 10.5002L152.235 11.632C151.922 11.9448 151.922 12.4521 152.235 12.7648C152.548 13.0773 153.055 13.0775 153.368 12.7648L154.5 11.633L155.633 12.7648Z" fill="#0ABF00"/>
<path d="M155.633 22.7648C155.945 23.0775 156.453 23.0775 156.765 22.7648C157.078 22.4521 157.078 21.9448 156.765 21.632L155.633 20.5002L156.765 19.3664C157.078 19.0537 157.078 18.5473 156.765 18.2346C156.453 17.9218 155.945 17.9218 155.633 18.2346L154.5 19.3674L153.368 18.2346C153.055 17.9218 152.548 17.9218 152.235 18.2346C151.922 18.5473 151.922 19.0537 152.235 19.3664L153.367 20.5002L152.235 21.632C151.922 21.9448 151.922 22.4521 152.235 22.7648C152.548 23.0773 153.055 23.0775 153.368 22.7648L154.5 21.633L155.633 22.7648Z" fill="#0ABF00"/>
<path d="M160.633 20.7648C160.945 21.0775 161.453 21.0775 161.765 20.7648C162.078 20.4521 162.078 19.9448 161.765 19.632L160.633 18.5002L161.765 17.3664C162.078 17.0537 162.078 16.5473 161.765 16.2346C161.453 15.9218 160.945 15.9218 160.633 16.2346L159.5 17.3674L158.368 16.2346C158.055 15.9218 157.548 15.9218 157.235 16.2346C156.922 16.5473 156.922 17.0537 157.235 17.3664L158.367 18.5002L157.235 19.632C156.922 19.9448 156.922 20.4521 157.235 20.7648C157.548 21.0773 158.055 21.0775 158.368 20.7648L159.5 19.633L160.633 20.7648Z" fill="#0ABF00"/>
<path d="M160.633 15.7648C160.945 16.0775 161.453 16.0775 161.765 15.7648C162.078 15.4521 162.078 14.9448 161.765 14.632L160.633 13.5002L161.765 12.3664C162.078 12.0537 162.078 11.5473 161.765 11.2346C161.453 10.9218 160.945 10.9218 160.633 11.2346L159.5 12.3674L158.368 11.2346C158.055 10.9218 157.548 10.9218 157.235 11.2346C156.922 11.5473 156.922 12.0537 157.235 12.3664L158.367 13.5002L157.235 14.632C156.922 14.9448 156.922 15.4521 157.235 15.7648C157.548 16.0773 158.055 16.0775 158.368 15.7648L159.5 14.633L160.633 15.7648Z" fill="#0ABF00"/>
<path d="M160.633 10.7648C160.945 11.0775 161.453 11.0775 161.765 10.7648C162.078 10.4521 162.078 9.9448 161.765 9.63203L160.633 8.5002L161.765 7.36641C162.078 7.05372 162.078 6.54729 161.765 6.23457C161.453 5.92181 160.945 5.92181 160.633 6.23457L159.5 7.36739L158.368 6.23457C158.055 5.92181 157.548 5.92181 157.235 6.23457C156.922 6.54733 156.922 7.05367 157.235 7.36641L158.367 8.5002L157.235 9.63203C156.922 9.9448 156.922 10.4521 157.235 10.7648C157.548 11.0773 158.055 11.0775 158.368 10.7648L159.5 9.63301L160.633 10.7648Z" fill="#0ABF00"/>
<path d="M165.633 15.7648C165.945 16.0775 166.453 16.0775 166.765 15.7648C167.078 15.4521 167.078 14.9448 166.765 14.632L165.633 13.5002L166.765 12.3664C167.078 12.0537 167.078 11.5473 166.765 11.2346C166.453 10.9218 165.945 10.9218 165.633 11.2346L164.5 12.3674L163.368 11.2346C163.055 10.9218 162.548 10.9218 162.235 11.2346C161.922 11.5473 161.922 12.0537 162.235 12.3664L163.367 13.5002L162.235 14.632C161.922 14.9448 161.922 15.4521 162.235 15.7648C162.548 16.0773 163.055 16.0775 163.368 15.7648L164.5 14.633L165.633 15.7648Z" fill="#0ABF00"/>
<path d="M165.633 10.7648C165.945 11.0775 166.453 11.0775 166.765 10.7648C167.078 10.4521 167.078 9.9448 166.765 9.63204L165.633 8.5002L166.765 7.36641C167.078 7.05372 167.078 6.54729 166.765 6.23457C166.453 5.92181 165.945 5.92181 165.633 6.23457L164.5 7.36739L163.368 6.23457C163.055 5.92181 162.548 5.92181 162.235 6.23457C161.922 6.54733 161.922 7.05367 162.235 7.36641L163.367 8.5002L162.235 9.63203C161.922 9.9448 161.922 10.4521 162.235 10.7648C162.548 11.0773 163.055 11.0775 163.368 10.7648L164.5 9.63301L165.633 10.7648Z" fill="#0ABF00"/>
<path d="M115.633 9.76484C115.945 10.0775 116.453 10.0775 116.765 9.76484C117.078 9.4521 117.078 8.9448 116.765 8.63203L115.633 7.50019L116.765 6.36641C117.078 6.05371 117.078 5.54728 116.765 5.23457C116.453 4.92181 115.945 4.92181 115.633 5.23457L114.5 6.36738L113.368 5.23457C113.055 4.92181 112.548 4.92181 112.235 5.23457C111.922 5.54733 111.922 6.05367 112.235 6.36641L113.367 7.50019L112.235 8.63203C111.922 8.94479 111.922 9.45208 112.235 9.76484C112.548 10.0773 113.055 10.0775 113.368 9.76484L114.5 8.63301L115.633 9.76484Z" fill="#0ABF00"/>
</svg>
