<svg width="29" height="29" viewBox="0 0 29 29" fill="none" xmlns="http://www.w3.org/2000/svg">
<path d="M7.19766 8.20725C7.47294 7.93208 7.91948 7.932 8.19473 8.20725C8.46969 8.48251 8.4698 8.92912 8.19473 9.20432L7.19668 10.2004L8.19375 11.1975C8.46903 11.4728 8.46903 11.9193 8.19375 12.1946C7.91847 12.4698 7.47193 12.4698 7.19668 12.1946L6.19961 11.1975L5.20352 12.1946C4.92824 12.4698 4.48172 12.4698 4.20644 12.1946C3.93138 11.9193 3.93124 11.4727 4.20644 11.1975L5.20254 10.2004L4.20644 9.20432C3.93119 8.92906 3.93124 8.48253 4.20644 8.20725C4.48172 7.93197 4.92824 7.93197 5.20352 8.20725L6.19961 9.20334L7.19766 8.20725Z" fill="#0ABF00"/>
<path d="M8.1933 13.2037C8.46858 12.9284 8.46858 12.4821 8.1933 12.2068C7.91802 11.9316 7.47171 11.9316 7.19643 12.2068L4.20581 15.1975C3.93054 15.4727 3.93054 15.9191 4.20581 16.1943C4.48109 16.4696 4.92741 16.4696 5.20269 16.1943L8.1933 13.2037Z" fill="#0ABF00"/>
<path d="M4.20581 13.2035C3.93053 12.9283 3.93053 12.482 4.20581 12.2067C4.48109 11.9314 4.9274 11.9314 5.20268 12.2067L8.1933 15.1973C8.46858 15.4726 8.46858 15.9189 8.1933 16.1942C7.91802 16.4694 7.4717 16.4694 7.19642 16.1942L4.20581 13.2035Z" fill="#0ABF00"/>
<path d="M7.19696 20.1941C7.47224 20.4694 7.91855 20.4694 8.19383 20.1941C8.46911 19.9188 8.46911 19.4725 8.19383 19.1973L5.20322 16.2066C4.92794 15.9314 4.48162 15.9314 4.20635 16.2066C3.93107 16.4819 3.93107 16.9282 4.20635 17.2035L7.19696 20.1941Z" fill="#0ABF00"/>
<path d="M7.19713 16.2066C7.47241 15.9314 7.91872 15.9314 8.194 16.2066C8.46928 16.4819 8.46928 16.9282 8.194 17.2035L5.20339 20.1941C4.92811 20.4694 4.48179 20.4694 4.20651 20.1941C3.93124 19.9188 3.93124 19.4725 4.20651 19.1972L7.19713 16.2066Z" fill="#0ABF00"/>
<path d="M11.1976 8.20749C11.4729 7.93221 11.9194 7.93221 12.1947 8.20749C12.4698 8.48272 12.4698 8.92833 12.1947 9.20358L11.1976 10.2007L12.1947 11.1977C12.4699 11.473 12.47 11.9195 12.1947 12.1948C11.9194 12.47 11.4729 12.47 11.1976 12.1948L10.2006 11.1977L9.20446 12.1948C8.92923 12.47 8.48268 12.4699 8.20739 12.1948C7.93212 11.9195 7.93212 11.473 8.20739 11.1977L9.20349 10.2007L8.20739 9.20358C7.93218 8.92831 7.93216 8.48275 8.20739 8.20749C8.48265 7.93223 8.9282 7.93227 9.20349 8.20749L10.2006 9.20358L11.1976 8.20749Z" fill="#0ABF00"/>
<path d="M11.1982 20.1938C11.4735 20.4691 11.9198 20.4691 12.1951 20.1938C12.4704 19.9185 12.4704 19.4722 12.1951 19.1969L9.20449 16.2063C8.92921 15.931 8.48289 15.931 8.20761 16.2063C7.93234 16.4816 7.93234 16.9279 8.20761 17.2032L11.1982 20.1938Z" fill="#0ABF00"/>
<path d="M11.1984 16.2063C11.4737 15.931 11.92 15.931 12.1953 16.2063C12.4705 16.4816 12.4705 16.9279 12.1953 17.2032L9.20465 20.1938C8.92938 20.4691 8.48306 20.4691 8.20778 20.1938C7.9325 19.9185 7.9325 19.4722 8.20778 19.1969L11.1984 16.2063Z" fill="#0ABF00"/>
<path d="M19.1975 8.20725C19.4728 7.93212 19.9193 7.93202 20.1946 8.20725C20.4696 8.48249 20.4696 8.92909 20.1946 9.20432L19.1965 10.2004L20.1936 11.1975C20.4689 11.4728 20.4689 11.9193 20.1936 12.1946C19.9183 12.4698 19.4718 12.4698 19.1965 12.1946L18.1995 11.1975L17.2034 12.1946C16.9281 12.4698 16.4816 12.4698 16.2063 12.1946C15.9313 11.9193 15.9311 11.4727 16.2063 11.1975L17.2024 10.2004L16.2063 9.20432C15.931 8.92905 15.931 8.48253 16.2063 8.20725C16.4816 7.93197 16.9281 7.93197 17.2034 8.20725L18.1995 9.20334L19.1975 8.20725Z" fill="#0ABF00"/>
<path d="M19.1976 20.1942C19.4729 20.4694 19.9192 20.4694 20.1945 20.1942C20.4697 19.9189 20.4697 19.4726 20.1945 19.1973L17.2038 16.2067C16.9286 15.9314 16.4822 15.9314 16.207 16.2067C15.9317 16.4819 15.9317 16.9283 16.207 17.2035L19.1976 20.1942Z" fill="#0ABF00"/>
<path d="M19.1978 16.2067C19.473 15.9314 19.9193 15.9314 20.1946 16.2067C20.4699 16.4819 20.4699 16.9283 20.1946 17.2035L17.204 20.1941C16.9287 20.4694 16.4824 20.4694 16.2071 20.1941C15.9319 19.9189 15.9319 19.4726 16.2071 19.1973L19.1978 16.2067Z" fill="#0ABF00"/>
<path d="M16.1936 7.1969C16.4689 7.47218 16.4689 7.91869 16.1936 8.19397C15.9184 8.46908 15.4728 8.46905 15.1975 8.19397L14.2005 7.1969L13.2034 8.19397C12.9281 8.4692 12.4816 8.46923 12.2063 8.19397C11.9311 7.9187 11.9311 7.47217 12.2063 7.1969L13.2034 6.19983L12.2063 5.20374C11.9311 4.9285 11.9312 4.48195 12.2063 4.20667C12.4816 3.93139 12.9281 3.93139 13.2034 4.20667L14.2005 5.20276L15.1975 4.20667C15.4728 3.93146 15.9184 3.93143 16.1936 4.20667C16.4689 4.48192 16.4688 4.92748 16.1936 5.20276L15.1975 6.19983L16.1936 7.1969Z" fill="#0ABF00"/>
<path d="M20.1937 7.19725C20.4688 7.47254 20.4689 7.91909 20.1937 8.19432C19.9184 8.46934 19.4718 8.46938 19.1966 8.19432L18.2005 7.19627L17.2034 8.19334C16.9282 8.46862 16.4816 8.46862 16.2064 8.19334C15.9311 7.91806 15.9311 7.47154 16.2064 7.19627L17.2034 6.1992L16.2064 5.20311C15.9311 4.92783 15.9311 4.48132 16.2064 4.20604C16.4817 3.93104 16.9283 3.93086 17.2034 4.20604L18.2005 5.20213L19.1966 4.20604C19.4719 3.93077 19.9184 3.93079 20.1937 4.20604C20.469 4.48132 20.469 4.92783 20.1937 5.20311L19.1976 6.1992L20.1937 7.19725Z" fill="#0ABF00"/>
<path d="M24.1946 19.1968C24.4696 19.472 24.4696 19.9186 24.1946 20.1938C23.9193 20.4691 23.4728 20.469 23.1975 20.1938L22.2004 19.1968L21.2034 20.1938C20.9281 20.4689 20.4815 20.4691 20.2063 20.1938C19.9311 19.9186 19.9312 19.4721 20.2063 19.1968L21.2034 18.1997L20.2063 17.2036C19.9311 16.9284 19.9313 16.4818 20.2063 16.2065C20.4816 15.9313 20.9281 15.9313 21.2034 16.2065L22.2004 17.2026L23.1975 16.2065C23.4728 15.9313 23.9193 15.9313 24.1946 16.2065C24.4693 16.4817 24.4693 16.9275 24.1946 17.2026L23.1975 18.1997L24.1946 19.1968Z" fill="#0ABF00"/>
<path d="M11.1969 8.19482C11.4722 8.4701 11.9185 8.4701 12.1938 8.19482C12.469 7.91954 12.469 7.47322 12.1938 7.19795L9.20315 4.20733C8.92787 3.93205 8.48156 3.93205 8.20628 4.20733C7.931 4.48261 7.931 4.92892 8.20628 5.2042L11.1969 8.19482Z" fill="#0ABF00"/>
<path d="M11.1971 4.20733C11.4723 3.93205 11.9187 3.93205 12.1939 4.20733C12.4692 4.48261 12.4692 4.92892 12.1939 5.2042L9.20332 8.19481C8.92804 8.47009 8.48173 8.47009 8.20645 8.19481C7.93117 7.91954 7.93117 7.47322 8.20645 7.19794L11.1971 4.20733Z" fill="#0ABF00"/>
<path d="M16.1942 23.1977C16.4693 23.473 16.4694 23.9196 16.1942 24.1948C15.9189 24.4698 15.4723 24.4699 15.1971 24.1948L14.201 23.1968L13.2039 24.1938C12.9286 24.4691 12.4821 24.4691 12.2069 24.1938C11.9316 23.9186 11.9316 23.472 12.2069 23.1968L13.2039 22.1997L12.2069 21.2036C11.9316 20.9283 11.9316 20.4818 12.2069 20.2065C12.4822 19.9315 12.9287 19.9313 13.2039 20.2065L14.201 21.2026L15.1971 20.2065C15.4724 19.9313 15.9189 19.9313 16.1942 20.2065C16.4694 20.4818 16.4694 20.9283 16.1942 21.2036L15.1981 22.1997L16.1942 23.1977Z" fill="#0ABF00"/>
<path d="M16.1946 27.1968C16.4696 27.472 16.4696 27.9186 16.1946 28.1938C15.9193 28.4691 15.4728 28.469 15.1975 28.1938L14.2004 27.1968L13.2034 28.1938C12.9281 28.4689 12.4815 28.4691 12.2063 28.1938C11.9311 27.9186 11.9312 27.4721 12.2063 27.1968L13.2034 26.1997L12.2063 25.2036C11.9311 24.9284 11.9313 24.4818 12.2063 24.2065C12.4816 23.9313 12.9281 23.9313 13.2034 24.2065L14.2004 25.2026L15.1975 24.2065C15.4728 23.9313 15.9193 23.9313 16.1946 24.2065C16.4693 24.4817 16.4693 24.9275 16.1946 25.2026L15.1975 26.1997L16.1946 27.1968Z" fill="#0ABF00"/>
<path d="M16.1937 3.19767C16.4689 3.47294 16.4689 3.9185 16.1937 4.19376C15.9184 4.46901 15.4729 4.46897 15.1976 4.19376L14.2005 3.19669L13.2034 4.19376C12.9282 4.46904 12.4816 4.46904 12.2064 4.19376C11.9312 3.91847 11.9311 3.47193 12.2064 3.19669L13.2034 2.19962L12.2064 1.20352C11.9311 0.928244 11.9311 0.481722 12.2064 0.206455C12.4816 -0.0687924 12.9282 -0.068783 13.2034 0.206455L14.2005 1.20255L15.1976 0.206455C15.4728 -0.0685857 15.9184 -0.0686477 16.1937 0.206455C16.4689 0.481733 16.4689 0.928246 16.1937 1.20353L15.1976 2.19962L16.1937 3.19767Z" fill="#0ABF00"/>
<path d="M4.19371 15.1975C4.46891 15.4728 4.46896 15.9194 4.19371 16.1946C3.91846 16.4698 3.4719 16.4698 3.19664 16.1946L2.19957 15.1966L1.2025 16.1936C0.927225 16.4689 0.481687 16.4689 0.20641 16.1936C-0.0687725 15.9184 -0.0688339 15.4728 0.20641 15.1975L1.20348 14.2005L0.20641 13.2034C-0.068822 12.9282 -0.0687842 12.4826 0.20641 12.2073C0.481682 11.932 0.927223 11.9321 1.2025 12.2073L2.19957 13.2034L3.19664 12.2063C3.4719 11.9312 3.91846 11.9312 4.19371 12.2063C4.46896 12.4816 4.46889 12.9281 4.19371 13.2034L3.19664 14.2005L4.19371 15.1975Z" fill="#0ABF00"/>
<path d="M28.1946 15.1972C28.4697 15.4724 28.4696 15.919 28.1946 16.1942C27.9193 16.4695 27.4728 16.4694 27.1975 16.1942L26.2004 15.1972L25.2034 16.1942C24.9281 16.4694 24.4815 16.4695 24.2063 16.1942C23.9311 15.919 23.9312 15.4724 24.2063 15.1972L25.2034 14.2001L24.2063 13.204C23.9311 12.9288 23.9313 12.4822 24.2063 12.2069C24.4816 11.9316 24.9281 11.9316 25.2034 12.2069L26.2004 13.203L27.1975 12.2069C27.4728 11.9316 27.9193 11.9316 28.1946 12.2069C28.4693 12.4821 28.4693 12.9278 28.1946 13.203L27.1975 14.2001L28.1946 15.1972Z" fill="#0ABF00"/>
<path d="M20.1941 23.1973C20.4691 23.4725 20.4691 23.9191 20.1941 24.1943C19.9189 24.4696 19.4723 24.4695 19.197 24.1943L18.1999 23.1973L17.2029 24.1943C16.9276 24.4694 16.481 24.4695 16.2058 24.1943C15.9306 23.9191 15.9308 23.4726 16.2058 23.1973L17.2029 22.2002L16.2058 21.2041C15.9306 20.9289 15.9308 20.4823 16.2058 20.207C16.4811 19.9318 16.9276 19.9318 17.2029 20.207L18.1999 21.2031L19.197 20.207C19.4723 19.9318 19.9188 19.9318 20.1941 20.207C20.4688 20.4822 20.4688 20.928 20.1941 21.2031L19.197 22.2002L20.1941 23.1973Z" fill="#0ABF00"/>
<path d="M11.1967 24.1961C11.4719 24.4714 11.9183 24.4714 12.1935 24.1961C12.4688 23.9209 12.4688 23.4745 12.1935 23.1993L9.20291 20.2086C8.92764 19.9334 8.48132 19.9334 8.20604 20.2086C7.93076 20.4839 7.93076 20.9302 8.20604 21.2055L11.1967 24.1961Z" fill="#0ABF00"/>
<path d="M11.1968 20.2086C11.4721 19.9334 11.9184 19.9334 12.1937 20.2086C12.469 20.4839 12.469 20.9302 12.1937 21.2055L9.20308 24.1961C8.9278 24.4714 8.48149 24.4714 8.20621 24.1961C7.93093 23.9209 7.93093 23.4745 8.20621 23.1993L11.1968 20.2086Z" fill="#0ABF00"/>
<path d="M23.1973 8.2068C23.4726 7.93168 23.9192 7.93167 24.1944 8.2068C24.4697 8.48203 24.4696 8.92858 24.1944 9.20387L23.1973 10.2009L24.1944 11.198C24.4694 11.4733 24.4696 11.9199 24.1944 12.1951C23.9192 12.4702 23.4726 12.47 23.1973 12.1951L22.2003 11.198L21.2032 12.1951C20.928 12.4698 20.4823 12.4698 20.2071 12.1951C19.9318 11.9198 19.9318 11.4733 20.2071 11.198L21.2032 10.2009L20.2061 9.20387C19.9312 8.92858 19.931 8.48198 20.2061 8.2068C20.4813 7.93162 20.9279 7.93181 21.2032 8.2068L22.2003 9.20387L23.1973 8.2068Z" fill="#0ABF00"/>
<path d="M24.1947 13.204C24.47 12.9287 24.47 12.4824 24.1947 12.2071C23.9195 11.9319 23.4732 11.9319 23.1979 12.2071L20.2073 15.1978C19.932 15.473 19.932 15.9194 20.2073 16.1946C20.4825 16.4699 20.9289 16.4699 21.2041 16.1946L24.1947 13.204Z" fill="#0ABF00"/>
<path d="M20.2073 13.2038C19.932 12.9286 19.932 12.4823 20.2073 12.207C20.4825 11.9317 20.9288 11.9317 21.2041 12.207L24.1947 15.1976C24.47 15.4729 24.47 15.9192 24.1947 16.1945C23.9195 16.4697 23.4731 16.4697 23.1979 16.1945L20.2073 13.2038Z" fill="#0ABF00"/>
</svg>
