<svg width="8" height="8" viewBox="0 0 8 8" fill="none" xmlns="http://www.w3.org/2000/svg">
<path d="M5.81289 0.376149C6.31338 -0.124298 7.12489 -0.124298 7.62539 0.376149C8.12577 0.876577 8.12578 1.68725 7.62539 2.18767L5.81289 3.9992L7.62539 5.8117C8.12579 6.31208 8.12572 7.12378 7.62539 7.6242C7.12494 8.12455 6.31342 8.12441 5.81289 7.6242L4.00039 5.8117L2.18789 7.62517C1.68736 8.12529 0.875771 8.12551 0.375386 7.62517C-0.124983 7.1248 -0.124854 6.31312 0.375386 5.81267L2.18789 4.00017L0.375386 2.18767C-0.125129 1.68724 -0.125129 0.8756 0.375386 0.375172C0.875924 -0.124958 1.68747 -0.125156 2.18789 0.375172L4.00039 2.18767L5.81289 0.376149Z" fill="#0ABF00"/>
</svg>
