<svg width="11" height="11" viewBox="0 0 11 11" fill="none" xmlns="http://www.w3.org/2000/svg">
<path d="M10.2641 8.78086C10.399 8.64553 10.6175 8.64542 10.7524 8.78086C10.8872 8.91675 10.887 9.138 10.7524 9.27402L10.2641 9.76523L10.7524 10.2584C10.8872 10.3943 10.887 10.6146 10.7524 10.7506C10.6174 10.8866 10.3991 10.8866 10.2641 10.7506L9.7758 10.2584L9.28654 10.7506C9.15157 10.8866 8.93226 10.8866 8.79729 10.7506C8.66277 10.6146 8.66252 10.3943 8.79729 10.2584L9.28654 9.76523L8.79729 9.27402C8.66242 9.13802 8.66235 8.91681 8.79729 8.78086C8.93225 8.64522 9.15167 8.64509 9.28654 8.78086L9.7758 9.27305L10.2641 8.78086ZM1.57951 8.78086C1.7155 8.64589 1.93668 8.64589 2.07268 8.78086C2.20812 8.91579 2.20828 9.1343 2.07268 9.26914L1.57951 9.75742L2.07268 10.2467C2.20845 10.3817 2.2086 10.601 2.07268 10.7359C1.9367 10.8706 1.71543 10.8707 1.57951 10.7359L1.08733 10.2467L0.595138 10.7359C0.459153 10.8706 0.237874 10.8707 0.101974 10.7359C-0.0338244 10.6011 -0.0335891 10.3817 0.101974 10.2467L0.594161 9.75742L0.101974 9.26914C-0.0335132 9.13437 -0.0332502 8.91579 0.101974 8.78086C0.237966 8.64589 0.459145 8.64589 0.595138 8.78086L1.08733 9.26914L1.57951 8.78086ZM8.08928 6.60801C8.22425 6.47202 8.44356 6.47202 8.57854 6.60801C8.71284 6.744 8.71316 6.9644 8.57854 7.10019L8.09025 7.59238L8.57854 8.08457C8.71325 8.22055 8.71335 8.44181 8.57854 8.57773C8.44365 8.71337 8.22419 8.71333 8.08928 8.57773L7.601 8.08457L7.11174 8.57773C6.97692 8.71313 6.75834 8.71303 6.62346 8.57773C6.48857 8.44183 6.48874 8.22058 6.62346 8.08457L7.11272 7.59238L6.62346 7.10019C6.48857 6.96429 6.48874 6.74402 6.62346 6.60801C6.75843 6.47204 6.97677 6.47202 7.11174 6.60801L7.601 7.10019L8.08928 6.60801ZM3.75432 6.60703C3.89028 6.47215 4.11052 6.47219 4.2465 6.60703C4.3823 6.74202 4.38243 6.96138 4.2465 7.09629L3.75334 7.58457L4.2465 8.07383C4.38218 8.20883 4.38239 8.42724 4.2465 8.56211C4.11057 8.69678 3.89025 8.69679 3.75432 8.56211L3.26115 8.07285L2.76897 8.56211C2.63302 8.69673 2.41269 8.69679 2.27678 8.56211C2.14097 8.42726 2.1412 8.20881 2.27678 8.07383L2.76897 7.58457L2.27678 7.09629C2.14084 6.96137 2.14096 6.74202 2.27678 6.60703C2.41271 6.47211 2.63296 6.47223 2.76897 6.60703L3.26115 7.09531L3.75432 6.60703ZM5.92717 4.44883C6.0631 4.31419 6.28441 4.31418 6.42033 4.44883C6.55621 4.58369 6.55599 4.80309 6.42033 4.93809L5.92717 5.42637L6.42033 5.91562C6.55598 6.05041 6.55569 6.26894 6.42033 6.40391C6.28434 6.53888 6.06316 6.53888 5.92717 6.40391L5.43498 5.91465L4.94279 6.40391C4.8068 6.53888 4.5866 6.53888 4.45061 6.40391C4.3148 6.26892 4.31467 6.05054 4.45061 5.91562L4.94279 5.42637L4.45061 4.93809C4.31477 4.8031 4.31467 4.58375 4.45061 4.44883C4.58655 4.3146 4.80699 4.31437 4.94279 4.44883L5.43498 4.93711L5.92717 4.44883ZM3.7426 2.275C3.87736 2.13966 4.09598 2.13987 4.23088 2.275C4.36581 2.41095 4.36573 2.63216 4.23088 2.76816L3.7426 3.26035L4.23088 3.75254C4.36581 3.88849 4.36573 4.1097 4.23088 4.2457C4.09595 4.38125 3.87747 4.38134 3.7426 4.2457L3.25432 3.75254L2.76506 4.2457C2.63008 4.38157 2.41073 4.38165 2.2758 4.2457C2.14113 4.10969 2.14094 3.88843 2.2758 3.75254L2.76506 3.26035L2.2758 2.76816C2.14118 2.63214 2.14095 2.41087 2.2758 2.275C2.41063 2.13934 2.63011 2.13953 2.76506 2.275L3.25432 2.76719L3.7426 2.275ZM8.10197 2.275C8.23795 2.14004 8.45817 2.14007 8.59416 2.275C8.72994 2.40999 8.73008 2.62838 8.59416 2.76328L8.101 3.25156L8.59416 3.74082C8.72994 3.87581 8.73008 4.09517 8.59416 4.23008C8.45824 4.36466 8.23789 4.36466 8.10197 4.23008L7.60881 3.74082L7.11662 4.23008C6.98068 4.36462 6.76033 4.36471 6.62443 4.23008C6.48846 4.09512 6.48849 3.8758 6.62443 3.74082L7.11662 3.25156L6.62443 2.76328C6.48873 2.62837 6.48875 2.40992 6.62443 2.275C6.76039 2.14006 6.98062 2.14013 7.11662 2.275L7.60881 2.76328L8.10197 2.275ZM1.56682 0.102148C1.70177 -0.0338215 1.9211 -0.0337762 2.05608 0.102148C2.19078 0.238103 2.19081 0.458403 2.05608 0.594336L1.56779 1.08652L2.05608 1.57969C2.19073 1.71567 2.19084 1.93597 2.05608 2.07187C1.92107 2.20747 1.70166 2.20773 1.56682 2.07187L1.07854 1.57871L0.589278 2.07187C0.454316 2.20729 0.235807 2.20753 0.100997 2.07187C-0.0337684 1.93602 -0.0335339 1.71569 0.100997 1.57969L0.590255 1.08652L0.100997 0.594336C-0.0337757 0.458472 -0.0335557 0.238149 0.100997 0.102148C0.235949 -0.0337724 0.454316 -0.0337558 0.589278 0.102148L1.07854 0.594336L1.56682 0.102148ZM10.2748 0.101172C10.4108 -0.0337401 10.632 -0.0337076 10.768 0.101172C10.9038 0.236123 10.9038 0.455512 10.768 0.590429L10.2748 1.07871L10.768 1.56797C10.9035 1.70285 10.9035 1.92136 10.768 2.05625C10.6321 2.19116 10.4108 2.19103 10.2748 2.05625L9.78264 1.56699L9.29045 2.05625C9.15452 2.19116 8.93427 2.19103 8.79826 2.05625C8.66229 1.92128 8.66228 1.70293 8.79826 1.56797L9.29045 1.07871L8.79826 0.590429C8.66227 0.455457 8.66227 0.236144 8.79826 0.101172C8.93424 -0.0333317 9.15459 -0.0335224 9.29045 0.101172L9.78264 0.589453L10.2748 0.101172Z" fill="#262626"/>
</svg>
