<svg width="11" height="11" viewBox="0 0 11 11" fill="none" xmlns="http://www.w3.org/2000/svg">
<path d="M5.89419 8.74769C6.0301 8.61286 6.25038 8.61298 6.38638 8.74769C6.52237 8.88266 6.52237 9.10198 6.38638 9.23695L5.89321 9.72523L6.38638 10.2145C6.52225 10.3495 6.52233 10.5678 6.38638 10.7028C6.25038 10.8376 6.03014 10.8377 5.89419 10.7028L5.40103 10.2135L4.90884 10.7028C4.77283 10.8376 4.55258 10.8377 4.41665 10.7028C4.28094 10.5679 4.28102 10.3494 4.41665 10.2145L4.90884 9.72523L4.41665 9.23695C4.28082 9.10199 4.28078 8.88262 4.41665 8.74769C4.55254 8.61282 4.77282 8.61302 4.90884 8.74769L5.40103 9.23597L5.89419 8.74769ZM5.89321 6.59046C6.02917 6.45553 6.25038 6.45561 6.38638 6.59046C6.52234 6.72541 6.52229 6.94474 6.38638 7.07972L5.89321 7.568L6.38638 8.05726C6.52211 8.19214 6.52199 8.41059 6.38638 8.54554C6.25037 8.68035 6.02915 8.68046 5.89321 8.54554L5.40103 8.05628L4.90884 8.54554C4.77283 8.68035 4.55259 8.68046 4.41665 8.54554C4.28077 8.41062 4.28084 8.19223 4.41665 8.05726L4.90884 7.568L4.41665 7.07972C4.28075 6.9448 4.28084 6.72544 4.41665 6.59046C4.55262 6.45594 4.77296 6.45579 4.90884 6.59046L5.40103 7.07874L5.89321 6.59046ZM1.56802 4.41664C1.70287 4.28108 1.92139 4.28117 2.0563 4.41664C2.19113 4.55264 2.19122 4.77385 2.0563 4.9098L1.56802 5.40199L2.0563 5.89417C2.19113 6.03018 2.19122 6.25139 2.0563 6.38734C1.92142 6.52284 1.7029 6.52284 1.56802 6.38734L1.07974 5.89417L0.590479 6.38734C0.455542 6.52316 0.236165 6.52315 0.101221 6.38734C-0.0337429 6.25135 -0.0337379 6.03017 0.101221 5.89417L0.590479 5.40199L0.101221 4.9098C-0.0336916 4.7738 -0.0337315 4.55261 0.101221 4.41664C0.236143 4.28076 0.455514 4.28083 0.590479 4.41664L1.07974 4.90882L1.56802 4.41664ZM3.72427 4.41664C3.85921 4.28067 4.07855 4.28074 4.21353 4.41664C4.34844 4.55257 4.34833 4.77282 4.21353 4.90882L3.72524 5.40101L4.21353 5.89417C4.3484 6.03013 4.34837 6.25038 4.21353 6.38636C4.07854 6.52225 3.85921 6.52232 3.72427 6.38636L3.23599 5.8932L2.74673 6.38636C2.61174 6.52213 2.39335 6.52228 2.25845 6.38636C2.12367 6.2504 2.12365 6.03012 2.25845 5.89417L2.74771 5.40101L2.25845 4.90882C2.12372 4.77285 2.12365 4.55257 2.25845 4.41664C2.39332 4.2808 2.61175 4.28098 2.74673 4.41664L3.23599 4.90882L3.72427 4.41664ZM8.0563 4.41664C8.19118 4.28096 8.40965 4.28105 8.54458 4.41664C8.67952 4.55259 8.67945 4.77282 8.54458 4.90882L8.0563 5.40101L8.54458 5.89417C8.67954 6.03015 8.67951 6.25037 8.54458 6.38636C8.4096 6.52219 8.19122 6.5223 8.0563 6.38636L7.56802 5.8932L7.07876 6.38636C6.94377 6.52219 6.72442 6.5223 6.5895 6.38636C6.45501 6.25042 6.4549 6.03005 6.5895 5.89417L7.07876 5.40101L6.5895 4.90882C6.45504 4.77285 6.45485 4.55249 6.5895 4.41664C6.72443 4.28069 6.94378 4.28079 7.07876 4.41664L7.56802 4.90882L8.0563 4.41664ZM10.2135 4.41664C10.3485 4.28083 10.5679 4.2807 10.7028 4.41664C10.8372 4.55254 10.8373 4.77294 10.7028 4.90882L10.2145 5.40101L10.7028 5.89417C10.8372 6.03011 10.8373 6.25051 10.7028 6.38636C10.5679 6.52229 10.3485 6.52215 10.2135 6.38636L9.72524 5.8932L9.23599 6.38636C9.10112 6.52211 8.88266 6.52196 8.74771 6.38636C8.61274 6.25038 8.61275 6.03017 8.74771 5.89417L9.23696 5.40101L8.74771 4.90882C8.61273 4.77283 8.61273 4.55263 8.74771 4.41664C8.88269 4.28088 9.10109 4.28073 9.23599 4.41664L9.72524 4.90882L10.2135 4.41664ZM5.89419 4.41566C6.0301 4.28076 6.25037 4.28092 6.38638 4.41566C6.52237 4.55063 6.52237 4.76897 6.38638 4.90394L5.89321 5.39222L6.38638 5.88148C6.52237 6.01645 6.52237 6.23576 6.38638 6.37074C6.25039 6.50542 6.0301 6.50554 5.89419 6.37074L5.40103 5.88148L4.90884 6.37074C4.77282 6.50538 4.55254 6.50559 4.41665 6.37074C4.28085 6.23575 4.28074 6.01639 4.41665 5.88148L4.90884 5.39222L4.41665 4.90394C4.28112 4.769 4.281 4.55052 4.41665 4.41566C4.55255 4.28078 4.77282 4.28097 4.90884 4.41566L5.40103 4.90394L5.89419 4.41566ZM5.89419 2.25843C6.03017 2.12388 6.2505 2.1237 6.38638 2.25843C6.52233 2.39341 6.52236 2.61273 6.38638 2.74769L5.89321 3.23597L6.38638 3.72523C6.52212 3.86013 6.52206 4.07857 6.38638 4.21351C6.25039 4.34822 6.0301 4.34834 5.89419 4.21351L5.40103 3.72425L4.90884 4.21351C4.77284 4.34822 4.55256 4.34836 4.41665 4.21351C4.2808 4.07861 4.28092 3.8602 4.41665 3.72523L4.90884 3.23597L4.41665 2.74769C4.28074 2.6128 4.2809 2.39343 4.41665 2.25843C4.55261 2.12383 4.77294 2.12373 4.90884 2.25843L5.40103 2.74671L5.89419 2.25843ZM5.89419 0.101206C6.03017 -0.033751 6.25038 -0.0337196 6.38638 0.101206C6.52231 0.236183 6.52235 0.454534 6.38638 0.589487L5.89321 1.07777L6.38638 1.56703C6.52231 1.702 6.52235 1.92133 6.38638 2.05628C6.25039 2.1907 6.03002 2.19095 5.89419 2.05628L5.40103 1.56703L4.90884 2.05628C4.77282 2.19067 4.55246 2.191 4.41665 2.05628C4.28075 1.9214 4.28092 1.70202 4.41665 1.56703L4.90884 1.07777L4.41665 0.589487C4.28102 0.454647 4.28118 0.236145 4.41665 0.101206C4.55261 -0.0337326 4.77284 -0.0336642 4.90884 0.101206L5.40103 0.589487L5.89419 0.101206Z" fill="#262626"/>
</svg>
