<svg width="11" height="11" viewBox="0 0 11 11" fill="none" xmlns="http://www.w3.org/2000/svg">
<path d="M10.2633 8.78146C10.3981 8.64586 10.6166 8.64602 10.7515 8.78146C10.8865 8.91746 10.8865 9.13864 10.7515 9.27463L10.2633 9.76584L10.7515 10.259C10.8865 10.395 10.8864 10.6152 10.7515 10.7512C10.6166 10.8872 10.3982 10.8872 10.2633 10.7512L9.77497 10.259L9.28571 10.7512C9.15074 10.8872 8.93143 10.8872 8.79646 10.7512C8.66204 10.6152 8.66173 10.3948 8.79646 10.259L9.28571 9.76584L8.79646 9.27463C8.6617 9.13862 8.66156 8.91739 8.79646 8.78146C8.93136 8.64555 9.15072 8.64569 9.28571 8.78146L9.77497 9.27365L10.2633 8.78146ZM1.57966 8.78049C1.71569 8.64593 1.93697 8.64566 2.07282 8.78049C2.20823 8.91527 2.20804 9.13387 2.07282 9.26877L1.57966 9.75705L2.07282 10.2463C2.20855 10.3812 2.20835 10.6006 2.07282 10.7356C1.93683 10.8705 1.71565 10.8705 1.57966 10.7356L1.08747 10.2463L0.595284 10.7356C0.459287 10.8705 0.238092 10.8705 0.10212 10.7356C-0.0337548 10.6006 -0.0336825 10.3813 0.10212 10.2463L0.594308 9.75705L0.10212 9.26877C-0.0334432 9.13392 -0.0333432 8.9154 0.10212 8.78049C0.238146 8.64593 0.459432 8.64566 0.595284 8.78049L1.08747 9.26877L1.57966 8.78049ZM8.08845 6.60764C8.2233 6.47177 8.4427 6.47201 8.57771 6.60764C8.71224 6.74361 8.71241 6.96395 8.57771 7.09982L8.08942 7.59201L8.57771 8.0842C8.71265 8.22016 8.7126 8.44136 8.57771 8.57736C8.44275 8.71325 8.2234 8.71325 8.08845 8.57736L7.60017 8.0842L7.11091 8.57736C6.97603 8.71301 6.75755 8.71294 6.62263 8.57736C6.48804 8.44137 6.48786 8.22008 6.62263 8.0842L7.11189 7.59201L6.62263 7.09982C6.48804 6.96383 6.48786 6.74351 6.62263 6.60764C6.75748 6.47179 6.97592 6.47201 7.11091 6.60764L7.60017 7.09982L8.08845 6.60764ZM3.75349 6.60666C3.88932 6.47192 4.10966 6.47221 4.24567 6.60666C4.38166 6.74163 4.38166 6.96094 4.24567 7.09592L3.75251 7.5842L4.24567 8.07346C4.38154 8.20844 4.38162 8.42681 4.24567 8.56174C4.10968 8.69663 3.88946 8.69667 3.75349 8.56174L3.26032 8.07248L2.76814 8.56174C2.63213 8.69658 2.4119 8.69667 2.27595 8.56174C2.14048 8.42681 2.14034 8.2083 2.27595 8.07346L2.76814 7.5842L2.27595 7.09592C2.14036 6.96092 2.1401 6.7415 2.27595 6.60666C2.41175 6.47188 2.6321 6.47225 2.76814 6.60666L3.26032 7.09494L3.75349 6.60666ZM5.92634 4.44943C6.06222 4.31458 6.28348 4.3148 6.4195 4.44943C6.55547 4.58438 6.55542 4.80371 6.4195 4.93869L5.92634 5.42697L6.4195 5.91623C6.55523 6.05111 6.55511 6.26956 6.4195 6.40451C6.28351 6.53942 6.06231 6.53946 5.92634 6.40451L5.43415 5.91525L4.94196 6.40451C4.80597 6.53942 4.58575 6.53946 4.44978 6.40451C4.31409 6.26954 4.31394 6.05111 4.44978 5.91623L4.94196 5.42697L4.44978 4.93869C4.31407 4.80372 4.31393 4.58432 4.44978 4.44943C4.58567 4.31498 4.80607 4.31499 4.94196 4.44943L5.43415 4.93771L5.92634 4.44943ZM3.74275 2.27561C3.87762 2.14033 4.09621 2.14024 4.23103 2.27561C4.36581 2.41151 4.36568 2.63278 4.23103 2.76877L3.74275 3.26096L4.23103 3.75314C4.36581 3.88905 4.36568 4.11032 4.23103 4.24631C4.09613 4.38182 3.87762 4.38186 3.74275 4.24631L3.25446 3.75314L2.76521 4.24631C2.63025 4.38215 2.41089 4.38217 2.27595 4.24631C2.14098 4.11032 2.14099 3.88914 2.27595 3.75314L2.76521 3.26096L2.27595 2.76877C2.14104 2.63277 2.141 2.41158 2.27595 2.27561C2.41089 2.14002 2.63034 2.1399 2.76521 2.27561L3.25446 2.76779L3.74275 2.27561ZM8.10114 2.27561C8.23712 2.14065 8.45733 2.14068 8.59333 2.27561C8.72922 2.41059 8.72929 2.62895 8.59333 2.76389L8.10017 3.25217L8.59333 3.74143C8.72922 3.87641 8.72929 4.09575 8.59333 4.23068C8.45735 4.36498 8.23694 4.36526 8.10114 4.23068L7.60798 3.74143L7.11579 4.23068C6.97979 4.36495 6.75938 4.36531 6.6236 4.23068C6.48773 4.09583 6.48798 3.87643 6.6236 3.74143L7.11579 3.25217L6.6236 2.76389C6.48801 2.62908 6.48824 2.41055 6.6236 2.27561C6.75956 2.14067 6.97979 2.14074 7.11579 2.27561L7.60798 2.76389L8.10114 2.27561ZM1.56696 0.101777C1.7019 -0.033896 1.92132 -0.0339553 2.05622 0.101777C2.19084 0.237644 2.1907 0.458011 2.05622 0.593964L1.56794 1.08615L2.05622 1.57932C2.19079 1.71521 2.19073 1.93558 2.05622 2.0715C1.92125 2.2075 1.70194 2.2075 1.56696 2.0715L1.07868 1.57834L0.589425 2.0715C0.454494 2.20732 0.236086 2.2073 0.101143 2.0715C-0.0336499 1.9355 -0.03375 1.71525 0.101143 1.57932L0.590401 1.08615L0.101143 0.593964C-0.0336572 0.457959 -0.0337718 0.237711 0.101143 0.101777C0.236081 -0.0338471 0.454541 -0.0339349 0.589425 0.101777L1.07868 0.593964L1.56696 0.101777ZM10.274 0.101777C10.41 -0.0331682 10.6312 -0.0331134 10.7672 0.101777C10.903 0.236731 10.903 0.456086 10.7672 0.591035L10.274 1.07932L10.7672 1.56857C10.9028 1.70346 10.9027 1.92194 10.7672 2.05686C10.6312 2.19152 10.4099 2.19164 10.274 2.05686L9.78181 1.5676L9.28962 2.05686C9.15364 2.19152 8.93334 2.19164 8.79743 2.05686C8.66156 1.92198 8.66173 1.70356 8.79743 1.56857L9.28962 1.07932L8.79743 0.591035C8.66154 0.456156 8.66172 0.236773 8.79743 0.101777C8.93341 -0.03276 9.15375 -0.0329282 9.28962 0.101777L9.78181 0.590058L10.274 0.101777Z" fill="#0ABF00"/>
</svg>
