<svg width="11" height="11" viewBox="0 0 11 11" fill="none" xmlns="http://www.w3.org/2000/svg">
<path d="M5.89497 8.74857C6.03093 8.6137 6.25118 8.61373 6.38716 8.74857C6.5228 8.88358 6.52303 9.10298 6.38716 9.23783L5.894 9.72611L6.38716 10.2154C6.52268 10.3504 6.52299 10.5688 6.38716 10.7037C6.25128 10.8383 6.03094 10.8382 5.89497 10.7037L5.40181 10.2144L4.90962 10.7037C4.77373 10.8383 4.55338 10.8382 4.41743 10.7037C4.28161 10.5688 4.2818 10.3504 4.41743 10.2154L4.90962 9.72611L4.41743 9.23783C4.28148 9.1029 4.28156 8.88356 4.41743 8.74857C4.55337 8.61366 4.77362 8.61377 4.90962 8.74857L5.40181 9.23686L5.89497 8.74857ZM5.894 6.59037C6.02997 6.45572 6.25125 6.45561 6.38716 6.59037C6.52303 6.72522 6.52279 6.94463 6.38716 7.07963L5.894 7.56791L6.38716 8.05717C6.52279 8.19195 6.52249 8.41048 6.38716 8.54545C6.25117 8.68042 6.02999 8.68042 5.894 8.54545L5.40181 8.05619L4.90962 8.54545C4.77363 8.68042 4.55343 8.68042 4.41743 8.54545C4.2815 8.41047 4.28146 8.19212 4.41743 8.05717L4.90962 7.56791L4.41743 7.07963C4.28148 6.94465 4.28145 6.72533 4.41743 6.59037C4.55342 6.45612 4.77384 6.4558 4.90962 6.59037L5.40181 7.07865L5.894 6.59037ZM1.56782 4.41654C1.70256 4.28109 1.92116 4.28143 2.05611 4.41654C2.19108 4.55253 2.19108 4.77371 2.05611 4.90971L1.56782 5.40189L2.05611 5.89408C2.19108 6.03007 2.19108 6.25125 2.05611 6.38725C1.92118 6.52275 1.70268 6.52287 1.56782 6.38725L1.07954 5.89408L0.590285 6.38725C0.4553 6.52308 0.235949 6.52319 0.101027 6.38725C-0.033571 6.25124 -0.0337805 6.02996 0.101027 5.89408L0.590285 5.40189L0.101027 4.90971C-0.0335199 4.77369 -0.0337739 4.5524 0.101027 4.41654C0.23583 4.28078 0.455289 4.2811 0.590285 4.41654L1.07954 4.90873L1.56782 4.41654ZM3.72505 4.41654C3.86002 4.28093 4.07944 4.28076 4.21431 4.41654C4.34911 4.55236 4.34877 4.7727 4.21431 4.90873L3.72603 5.40092L4.21431 5.89408C4.34907 6.02993 4.34881 6.25026 4.21431 6.38627C4.07934 6.52226 3.86002 6.52226 3.72505 6.38627L3.23677 5.89311L2.74751 6.38627C2.61253 6.52214 2.39416 6.52222 2.25923 6.38627C2.12442 6.25027 2.12433 6.03002 2.25923 5.89408L2.74849 5.40092L2.25923 4.90873C2.12447 4.77272 2.12433 4.55246 2.25923 4.41654C2.39413 4.28105 2.61264 4.281 2.74751 4.41654L3.23677 4.90873L3.72505 4.41654ZM8.05708 4.41654C8.19198 4.28116 8.41053 4.28106 8.54536 4.41654C8.68021 4.5524 8.67995 4.77271 8.54536 4.90873L8.05708 5.40092L8.54536 5.89408C8.68023 6.02996 8.68 6.25025 8.54536 6.38627C8.41039 6.52226 8.19205 6.52226 8.05708 6.38627L7.5688 5.89311L7.07954 6.38627C6.94457 6.52226 6.72526 6.52226 6.59029 6.38627C6.45574 6.25027 6.45553 6.02995 6.59029 5.89408L7.07954 5.40092L6.59029 4.90873C6.45577 4.77271 6.45548 4.55238 6.59029 4.41654C6.72523 4.28089 6.94465 4.2808 7.07954 4.41654L7.5688 4.90873L8.05708 4.41654ZM10.2133 4.41654C10.3482 4.28079 10.5676 4.28089 10.7026 4.41654C10.8372 4.55245 10.8372 4.77279 10.7026 4.90873L10.2143 5.40092L10.7026 5.89408C10.8372 6.03001 10.8372 6.25035 10.7026 6.38627C10.5676 6.52226 10.3483 6.52226 10.2133 6.38627L9.72505 5.89311L9.23579 6.38627C9.10086 6.52208 8.88245 6.52206 8.74751 6.38627C8.61284 6.25026 8.61266 6.02998 8.74751 5.89408L9.23677 5.40092L8.74751 4.90873C8.61283 4.77271 8.61264 4.55244 8.74751 4.41654C8.8824 4.28084 9.10086 4.28091 9.23579 4.41654L9.72505 4.90873L10.2133 4.41654ZM5.89497 4.41654C6.03095 4.28159 6.25116 4.28162 6.38716 4.41654C6.52285 4.55154 6.52305 4.76995 6.38716 4.90482L5.894 5.39311L6.38716 5.88236C6.52285 6.01736 6.52305 6.23675 6.38716 6.37162C6.25127 6.50616 6.03089 6.50611 5.89497 6.37162L5.40181 5.88236L4.90962 6.37162C4.7737 6.50613 4.55333 6.50616 4.41743 6.37162C4.28146 6.23667 4.2815 6.01734 4.41743 5.88236L4.90962 5.39311L4.41743 4.90482C4.28173 4.76992 4.28176 4.55147 4.41743 4.41654C4.55339 4.2816 4.77362 4.28167 4.90962 4.41654L5.40181 4.90482L5.89497 4.41654ZM5.89497 2.25834C6.03097 2.12398 6.25135 2.12368 6.38716 2.25834C6.52304 2.39325 6.52294 2.61262 6.38716 2.7476L5.894 3.23588L6.38716 3.72514C6.52284 3.85997 6.52265 4.07846 6.38716 4.21342C6.25119 4.34837 6.03097 4.34833 5.89497 4.21342L5.40181 3.72416L4.90962 4.21342C4.77364 4.34838 4.55343 4.34835 4.41743 4.21342C4.2815 4.07844 4.28146 3.86009 4.41743 3.72514L4.90962 3.23588L4.41743 2.7476C4.28144 2.61262 4.28144 2.39331 4.41743 2.25834C4.55341 2.12393 4.77379 2.12371 4.90962 2.25834L5.40181 2.74662L5.89497 2.25834ZM5.89497 0.101113C6.03096 -0.033658 6.25123 -0.0337506 6.38716 0.101113C6.52303 0.236028 6.52295 0.454425 6.38716 0.589394L5.894 1.07768L6.38716 1.56693C6.52303 1.70185 6.52295 1.92122 6.38716 2.05619C6.25119 2.19087 6.03089 2.19094 5.89497 2.05619L5.40181 1.56693L4.90962 2.05619C4.77363 2.19083 4.55333 2.19099 4.41743 2.05619C4.28144 1.92122 4.28144 1.70191 4.41743 1.56693L4.90962 1.07768L4.41743 0.589394C4.28171 0.454468 4.2817 0.236032 4.41743 0.101113C4.55341 -0.0336395 4.77368 -0.0336952 4.90962 0.101113L5.40181 0.589394L5.89497 0.101113Z" fill="#0ABF00"/>
</svg>
