<svg width="26" height="26" viewBox="0 0 26 26" fill="none" xmlns="http://www.w3.org/2000/svg">
<circle cx="13" cy="13" r="13" fill="#0ABF00"/>
<path d="M6.35967 7.28154C6.73507 6.90616 7.34366 6.90615 7.71905 7.28154C8.09429 7.65693 8.09437 8.26556 7.71905 8.64091L6.35967 10.0003L7.71905 11.3597C8.09442 11.735 8.09441 12.3436 7.71905 12.719C7.34366 13.0944 6.73506 13.0944 6.35967 12.719L5.0003 11.3597L3.64092 12.719C3.26557 13.0944 2.65695 13.0943 2.28155 12.719C1.90615 12.3436 1.90615 11.7351 2.28155 11.3597L3.64092 10.0003L2.28155 8.64091C1.90615 8.26552 1.90615 7.65693 2.28155 7.28154C2.65694 6.90617 3.26553 6.90615 3.64092 7.28154L5.0003 8.64091L6.35967 7.28154Z" fill="white"/>
<path d="M22.3596 7.28146C22.7349 6.90613 23.3436 6.90622 23.719 7.28146C24.0944 7.65685 24.0944 8.26544 23.719 8.64084L22.3596 10.0002L23.719 11.3596C24.0944 11.735 24.0943 12.3436 23.719 12.719C23.3436 13.0944 22.735 13.0944 22.3596 12.719L21.0002 11.3596L19.6408 12.719C19.2655 13.0944 18.6569 13.0944 18.2815 12.719C17.9062 12.3436 17.9061 11.7349 18.2815 11.3596L19.6408 10.0002L18.2815 8.64084C17.9062 8.26543 17.9061 7.65681 18.2815 7.28146C18.6568 6.90614 19.2654 6.90622 19.6408 7.28146L21.0002 8.64084L22.3596 7.28146Z" fill="white"/>
<path d="M21 15C21 19.4183 17.4183 23 13 23C8.58172 23 5 19.4183 5 15" stroke="white" stroke-width="2" stroke-linecap="round"/>
</svg>
